<?xml version="1.0" encoding="UTF-8" standalone="no"?>
<svg
   xmlns:dc="http://purl.org/dc/elements/1.1/"
   xmlns:cc="http://creativecommons.org/ns#"
   xmlns:rdf="http://www.w3.org/1999/02/22-rdf-syntax-ns#"
   xmlns:svg="http://www.w3.org/2000/svg"
   xmlns="http://www.w3.org/2000/svg"
   width="27.803194mm"
   height="31.467926mm"
   viewBox="0 0 27.803194 31.467926"
   version="1.1"
   id="svg8">
  <defs
     id="defs2" />
  <metadata
     id="metadata5">
    <rdf:RDF>
      <cc:Work
         rdf:about="">
        <dc:format>image/svg+xml</dc:format>
        <dc:type
           rdf:resource="http://purl.org/dc/dcmitype/StillImage" />
        <dc:title></dc:title>
      </cc:Work>
    </rdf:RDF>
  </metadata>
  <g
     id="layer1"
     transform="translate(-77.102891,-73.151916)"
     style="fill:#9e002d;fill-opacity:1">
    <flowRoot
       xml:space="preserve"
       id="flowRoot66"
       style="font-style:normal;font-weight:normal;font-size:40px;line-height:1.25;font-family:sans-serif;letter-spacing:0px;word-spacing:0px;fill:#9e002d;fill-opacity:1;stroke:none"><flowRegion
         id="flowRegion68"
         style="fill:#9e002d;fill-opacity:1"><rect
           id="rect70"
           width="375.71429"
           height="285.71429"
           x="-665.71429"
           y="263.94824"
           style="fill:#9e002d;fill-opacity:1" /></flowRegion><flowPara
         id="flowPara72" /></flowRoot>
    <g
       id="g107"
       transform="matrix(0.27027185,0,0,0.27027185,104.88085,45.789203)"
       style="fill:#9e002d;fill-opacity:1">
      <path
         style="fill:#9e002d;fill-opacity:1;stroke-width:0.987134"
         d="m -67.194816,217.20636 c -0.159926,-0.2561 -0.373548,-0.8424 -0.474694,-1.30291 -0.101159,-0.4605 -0.295893,-0.90648 -0.432769,-0.99107 -0.136867,-0.0848 -0.882321,0.26667 -1.656539,0.78054 -1.496829,0.99355 -2.144703,1.13405 -2.803184,0.6079 -0.418996,-0.33481 -2.564227,-4.83414 -2.564227,-5.37814 0,-0.16625 0.266229,-0.30252 0.591639,-0.30252 0.478878,0 0.682801,-0.26136 1.069936,-1.37117 0.26306,-0.75416 1.007921,-2.60529 1.655274,-4.11357 0.647323,-1.50833 1.325199,-3.09499 1.506385,-3.52594 0.181157,-0.43095 0.53487,-1.27277 0.786026,-1.87071 0.251137,-0.59796 0.404756,-1.24277 0.341369,-1.43293 -0.155932,-0.46776 -1.324852,0.80615 -1.904299,2.07538 -0.789961,1.73036 -1.462715,3.01741 -2.758101,5.27653 -2.080949,3.62919 -2.881651,5.23085 -2.734251,5.46933 0.07649,0.12378 0.314136,1.14013 0.528147,2.25867 0.214023,1.11852 0.508088,2.15267 0.653481,2.2981 0.338398,0.33839 0.342703,0.94344 0.007,0.94344 -0.354537,0 -0.976472,-1.56328 -1.190955,-2.99358 -0.142072,-0.94735 -0.281572,-1.18531 -0.694914,-1.18531 -0.286308,0 -0.574414,0.21897 -0.645428,0.49053 -0.07058,0.2698 -0.427361,0.6268 -0.792915,0.79336 -0.572005,0.26062 -0.716601,0.22865 -1.037389,-0.22934 -0.532992,-0.76095 -1.048357,-0.66369 -2.253704,0.42524 -1.019503,0.92107 -1.068948,0.93688 -1.301409,0.4159 -0.189974,-0.42574 -0.05931,-0.80646 0.611056,-1.78086 0.694093,-1.00885 0.84464,-1.46698 0.809381,-2.46315 -0.02378,-0.67306 0.134446,-1.72766 0.351754,-2.34353 0.217299,-0.61587 0.395082,-1.38606 0.395082,-1.71156 0,-0.41897 0.197613,-0.64139 0.676689,-0.76161 0.385702,-0.0969 0.6237,-0.30794 0.553467,-0.49098 -0.351766,-0.91669 2.133392,-7.81044 3.684476,-10.2206 0.457213,-0.71045 0.831298,-1.54817 0.831298,-1.86157 0,-0.3134 0.181768,-0.72069 0.403972,-0.90508 0.491772,-0.40815 2.97702,-5.36712 4.092143,-8.16539 0.946111,-2.3741 0.844741,-2.64151 -1.141906,-3.01267 -1.173869,-0.2193 -2.83184,-1.16017 -2.83184,-1.60704 0,-0.27599 -6.698907,-3.92707 -10.571711,-5.7618 -1.576799,-0.74702 -3.313245,-1.41808 -3.858753,-1.49123 -0.545512,-0.0732 -1.054685,-0.2347 -1.131485,-0.35897 -0.0768,-0.12415 -0.53712,-0.22594 -1.022936,-0.22594 -0.485809,0 -0.955932,-0.11764 -1.044713,-0.26118 -0.544632,-0.88125 4.246194,0.4845 7.839509,2.23484 0.720531,0.35097 1.585092,0.63813 1.921269,0.63813 0.336169,0 1.039493,0.33509 1.56293,0.74468 1.162527,0.9096 4.877213,2.91183 5.402316,2.91183 0.20966,0 0.381205,-0.18398 0.381205,-0.40896 0,-0.72555 -0.520893,-1.41182 -1.5783,-2.07933 -1.053835,-0.66526 -1.356621,-1.52414 -0.750866,-2.1299 0.188381,-0.18834 0.19853,-0.44534 0.0305,-0.77048 -0.138692,-0.26834 -0.363029,-0.78169 -0.498543,-1.14081 -0.13553,-0.35913 -0.502153,-1.18184 -0.81474,-1.82826 -0.312586,-0.64641 -0.568006,-1.38096 -0.567612,-1.63238 3.93e-4,-0.25138 -0.116809,-0.45704 -0.260455,-0.45704 -0.143644,0 -0.261174,-0.17782 -0.261174,-0.39532 0,-0.21737 -0.136072,-0.61321 -0.3024,-0.87953 -0.325458,-0.52114 -0.145939,-1.33696 0.294205,-1.33696 0.148162,0 0.269369,0.21235 0.269369,0.47164 0,0.84448 1.107306,3.78556 2.329912,6.18843 1.101679,2.16523 1.299008,2.40031 2.501901,2.9808 0.718249,0.34659 1.532923,0.7429 1.810385,0.88067 1.155873,0.57391 4.173245,1.17301 6.834194,1.35695 0.445068,0.0307 0.934825,0.13354 1.088356,0.22846 0.153528,0.0949 0.847168,0.23612 1.541409,0.31386 0.69425,0.0777 1.585474,0.19138 1.980505,0.25262 1.31735,0.20406 0.740065,-0.30658 -1.175303,-1.0398 -4.334672,-1.65929 -4.89176,-2.04869 -4.357909,-3.04618 0.320287,-0.59846 0.600247,-0.54528 3.070234,0.58324 0.907828,0.41475 1.702432,0.75414 1.765804,0.75414 0.06337,0 0.613427,0.2184 1.222378,0.48534 1.557342,0.68271 2.548288,1.08171 2.686534,1.08171 0.36386,0 0.004,-0.84437 -0.798898,-1.87505 -0.634736,-0.81473 -0.936365,-1.49151 -0.979425,-2.19759 -0.06871,-1.12653 0.436938,-1.40659 0.954027,-0.52846 0.159311,0.27052 0.524948,0.74065 0.81253,1.04472 0.287593,0.30406 1.144385,1.27256 1.904015,2.15218 1.406694,1.62902 4.314426,3.61858 4.938471,3.37911 0.589705,-0.22628 0.368922,-0.88326 -0.461248,-1.37248 -0.440368,-0.25952 -1.263087,-1.17702 -1.82826,-2.0389 -0.565186,-0.8619 -1.330815,-1.998 -1.701405,-2.52467 -0.58154,-0.82652 -0.630155,-1.03918 -0.355042,-1.55323 0.312516,-0.58394 0.347512,-0.56345 1.787335,1.04633 1.402471,1.56799 1.510362,1.63411 2.39595,1.46795 0.685092,-0.12848 1.016619,-0.0663 1.269059,0.23775 0.187946,0.22647 0.592133,0.41175 0.898205,0.41175 0.306081,0 1.371149,0.23296 2.366821,0.5177 0.995673,0.28472 1.860865,0.46715 1.922641,0.40536 0.0618,-0.0618 -0.19495,-0.66214 -0.570536,-1.33414 -0.737259,-1.3191 -0.857759,-2.06183 -0.382188,-2.35574 0.350434,-0.21649 1.555586,1.12206 2.336971,2.59579 0.572389,1.07956 2.660781,3.30519 3.101406,3.30519 0.511544,0 0.263391,-0.88288 -0.618625,-2.20094 -0.487675,-0.72874 -0.954864,-1.70698 -1.038187,-2.17383 -0.236726,-1.32626 0.554263,-1.06812 1.907329,0.62246 1.330535,1.66243 5.433855,5.1715 7.060067,6.0376 2.192436,1.16767 2.470037,0.50585 0.383969,-0.91539 -2.261692,-1.54093 -3.625416,-2.96668 -4.077219,-4.26269 -0.232963,-0.66833 -0.199905,-0.84985 0.211427,-1.16139 0.586289,-0.44405 0.796509,-0.46998 1.009914,-0.12487 0.171419,0.27737 1.697676,0.37069 1.697676,0.10391 0,-0.0866 -0.281699,-0.7036 -0.62599,-1.37119 -0.873535,-1.69385 -1.463447,-3.12543 -1.463447,-3.55152 0,-0.19859 -0.09388,-0.40032 -0.208633,-0.44819 -0.114749,-0.0479 -0.600581,-1.0273 -1.07963,-2.17648 -0.479035,-1.1492 -1.149092,-2.75057 -1.48902,-3.55859 -0.33992,-0.80804 -0.618039,-1.63397 -0.618039,-1.83543 0,-0.20143 -0.180038,-0.62332 -0.400083,-0.93749 -0.220039,-0.31416 -0.559604,-1.02334 -0.754583,-1.57595 -0.194972,-0.55262 -0.59161,-1.52643 -0.881404,-2.16401 -0.289802,-0.63757 -0.825254,-1.83504 -1.18989,-2.66103 -0.364637,-0.82597 -0.757595,-1.49946 -0.873247,-1.49662 -0.115652,0.003 -1.268034,1.61845 -2.560863,3.59026 -1.375029,2.09716 -3.10659,4.34429 -4.172092,5.41432 -1.757731,1.76516 -2.075965,2.35446 -1.798914,3.33098 0.178881,0.63051 0.865538,0.59635 0.700472,-0.0349 -0.141205,-0.53989 1.332904,-1.85871 2.07758,-1.85871 0.230732,0 0.451218,-0.26032 0.497703,-0.58765 0.0459,-0.32321 0.259752,-0.58766 0.475225,-0.58766 0.297157,0 0.378812,0.27833 0.338093,1.15254 -0.02951,0.63389 -0.1315,1.33908 -0.226655,1.56707 -0.09514,0.22801 -0.228381,1.29604 -0.296092,2.3734 -0.07264,1.15667 -0.274007,2.12768 -0.491582,2.37118 -0.226339,0.25326 -0.368476,0.98962 -0.368476,1.90895 0,0.93126 -0.09863,1.43565 -0.261179,1.33521 -0.143662,-0.0887 -0.261184,-0.38541 -0.261184,-0.65917 0,-0.61559 -0.479401,-0.86293 -2.48121,-1.28003 -0.861877,-0.17963 -2.015144,-0.61661 -2.562785,-0.97114 l -0.995733,-0.64458 -0.525009,0.66746 c -0.461238,0.58636 -0.720991,0.66778 -2.138425,0.67035 -1.09033,0.002 -2.417849,0.26551 -4.094615,0.81282 -2.135577,0.69711 -2.98146,0.82816 -6.072424,0.94087 -3.446715,0.12577 -3.591212,0.11023 -3.591212,-0.38514 0,-0.28388 -0.339129,-0.94282 -0.753618,-1.46442 -0.446094,-0.56133 -0.825282,-1.42615 -0.929218,-2.11924 -0.09655,-0.64403 -0.286339,-1.23941 -0.421684,-1.32306 -0.371192,-0.22939 -0.295725,-1.10859 0.154052,-1.79505 0.449711,-0.68635 0.705843,-0.40439 -3.137178,-3.4533 -1.894904,-1.50332 -3.790181,-3.99009 -3.791621,-4.97493 -5.2e-4,-0.31295 -0.177111,-0.74529 -0.392604,-0.96078 -0.241502,-0.2415 -0.391761,-0.88202 -0.391761,-1.66994 0,-0.94526 -0.219165,-1.68137 -0.841476,-2.82633 -0.711099,-1.30829 -0.844383,-1.83189 -0.860256,-3.37948 -0.02694,-2.62448 -0.440981,-3.08056 -1.276403,-1.40591 -0.585815,1.17429 -0.548984,3.94042 0.0845,6.34926 0.299033,1.13703 0.494298,2.11672 0.433913,2.1771 -0.228244,0.22824 -0.670471,-0.98157 -1.085244,-2.96892 -0.542155,-2.59767 -0.379049,-5.61723 0.357214,-6.61308 0.276368,-0.3738 0.592774,-0.97119 0.703125,-1.32753 0.110357,-0.35634 0.471643,-1.11802 0.802855,-1.69261 0.331215,-0.57459 0.86241,-1.74991 1.180445,-2.61179 0.318024,-0.8619 0.924847,-2.07484 1.348476,-2.69544 0.969611,-1.42046 0.712176,-1.77937 -0.351066,-0.48946 -0.437437,0.53067 -1.017793,0.96487 -1.289699,0.96487 -1.019136,0 -5.265403,2.34236 -6.767792,3.7333 -1.858988,1.7211 -3.104783,2.33867 -5.007206,2.48219 -2.534545,0.19119 -2.052824,-0.83534 0.513043,-1.09327 2.213203,-0.22247 3.739917,-0.98261 5.685457,-2.83075 1.070951,-1.01734 4.76441,-3.06658 5.559173,-3.08439 0.689552,-0.0155 1.719084,-1.07063 2.636675,-2.70235 0.475196,-0.84504 1.065413,-1.5891 1.311574,-1.65347 0.356503,-0.0932 0.483537,-0.5483 0.624324,-2.2364 0.09722,-1.16565 0.311439,-2.28165 0.476063,-2.48001 0.227515,-0.27413 0.216752,-0.41167 -0.04491,-0.57336 -0.257654,-0.15922 -0.204181,-0.25717 0.212672,-0.38947 0.418268,-0.13274 0.556861,-0.38854 0.556861,-1.02774 0,-1.00723 0.902101,-1.98677 1.829703,-1.98677 0.56468,0 0.57993,0.0298 0.16869,0.33056 -0.398348,0.29127 -0.417231,0.49298 -0.158878,1.69766 0.367104,1.71171 0.850878,1.75882 1.403586,0.13668 0.399324,-1.17194 0.395287,-1.25438 -0.08509,-1.73475 -0.351668,-0.35167 -0.434587,-0.63146 -0.273919,-0.92431 0.12673,-0.23098 0.537849,-1.12515 0.913573,-1.98705 0.375752,-0.86188 0.897532,-2.03719 1.159546,-2.61179 0.262005,-0.57459 0.832193,-1.82599 1.267084,-2.78089 0.434912,-0.9549 0.913682,-1.81216 1.063942,-1.90503 0.150276,-0.0929 0.692526,-0.91864 1.205005,-1.83504 2.035391,-3.63962 7.323933,-7.01393 12.923439,-8.24567 0.790062,-0.17379 1.758364,-0.43265 2.151775,-0.57522 0.99894,-0.36204 3.400025,-0.0126 5.39127,0.7845 2.844862,1.13887 6.263435,4.86729 7.480492,8.15846 0.239024,0.64642 0.546289,1.41212 0.682769,1.70156 0.136488,0.28943 0.285116,0.87289 0.330296,1.29657 0.06534,0.61269 0.247446,0.81317 0.88999,0.97967 1.086679,0.28158 1.251606,0.64328 0.55176,1.20999 -0.529628,0.42886 -0.554029,0.55342 -0.267258,1.36389 0.470894,1.33085 0.628234,4.19868 0.2977,5.42619 -0.229075,0.85072 -0.2111,1.35087 0.0843,2.34565 0.36982,1.24533 0.360098,1.30519 -0.644973,3.9688 -0.561254,1.48742 -1.119244,2.76951 -1.239969,2.84909 -0.120748,0.0796 -0.585401,0.916 -1.03258,1.85871 -0.447191,0.9427 -1.11866,2.04374 -1.492145,2.44675 -0.374811,0.40442 -0.613346,0.90402 -0.53238,1.11501 0.08063,0.21025 0.146698,0.60105 0.146698,0.86841 0,0.26736 0.641697,1.17922 1.425984,2.02634 0.995494,1.07525 1.343232,1.62298 1.151876,1.81434 -0.19137,0.19137 -0.168473,0.46864 0.07583,0.91846 0.583997,1.07547 2.478643,3.06977 2.916347,3.06977 0.226135,0 0.505146,0.14805 0.62002,0.329 0.114875,0.18096 0.679226,0.63347 1.254123,1.00557 1.002751,0.64905 1.617805,0.83209 3.917145,1.16569 0.574592,0.0834 1.279782,0.25558 1.567077,0.38267 0.287296,0.12713 1.186347,0.41683 1.997876,0.64383 0.811543,0.22699 2.108171,0.75537 2.881402,1.17417 1.474198,0.79846 4.653757,3.50913 4.653757,3.96749 0,0.25503 0.86997,1.44448 1.699043,2.32302 0.214724,0.22751 0.390394,0.49716 0.390394,0.59921 0,0.32554 2.546034,3.56215 3.178401,4.04048 0.334787,0.25324 1.137584,0.62409 1.784001,0.82413 1.548831,0.47926 2.34994,1.00277 2.18646,1.42881 -0.07295,0.19008 -0.007,0.42322 0.146355,0.51807 0.153438,0.0949 0.278984,0.4316 0.278984,0.74834 0,0.64863 0.880317,3.18919 1.2674502,3.65778 0.1390901,0.16823 0.3337221,0.77622 0.4325326,1.35082 0.431723,2.51052 0.9030407,3.59807 1.9969999,4.608 0.6001309,0.55405 1.189123,1.00737 1.3088702,1.00737 0.4020925,0 0.2242011,1.91054 -0.2239988,2.4058 -0.422019,0.46634 -0.3258414,0.60553 2.1547262,3.1194 2.2762263,2.30678 2.4998148,2.61087 1.8129157,2.46555 -3.195001,-0.67597 -3.5957093,-0.40405 -1.6118305,1.0938 1.8788302,1.41853 3.04831947,2.62117 3.04831947,3.13474 0,0.29475 -0.34211047,0.0998 -1.11001317,-0.63248 -1.1555803,-1.10195 -2.7891426,-2.30994 -2.9042312,-2.14757 -0.036539,0.0517 -0.5027679,0.74019 -1.0360065,1.53028 -0.5332423,0.79005 -1.3486546,1.92028 -1.812032,2.51157 -0.463372,0.59131 -1.3841418,1.76659 -2.0461522,2.61179 -1.0471919,1.33694 -1.7919449,2.71199 -1.4688749,2.71199 0.05774,0 0.80026,-0.22707 1.6499648,-0.5046 2.1144521,-0.69063 4.0261222,-0.82695 4.0261222,-0.28711 0,0.13914 -0.1617325,0.19095 -0.359424,0.11493 -0.469216,-0.17998 -3.3278838,0.56568 -4.77382,1.24536 -2.505484,1.17774 -0.664696,2.82663 3.1555726,2.82663 1.5404315,0 1.9821837,-0.0945 2.3517472,-0.50281 0.4383856,-0.48441 0.4279119,-0.50591 -0.285992,-0.58766 -0.8946686,-0.10228 -1.0716402,-1.07994 -0.2186806,-1.20792 0.2873058,-0.0432 0.9337193,-0.42014 1.436489,-0.83792 l 0.914118,-0.75956 -1.6364934,-1.51268 c -1.1198925,-1.03516 -1.6352087,-1.70595 -1.6323752,-2.12481 0.00398,-0.53946 0.2248987,-0.40773 1.8641822,1.11003 1.0230318,0.94716 2.0128804,1.7221 2.1996752,1.7221 0.3543317,0 2.22629515,-2.03628 2.13200415,-2.31915 -0.0297263,-0.0891 0.0634642,-0.19773 0.20714782,-0.24114 0.67411588,-0.20405 0.29094879,0.72445 -0.77985467,1.88992 -0.7872293,0.85682 -1.1392407,1.44741 -1.0508028,1.76296 0.07315,0.26098 0.1999467,0.71041 0.281787,0.99873 0.1032739,0.36385 -0.082926,0.74345 -0.608579,1.24061 -1.3789356,1.30427 -2.9835885,2.54321 -3.4197443,2.64039 -0.2364548,0.0528 -0.7237451,0.3 -1.0828638,0.54957 -0.3591186,0.24957 -0.9761564,0.53193 -1.3711869,0.62743 -0.8609595,0.20819 -0.908442,0.53444 -0.1667562,1.14567 1.233978,1.01696 1.2240771,0.99354 1.0373383,2.45286 -0.037804,0.29567 -1.9355523,1.31493 -3.1064816,1.66844 -0.619226,0.18703 -2.184803,0.48464 -3.479052,0.6615 -2.263776,0.30937 -2.37402,0.30075 -2.90164,-0.22688 l -0.548465,-0.54848 -0.350006,0.67463 c -0.514799,0.9923 -0.05419,1.38779 1.616372,1.38779 0.755987,0 1.754947,0.15993 2.219907,0.35547 l 0.845381,0.35545 -0.750103,0.19162 c -2.264714,0.57834 -3.613453,0.44545 -3.82859,-0.37724 -0.18502,-0.7075 -0.746746,-0.66124 -1.602651,0.1321 -1.081011,1.00184 -1.639195,0.45679 -0.673037,-0.65721 0.287295,-0.33124 0.522362,-0.90751 0.522373,-1.28057 0,-0.46212 0.291321,-0.91072 0.914123,-1.40765 0.502768,-0.40115 0.914117,-0.94504 0.914117,-1.20864 0,-0.26358 0.18275,-0.63088 0.406116,-0.81625 0.223358,-0.1853 0.992919,-1.52198 1.710139,-2.97026 1.445808,-2.91946 3.107393,-5.93481 4.25747,-7.72619 0.748652,-1.16612 1.146607,-1.67653 3.1593118,-4.05208 2.1677064,-2.55848 2.2347341,-3.35701 0.4570653,-5.44486 -0.682329,-0.80138 -1.8354299,-2.60648 -2.5624441,-4.01131 l -1.32185,-2.55429 -3.509963,-0.13047 c -1.930488,-0.0717 -3.604952,-0.0591 -3.721049,0.0282 -0.218326,0.16426 1.706593,1.86968 3.084051,2.7323 1.473438,0.92275 3.003564,2.31211 3.003564,2.72729 0,0.22814 -0.11699,0.53182 -0.260003,0.67481 -0.142993,0.14294 -0.334272,1.13869 -0.425051,2.21265 -0.137067,1.62153 -0.09299,2.01249 0.259993,2.30542 0.598521,0.49672 0.527988,0.75842 -0.168527,0.62526 -0.483645,-0.0925 -0.654431,0.0549 -0.922232,0.79544 -0.180766,0.49989 -0.30603,1.00798 -0.27838,1.12911 0.02763,0.12107 -0.09142,0.56461 -0.264524,0.98559 -0.173153,0.42096 -0.384656,1.30243 -0.470031,1.95882 -0.154758,1.1899 -0.471287,1.84643 -0.890249,1.84643 -0.338211,0 -0.05786,-2.02744 0.538541,-3.89427 0.294106,-0.92064 0.581916,-1.91959 0.639565,-2.21987 0.05766,-0.30026 0.183601,-0.74366 0.279891,-0.98534 0.128501,-0.32253 -0.05391,-0.55783 -0.685732,-0.88454 l -0.860809,-0.44517 -0.958805,1.08044 c -0.527337,0.59426 -1.089745,1.08045 -1.249788,1.08045 -0.160052,0 -0.290989,0.15324 -0.290989,0.34054 0,0.18725 -0.424392,0.74556 -0.94308,1.24061 -1.616995,1.54325 -5.949554,6.41464 -7.675834,8.63048 -0.359115,0.46095 -0.957645,1.20204 -1.33004,1.64684 -1.615513,1.92956 -4.249503,6.58987 -5.180856,9.16644 -0.311541,0.8619 -0.799518,1.86092 -1.084395,2.22004 -0.389936,0.49157 -0.354509,0.33671 0.143337,-0.62657 0.363708,-0.70373 0.661293,-1.70594 0.661293,-2.22717 0,-0.52127 0.161552,-1.17955 0.35903,-1.46292 0.19748,-0.28333 0.442847,-1.01459 0.545292,-1.62504 0.102442,-0.61041 0.325675,-1.19807 0.496072,-1.30588 0.374087,-0.2367 1.211404,-1.51871 1.211404,-1.85475 0,-0.396 1.955375,-3.18563 3.505665,-5.00135 0.797219,-0.93373 1.451125,-1.83087 1.453109,-1.99367 0.002,-0.16281 0.238681,-0.35747 0.525983,-0.43261 0.547417,-0.14312 0.733059,-0.70788 0.232698,-0.70788 -0.357769,0 -0.934097,0.52417 -3.972528,3.61285 -1.68045,1.70826 -2.740108,3.06256 -3.541701,4.52652 -0.6291,1.14894 -1.32321,2.15781 -1.542463,2.24194 -0.238305,0.0914 -0.599921,-0.0956 -0.899083,-0.46506 -0.690774,-0.85307 -1.107238,-0.52483 -2.349033,1.85139 -0.558827,1.06935 -1.207519,2.23777 -1.441533,2.59645 -1.716666,2.63145 -2.700282,5.74671 -1.81446,5.74671 0.188468,0 0.61771,0.37204 0.953889,0.82674 0.493032,0.66686 0.523654,0.79314 0.158354,0.65296 -0.249083,-0.0956 -0.5608,-0.17366 -0.692704,-0.17366 -0.131898,0 -0.239821,-0.17329 -0.239821,-0.38505 0,-0.2117 -0.361036,-0.57175 -0.802297,-0.79995 -0.879138,-0.45462 -1.18591,-0.33162 -2.158945,0.8658 -0.265907,0.32723 -0.948637,0.83227 -1.517188,1.12234 -0.836676,0.42681 -1.001506,0.62886 -0.864729,1.05982 0.148668,0.46834 0.105298,0.49839 -0.359899,0.24942 -0.580734,-0.3108 -1.609955,-1.63938 -1.609955,-2.07821 0,-0.15233 0.235055,-0.40277 0.52236,-0.55654 0.287295,-0.1536 0.522351,-0.44755 0.522351,-0.65294 0,-0.20536 -0.235056,-0.49919 -0.522351,-0.65293 -0.287305,-0.1536 -0.521494,-0.53988 -0.520424,-0.85802 0.004,-1.15755 3.65872,-11.28483 8.632956,-23.92124 0.417015,-1.05932 0.694597,-2.02896 0.61687,-2.15471 -0.272696,-0.44123 -0.584482,-0.22084 -0.877364,0.62016 -0.162582,0.46686 -0.585438,1.28705 -0.939672,1.82265 -0.354243,0.53561 -0.644066,1.15164 -0.644066,1.36898 0,0.21737 -0.235065,0.54196 -0.52236,0.72136 -0.291965,0.18245 -0.522362,0.60908 -0.522362,0.96756 0,0.35271 -0.528889,1.66532 -1.175303,2.91692 -0.646424,1.25157 -1.175309,2.60028 -1.175309,2.99709 0,0.39682 -0.166684,0.90704 -0.370422,1.13383 -0.203724,0.22677 -0.620967,1.45172 -0.927196,2.72211 -0.306228,1.27039 -0.652961,2.50445 -0.770518,2.74239 -0.117549,0.23792 -0.420145,1.02025 -0.672426,1.73849 -0.974075,2.77329 -1.222743,3.42927 -1.683092,4.44002 -0.261689,0.57461 -0.542242,1.24308 -0.623424,1.48552 -0.101702,0.30371 -0.375489,0.41544 -0.88031,0.35932 -0.589198,-0.0654 -0.731127,-0.20995 -0.72473,-0.73707 0.0051,-0.42752 -0.10837,-0.61095 -0.326486,-0.52725 -0.183929,0.0705 -0.334411,0.23329 -0.334411,0.36156 0,0.1283 -0.354834,0.23325 -0.788512,0.23325 -0.72451,0 -0.77565,-0.0582 -0.629991,-0.71825 0.395851,-1.79348 2.270509,-7.9706 2.992203,-9.85951 0.439085,-1.14918 1.39541,-3.8524 2.12518,-6.00713 0.729769,-2.15473 1.413487,-4.03521 1.519358,-4.17886 0.305655,-0.41474 1.050064,-2.78478 1.050064,-3.34324 0,-0.42178 -0.06634,-0.45274 -0.391776,-0.18266 -0.215464,0.17872 -0.39448,0.45766 -0.397794,0.61963 -0.0031,0.16191 -0.649731,1.5835 -1.436487,3.15897 -0.786745,1.57544 -1.430457,3.00546 -1.430457,3.17777 0,0.17239 -0.250279,0.88136 -0.556172,1.5756 -0.305911,0.69424 -0.649068,1.67361 -0.762599,2.17638 -0.256822,1.13731 -1.436538,4.68435 -2.100879,6.31671 -0.273919,0.67304 -0.498035,1.47366 -0.498035,1.77915 0,1.39475 -2.669658,6.00781 -3.476816,6.00781 -0.481959,0 -0.504672,-0.12468 -0.345478,-1.89353 0.157504,-1.7502 0.686275,-4.03179 1.225725,-5.28889 0.123278,-0.28731 0.351496,-1.05125 0.507141,-1.69765 0.155624,-0.64643 0.388839,-1.41038 0.518233,-1.69769 0.695791,-1.54484 3.138268,-8.59259 3.138268,-9.05542 0,-0.87608 -0.736818,-0.082 -1.615239,1.74041 -0.415938,0.863 -1.003272,1.98044 -1.305187,2.4832 -0.301915,0.50278 -0.887847,1.85438 -1.302071,3.00356 -0.819467,2.27348 -2.038311,5.36132 -3.683843,9.33266 -1.058062,2.55353 -1.747574,3.53278 -2.263192,3.21412 -0.342633,-0.21169 -0.369524,-2.14258 -0.03278,-2.35074 0.134699,-0.0831 0.535541,-1.05981 0.890758,-2.17012 0.355201,-1.11036 1.016591,-3.01783 1.469735,-4.23883 0.453124,-1.22101 1.053983,-2.86324 1.335219,-3.64939 0.281232,-0.78616 0.626187,-1.54423 0.766558,-1.68462 0.140373,-0.14041 0.255231,-0.414 0.255231,-0.60808 0,-0.194 0.646417,-1.78267 1.436489,-3.53027 1.450356,-3.20808 1.680269,-3.97256 1.140693,-3.79269 -0.723512,0.24115 -5.514279,9.89319 -7.03781,14.1792 -0.612746,1.72378 -1.622742,4.14548 -2.244417,5.38155 -0.621678,1.23606 -1.134071,2.41135 -1.138632,2.61178 -0.01138,0.4996 -0.528016,1.13108 -1.232308,1.50622 -0.625468,0.33317 -0.791147,1.39934 -0.329898,2.12291 0.20488,0.32142 0.333156,0.33281 0.71424,0.0633 1.925057,-1.3609 2.422338,-0.95498 0.731662,0.59723 -0.69948,0.6422 -1.281911,1.16762 -1.294298,1.16762 -0.01247,0 -0.153384,-0.20951 -0.313317,-0.46564 z m -3.31687,-1.65096 c 0.717234,-0.44325 0.829923,-0.62083 0.582864,-0.91849 -0.33138,-0.39931 -0.149101,-3.2872 0.274456,-4.34797 0.128013,-0.32059 0.496989,-1.46438 0.819971,-2.54175 0.322969,-1.07736 0.809251,-2.65131 1.080624,-3.49762 0.329218,-1.02675 0.406413,-1.62578 0.231976,-1.80018 -0.174418,-0.17438 -0.601806,0.46796 -1.284418,1.93055 -3.106806,6.65669 -3.597294,7.43825 -4.490295,7.15481 -0.799263,-0.25366 -0.866408,0.34701 -0.198572,1.77626 0.348862,0.74659 0.768453,1.68063 0.932446,2.07567 0.357517,0.86119 0.863229,0.90279 2.050946,0.1686 z m 25.943421,-1.53991 c 0.520211,-0.5202 0.721734,-1.56709 0.30167,-1.56709 -0.278391,0 -0.925488,0.7351 -1.322011,1.5018 -0.251461,0.48621 -0.234709,0.58764 0.09702,0.58764 0.220539,0 0.636031,-0.23506 0.923315,-0.52235 z m -22.613795,-1.21268 c 0.09061,-0.23602 0.110972,-0.48287 0.0453,-0.54852 -0.207564,-0.20754 -0.676474,0.20929 -0.676474,0.6013 0,0.5123 0.428044,0.47652 0.631156,-0.0528 z m -13.037157,-0.29309 c 0.33823,-0.24851 1.438155,-2.44417 1.437208,-2.86898 -5.24e-4,-0.17962 -0.177039,-0.32648 -0.392495,-0.32648 -0.215464,0 -0.391764,0.12306 -0.391764,0.27366 0,0.15053 -0.313237,0.56392 -0.696066,0.91874 -1.088701,1.00897 -1.050017,2.80616 0.04315,2.00306 z m 69.36184,-8.29119 c 1.4777297,-0.50408 2.9928207,-1.86612 2.6009707,-2.33828 -0.1522817,-0.18354 -0.7314289,-0.3946 -1.2870101,-0.46911 -1.4781526,-0.19814 -2.4953156,-0.76208 -2.5915016,-1.43649 -0.10163,-0.71264 -0.717045,-0.75547 -2.008244,-0.13969 -1.524699,0.72709 -1.025809,1.59852 1.352007,2.36162 0.537315,0.1724 0.916643,0.17637 1.08198,0.0108 0.283238,-0.28325 1.355383,0.16897 1.355383,0.57171 0,0.3849 -1.112383,1.05036 -1.755778,1.05036 -0.327156,0 -0.594835,0.10968 -0.594835,0.2438 0,0.13427 -0.323208,0.29282 -0.718241,0.35265 -0.528815,0.0801 -0.437744,0.11909 0.345244,0.148 0.584916,0.0219 1.583922,-0.13842 2.220025,-0.35536 z m -3.22188,-1.01657 c 0.213392,-0.21343 -0.286772,-0.89878 -0.839702,-1.1507 -0.691793,-0.31521 -0.980581,-0.10174 -1.309109,0.96754 -0.187487,0.61028 -0.164263,0.6213 0.937648,0.4451 0.621459,-0.0994 1.166478,-0.21714 1.211163,-0.26194 z m -24.762021,-1.36652 c 0.297729,-0.37851 0.541314,-0.8486 0.541314,-1.04472 0,-0.19619 0.09784,-0.35655 0.217364,-0.35655 0.119555,0 0.345712,-0.41827 0.502619,-0.92947 0.245151,-0.79883 0.22772,-0.91813 -0.124091,-0.84883 -0.225126,0.0443 -0.494277,0.25693 -0.598112,0.4724 -1.564076,3.24569 -1.767951,4.26936 -0.539105,2.70717 z m 28.226299,-2.44599 c 0,-0.14367 0.169377,-0.26118 0.376365,-0.26118 0.206998,0 0.4478949,-0.11565 0.5353443,-0.25723 0.098612,-0.15957 -0.1683464,-0.20057 -0.7028413,-0.10807 -1.316993,0.22807 -1.562062,0.33857 -1.385303,0.62458 0.210772,0.34105 1.176435,0.34255 1.176435,0.002 z m -53.171756,-0.9515 c 0.218659,-0.5698 -0.07167,-0.83465 -0.380178,-0.34683 -0.308843,0.48838 -0.315428,0.77599 -0.01771,0.77599 0.128283,0 0.307346,-0.19314 0.397914,-0.42916 z m 31.232709,-1.71855 c 0,-0.19772 0.13076,-0.49037 0.290573,-0.65019 0.159799,-0.15974 0.243606,-0.43144 0.18622,-0.60359 -0.120495,-0.36145 -1.359233,1.34908 -1.769979,2.44404 l -0.27766,0.74024 0.785431,-0.78544 c 0.43198,-0.43198 0.785424,-0.94726 0.785424,-1.14506 z m -4.165082,0.93616 c 0.376244,-0.98962 0.100473,-1.07289 -0.392988,-0.11872 -0.244809,0.4734 -0.304168,0.80781 -0.143373,0.80781 0.15089,0 0.392258,-0.31014 0.536379,-0.68918 z m -34.059525,-1.00328 c -0.234791,-0.61185 -0.610526,-0.28078 -0.748535,0.65954 -0.117152,0.79828 -0.115399,0.79951 0.397953,0.28614 0.308215,-0.30822 0.449224,-0.68861 0.350582,-0.94568 z m 58.742666,1.14503 c 0.09733,-0.15739 -0.0078,-0.47054 -0.232658,-0.69579 -0.337392,-0.3374 -0.480901,-0.35036 -0.814435,-0.0735 -0.222686,0.18485 -0.40488,0.49792 -0.40488,0.69581 0,0.42951 1.194598,0.48999 1.451973,0.0735 z m -50.142468,-2.84662 c 0.96945,-2.26304 4.625924,-9.03471 6.148292,-11.38639 1.590659,-2.45729 1.754464,-2.91905 1.223651,-3.44985 -0.50648,-0.50649 -0.858273,-0.36557 -1.173704,0.47012 -0.24787,0.65664 -0.437988,0.78353 -1.174186,0.78353 -0.858035,0 -0.878636,0.0258 -0.886809,1.11001 -0.009,1.18766 -0.677193,3.14867 -1.57973,4.63592 -0.305102,0.50277 -0.69212,1.34423 -0.860052,1.86989 -0.167913,0.52567 -0.784306,1.87729 -1.369776,3.00356 -0.585459,1.12629 -1.15174,2.51791 -1.258379,3.09251 -0.106653,0.57463 -0.284777,1.27978 -0.395869,1.56709 l -0.201999,0.52235 0.512819,-0.52235 c 0.282039,-0.28731 0.739125,-1.05067 1.015742,-1.69639 z m 27.053953,-0.20624 c 0.72426,-0.83714 0.972692,-1.62325 0.513012,-1.62325 -0.126061,0 -0.386847,0.18987 -0.579516,0.42209 -0.314294,0.37867 -0.510941,0.82612 -1.134571,2.58144 l -0.18561,0.52236 0.322229,-0.52236 c 0.177238,-0.28729 0.65623,-0.9084 1.064448,-1.38028 z m 31.6919353,0.98852 c 0.2960736,-0.32715 0.3535817,-0.52237 0.1539079,-0.52237 -0.4799916,0 -1.3292123,0.50649 -1.3292123,0.79273 0,0.43264 0.6808327,0.27603 1.175308,-0.27036 z m -66.4700943,-0.0864 c 0,-0.52161 5.875402,-9.40365 6.928969,-10.47476 0.624205,-0.63458 1.229681,-1.92474 1.044171,-2.22493 -0.07156,-0.11565 -0.429771,-0.26772 -0.796107,-0.33774 -0.49234,-0.094 -0.742313,0.0181 -0.958455,0.42589 -0.160811,0.30424 -0.685544,1.01506 -1.166054,1.57961 -0.480515,0.56455 -0.873663,1.13515 -0.873663,1.26804 0,0.133 -0.341173,0.74708 -0.758155,1.36495 -0.416987,0.61785 -0.832827,1.35861 -0.924079,1.64611 -0.09122,0.28752 -0.335753,0.58793 -0.543329,0.66759 -0.207585,0.0797 -0.31529,0.30675 -0.239359,0.50464 0.0759,0.19794 -0.04353,0.51055 -0.265567,0.6948 -0.222018,0.18419 -0.403661,0.6075 -0.403661,0.94056 0,0.33306 -0.114188,0.67613 -0.253739,0.76238 -0.249549,0.15433 -1.096992,1.91506 -1.43652,2.98483 -0.125374,0.39504 -0.06012,0.54568 0.236173,0.54568 0.225144,0 0.409375,-0.1565 0.409375,-0.34765 z m 30.557964,-0.46669 c 0,-0.28731 -0.117513,-0.44973 -0.261186,-0.36096 -0.143644,0.0887 -0.261174,0.39649 -0.261174,0.68377 0,0.28731 0.117532,0.44971 0.261174,0.36093 0.143662,-0.0887 0.261186,-0.39645 0.261186,-0.68374 z m -12.022244,-0.88331 c 0,-0.14366 -0.113936,-0.0849 -0.253183,0.13047 -0.139235,0.2154 -0.253168,0.50932 -0.253168,0.65296 0,0.14367 0.113917,0.0849 0.253168,-0.13047 0.139253,-0.2154 0.253183,-0.5093 0.253183,-0.65295 z m 23.662428,-1.30592 c 0.38348,-0.50276 0.830198,-0.91468 0.992698,-0.91535 0.556696,-0.002 5.670158,-4.72733 6.722904,-6.21216 l 0.794369,-1.12036 -0.539856,-0.91499 c -0.296929,-0.50325 -1.199505,-1.73143 -2.005735,-2.72929 -1.140298,-1.41132 -1.689403,-1.87445 -2.472346,-2.08528 -0.553577,-0.14909 -1.069107,-0.37233 -1.14564,-0.49617 -0.07649,-0.12396 -0.45876,-0.30534 -0.849381,-0.40341 -0.390638,-0.0979 -1.699999,-0.65063 -2.909692,-1.22803 l -2.199471,-1.04976 -0.553388,0.56303 -0.553398,0.56303 0.783537,0.65195 c 2.137223,1.77832 4.206699,3.23198 4.601236,3.23198 0.242088,0 0.682872,0.41134 0.979507,0.91412 0.376057,0.63735 0.727445,0.91412 1.160628,0.91412 0.341698,0 0.840901,0.24269 1.10936,0.53932 0.478142,0.52835 0.474961,0.56421 -0.155407,1.75884 -0.353916,0.67073 -1.013502,1.7594 -1.465717,2.41925 -0.452215,0.65987 -1.088146,1.83703 -1.413161,2.61593 -0.325014,0.77888 -0.924645,1.77434 -1.332498,2.21212 -0.72368,0.77677 -0.989809,1.68525 -0.493687,1.68525 0.136325,0 0.561649,-0.41136 0.945134,-0.91414 z m -19.986048,-6.38618 c 1.005695,-2.05928 1.781788,-3.79086 1.724664,-3.84798 -0.05716,-0.0571 -0.458111,0.19422 -0.891078,0.55852 -0.506902,0.42653 -1.004675,1.27836 -1.39792,2.39227 -0.335882,0.95142 -0.76034,1.7873 -0.943246,1.85749 -0.182903,0.0703 -0.332542,0.51944 -0.332542,0.99837 0,0.47894 -0.103509,0.93474 -0.229993,1.01291 -0.126513,0.0781 -0.288611,0.4487 -0.360216,0.82339 -0.249737,1.30639 0.54522,0.0651 2.430331,-3.79497 z m 13.566094,2.70002 c 1.600637,-2.25801 3.912652,-5.42959 4.497085,-6.16906 0.670778,-0.84871 0.54113,-1.04297 -0.72334,-1.08372 -0.891284,-0.0287 -0.994807,0.0555 -1.717674,1.39771 -0.423075,0.78559 -0.928786,1.60829 -1.123782,1.82829 -0.195017,0.21995 -0.548165,0.86846 -0.7848,1.4411 -0.236647,0.57262 -0.650178,1.27781 -0.918983,1.56705 -0.268817,0.28928 -0.572943,0.98176 -0.67585,1.53892 -0.251584,1.36209 0.237624,1.18621 1.447344,-0.52029 z m 2.043633,0.61431 c 0.06032,-0.31342 -0.08025,-0.45406 -0.454053,-0.45406 -0.373774,0 -0.54151,0.16787 -0.54151,0.54152 0,0.6693 0.864462,0.59337 0.995563,-0.0875 z m -4.627182,-3.93166 c 1.019743,-1.70798 1.187654,-2.67775 0.412141,-2.38016 -0.395074,0.15162 -0.555057,0.45575 -1.91362,3.63774 -0.845183,1.97953 -0.857097,2.04822 -0.226646,1.30589 0.366013,-0.43093 1.143654,-1.5845 1.728125,-2.56347 z m -14.479724,0.53932 c 0.385538,-0.61048 0.967422,-1.52135 1.293099,-2.02411 0.325673,-0.50276 0.673985,-1.24897 0.77403,-1.65824 0.15445,-0.63186 0.109057,-0.73007 -0.300994,-0.65109 -0.265592,0.0511 -0.628974,0.38599 -0.807489,0.7441 -1.787461,3.58539 -2.210942,4.69937 -1.786503,4.69937 0.06979,0 0.442314,-0.49951 0.827857,-1.11003 z m -3.642691,0.39179 c 0.09279,-0.2514 0.291343,-0.53883 0.441319,-0.63876 0.149968,-0.0999 0.182293,-0.27205 0.07176,-0.38252 -0.310591,-0.3106 -1.080222,0.2911 -1.173398,0.91738 -0.09991,0.67167 0.420561,0.75358 0.660265,0.1039 z m 26.331569,-0.27603 c -0.08043,-0.0806 -0.291144,-1.8e-4 -0.468315,0.17836 -0.256034,0.25792 -0.226033,0.28794 0.146192,0.14619 0.257583,-0.0981 0.402523,-0.24411 0.32211,-0.32453 z m -38.282976,-2.76794 c 0.432827,-0.80875 0.176623,-1.2002 -0.785641,-1.2002 -0.669295,0 -0.768107,0.0951 -0.768107,0.74002 0,0.407 0.07837,0.81836 0.174129,0.91412 0.371616,0.37164 1.05881,0.14565 1.379628,-0.45394 z m 14.083471,0.0145 c 0.422588,-0.50919 0.680478,-1.99925 0.346017,-1.99925 -0.525656,0 -1.096023,0.82522 -1.096023,1.58576 0,0.8222 0.281847,0.9776 0.750006,0.41349 z m 35.031531,-0.317 c 0,-0.43096 -0.41277,-0.50377 -0.652941,-0.11529 -0.212999,0.34461 0.0993,0.83369 0.409818,0.64178 0.133705,-0.0828 0.243123,-0.31963 0.243123,-0.52661 z m -8.357726,-0.007 c 0,-0.46122 -0.562254,-0.3809 -0.723678,0.10336 -0.05685,0.17059 0.08271,0.31017 0.310147,0.31017 0.227447,-2e-5 0.413531,-0.18617 0.413531,-0.41357 z m -7.736135,-1.90435 0.719314,-0.7508 -0.705671,-0.55511 c -0.898552,-0.70678 -1.052436,-0.69718 -1.573383,0.0978 -0.396327,0.60486 -0.396327,0.70104 0,1.3059 0.542163,0.82744 0.681626,0.81869 1.55974,-0.0978 z m 19.190384,-0.14745 c 0.897569,-0.88288 0.564519,-1.45991 -1.479913,-2.56418 -1.67103,-0.90256 -2.311216,-1.35159 -3.575459,-2.50783 -1.028536,-0.94069 -2.481188,-1.42601 -2.481188,-0.82894 0,0.13879 0.528884,0.84795 1.17531,1.57578 0.646412,0.72786 1.175303,1.44714 1.175303,1.59841 0,0.15125 0.730052,1.03534 1.622342,1.96455 1.789932,1.86403 2.326705,1.97885 3.563605,0.76221 z m 9.581109,0.63327 c 0.6635897,-0.25229 0.6778673,-0.29495 0.2944924,-0.88005 -0.2215917,-0.33819 -1.0085933,-1.1927 -1.7489165,-1.89888 l -1.3459946,-1.28401 0.5916792,-1.21784 0.5916774,-1.21787 -0.6331677,-0.52709 c -0.3482418,-0.28993 -0.7213183,-0.53101 -0.8290557,-0.5358 -0.2622688,-0.0108 -0.2527726,5.40847 0.00976,5.51962 0.1130683,0.0477 0.6028433,0.58654 1.088426,1.19706 0.9708942,1.22069 0.9811909,1.22506 1.981197,0.84486 z m -55.249834,-1.14278 c 0,-0.22198 -0.362536,-0.4055 -0.932512,-0.47204 l -0.93253,-0.10896 0.606053,0.46626 c 0.729907,0.56154 1.258989,0.60972 1.258989,0.11456 z m 19.436285,-0.38402 c 0.198814,-0.32169 -0.803034,-1.16575 -1.137988,-0.95877 -0.193969,0.11981 -0.196174,0.3256 -0.007,0.67855 0.280582,0.52429 0.900641,0.67601 1.145242,0.28022 z m -28.577557,-0.51736 c 0,-0.23362 -3.11412,-1.93177 -4.111927,-2.24232 -0.456489,-0.14203 -0.552654,-0.0954 -0.435128,0.21083 0.207325,0.5403 1.249761,1.18748 2.828454,1.75606 1.523673,0.54873 1.718601,0.57998 1.718601,0.27541 z m 31.3415,-0.3833 c 0,-0.64494 -1.343618,-1.48485 -2.375347,-1.48485 -0.418774,0 -0.277179,0.21826 0.677697,1.04472 1.389104,1.20226 1.69765,1.28226 1.69765,0.44013 z m -7.051835,-0.18746 c 0,-0.28458 -3.93615,-3.64802 -4.269177,-3.64802 -0.143174,0 -0.504634,-0.20581 -0.80324,-0.45708 l -0.542924,-0.45704 0.52234,0.64362 c 1.159845,1.42905 4.457395,4.37621 4.76463,4.2583 0.180616,-0.0694 0.328371,-0.22221 0.328371,-0.33978 z m 2.350612,-1.13643 c 0,-0.61198 -1.999461,-2.20986 -3.000148,-2.39762 -1.052225,-0.19749 -1.386556,-0.0506 -0.86942,0.38184 2.779453,2.32399 3.869568,2.89186 3.869568,2.01578 z m 19.327258,-2.07936 c 0,-0.0495 -0.264441,-0.31399 -0.58765,-0.58764 l -0.587651,-0.49754 0.497545,0.58764 c 0.467556,0.55226 0.677756,0.70655 0.677756,0.49754 z m -4.688279,-1.89646 c -1.604073,-1.71475 -2.102379,-2.54791 -2.102379,-3.51518 0,-0.57693 0.890018,-0.70662 1.227629,-0.1789 0.114876,0.17962 1.191767,1.26673 2.393097,2.4159 l 2.184239,2.08946 -0.188513,-1.14234 c -0.233435,-1.41451 0.135331,-1.72663 1.273504,-1.0778 1.609442,0.9175 4.439211,1.38885 10.398241,1.73198 2.339899,0.13463 2.537643,0.18833 2.611787,0.70873 0.135566,0.95123 0.6038331,0.47671 0.5823398,-0.59011 -0.014637,-0.7255 -0.2868688,-1.36804 -0.9794218,-2.3115 -0.527557,-0.71865 -0.959181,-1.5484 -0.959181,-1.84389 0,-0.73022 -0.530483,-1.00634 -0.917242,-0.47739 -0.497667,0.68061 -0.694223,0.51102 -0.634877,-0.54776 0.0302,-0.53869 -0.01084,-1.15571 -0.09111,-1.37119 -0.08025,-0.2154 -0.218362,-0.93405 -0.30678,-1.59689 -0.101413,-0.76019 -0.541344,-1.79078 -1.19165,-2.79157 -0.994644,-1.53073 -1.097551,-1.60698 -2.92758,-2.16923 -2.572905,-0.79049 -3.07201,-1.35594 -3.07201,-3.48038 0,-2.0314 -0.492204,-3.26228 -1.911457,-4.78004 -1.407406,-1.50514 -2.768388,-2.17932 -6.739623,-3.33854 -6.139233,-1.79205 -6.718512,-1.99452 -8.106977,-2.83344 -1.077919,-0.65131 -1.379794,-0.97275 -1.331693,-1.41796 0.03959,-0.36674 -0.08094,-0.57571 -0.332061,-0.57571 -0.216883,0 -0.525225,-0.28736 -0.68525,-0.63859 -0.415602,-0.91214 -1.000479,-1.04795 -1.49741,-0.34768 -0.392407,0.55297 -1.022109,2.18197 -1.188926,3.0757 -0.126025,0.6752 -0.471237,1.41902 -0.878797,1.89355 -0.2159,0.25138 -0.315567,0.47176 -0.221462,0.48971 0.09408,0.0179 0.288598,0.062 0.432247,0.0979 0.143644,0.0359 0.358614,0.08 0.477713,0.0979 0.119068,0.0179 0.461021,0.59092 0.759876,1.27325 0.298825,0.68233 1.158923,2.65097 1.911317,4.37475 0.752384,1.72378 1.762045,3.81625 2.243676,4.64993 0.481654,0.83366 0.875719,1.63826 0.875719,1.78794 0,0.14972 0.171003,0.58416 0.379993,0.96544 1.054962,1.9246 3.281897,8.12428 3.277871,9.12545 -0.002,0.5959 0.82845,1.62319 1.31281,1.62319 0.258795,0 0.509735,0.0882 0.557619,0.19597 0.134048,0.30158 2.228729,1.37121 2.685291,1.37121 0.222923,0 0.405328,0.10896 0.405328,0.24202 0,0.25221 0.56774,0.45935 1.401136,0.51122 0.346948,0.0219 0.02281,-0.46592 -1.127029,-1.69511 z m -5.868828,-10.81454 c -0.420221,-0.26856 -0.793133,-0.75854 -0.830219,-1.09094 -0.03701,-0.33187 -0.140066,-0.95598 -0.228947,-1.38693 -0.155317,-0.75309 -0.145342,-0.74807 0.256646,0.12876 0.230034,0.50172 0.629457,1.14816 0.887611,1.43647 0.388663,0.43409 0.933107,1.48555 0.734892,1.41927 -0.03139,-0.0108 -0.400383,-0.23849 -0.819983,-0.50661 z m -4.134217,-5.13203 c 0.17955,-0.0725 0.47339,-0.0725 0.65294,0 0.179569,0.0725 0.03267,0.13181 -0.326464,0.13181 -0.359117,0 -0.506034,-0.0594 -0.326476,-0.13181 z m 4.50534,16.88285 c 0,-0.53853 -1.153959,-1.27812 -1.482141,-0.94994 -0.189319,0.18941 0.914953,1.47789 1.266491,1.47789 0.118616,0 0.215661,-0.23759 0.215661,-0.52795 z m -36.362015,-7.97515 c 0.941507,-0.65948 0.678367,-0.89935 -0.986611,-0.89935 -1.753526,0 -2.026243,0.34801 -0.718239,0.91653 1.070607,0.46532 1.01513,0.46588 1.70485,-0.0181 z m 16.333679,-1.77178 0.928912,-1.13363 -0.535815,-0.89051 c -0.294708,-0.48978 -0.582489,-0.94092 -0.639493,-1.00255 -0.05705,-0.0616 -0.429028,0.12853 -0.826704,0.42252 -1.078643,0.79748 -2.839613,1.64875 -3.025699,1.46264 -0.08983,-0.09 -0.427585,-0.0262 -0.750584,0.14114 -0.32299,0.16769 -1.050754,0.46127 -1.617262,0.65275 -0.566516,0.1914 -1.072195,0.47473 -1.123751,0.62938 -0.135657,0.40697 3.978652,0.24332 4.486867,-0.17854 0.333068,-0.27643 0.497486,-0.21929 0.99191,0.34468 0.325965,0.37182 0.725426,0.67818 0.887693,0.68076 0.162257,0.002 0.713015,-0.5054 1.223926,-1.12888 z m -12.014238,0.0343 c 0.313771,-0.17366 1.275662,-0.34621 2.13755,-0.38342 1.582228,-0.0683 4.000372,-0.65 4.962422,-1.19374 0.287284,-0.16237 1.022992,-0.5394 1.634909,-0.83783 2.163966,-1.05535 7.382529,-6.14468 8.849725,-8.63054 0.508712,-0.8619 1.136398,-1.80214 1.394899,-2.08943 0.654421,-0.72736 1.859988,-3.11537 1.866364,-3.69691 0.0031,-0.26508 -0.111894,-0.93675 -0.255077,-1.4926 -0.21855,-0.84838 -0.171563,-1.18384 0.292729,-2.08944 0.304191,-0.59334 0.618189,-1.13755 0.697763,-1.20938 0.4987,-0.45004 1.058837,-1.93083 1.058837,-2.7991 0,-1.4047 -1.052847,-2.42891 -2.49797,-2.43004 -1.900629,-0.002 -2.464428,0.0597 -2.464428,0.26751 0,0.11369 -0.31468,0.56531 -0.699307,1.00363 -0.596977,0.68033 -0.741407,0.73933 -0.98717,0.40321 -0.228782,-0.31286 -0.437304,-0.33691 -1.015376,-0.11714 -1.183083,0.44981 -1.39189,0.33815 -1.748305,-0.93478 l -0.339162,-1.2114 0.891216,-0.72735 c 1.08705,-0.88723 1.261835,-0.80539 0.495006,0.23179 -0.771273,1.04321 -0.486546,1.43435 0.883398,1.21349 1.354911,-0.21844 1.959579,-0.73728 1.594557,-1.36824 -0.335318,-0.57964 -0.09111,-2.46784 0.337491,-2.60892 0.179551,-0.0591 0.326465,0.0643 0.326465,0.27408 0,0.20986 0.176316,0.52787 0.391764,0.7067 0.215485,0.17883 0.391774,0.54581 0.391774,0.81551 0,0.39557 0.196173,0.49038 1.014686,0.49038 1.192318,0 1.745905,-0.64163 2.017167,-2.33801 0.09397,-0.58788 0.273012,-1.13199 0.397788,-1.20911 0.124778,-0.0771 0.22687,-0.44334 0.22687,-0.81381 0,-0.67251 -0.0031,-0.67332 -1.691157,-0.50034 -0.930146,0.0952 -1.993772,0.0973 -2.363632,0.005 -0.623415,-0.15647 -0.638172,-0.19264 -0.202392,-0.4956 0.258548,-0.17973 0.881439,-0.41521 1.384207,-0.52325 0.502779,-0.10803 1.207967,-0.39585 1.567077,-0.63959 0.359117,-0.24375 1.190433,-0.64227 1.847371,-0.88562 1.790156,-0.66314 3.178316,-2.78282 2.52421,-3.8544 -0.270601,-0.4433 -0.248799,-0.58494 0.133759,-0.86898 0.47203,-0.35047 0.622251,-1.32418 0.240684,-1.55999 -0.325329,-0.20106 -3.38116,1.09737 -4.969605,2.11162 -0.989672,0.63192 -1.638576,0.86988 -2.218209,0.81344 -0.765485,-0.0745 -0.831128,-0.163 -0.999112,-1.34652 -0.247826,-1.74624 -0.376538,-1.998 -1.021394,-1.998 -0.441398,0 -0.530427,-0.11699 -0.417548,-0.54865 0.07888,-0.30175 0.0098,-0.84192 -0.153457,-1.20037 -0.244482,-0.53659 -0.221965,-0.69367 0.127471,-0.88922 0.382422,-0.21402 0.385816,-0.31483 0.03435,-1.01946 -0.214548,-0.43007 -0.671154,-0.85249 -1.014656,-0.9387 -0.343504,-0.0862 -0.695446,-0.38013 -0.782106,-0.65315 -0.192856,-0.60763 -1.094326,-0.64886 -1.896847,-0.0868 -0.711211,0.49815 -0.579814,0.77799 0.463173,0.98659 0.433923,0.0868 0.788975,0.29196 0.788975,0.45595 0,0.18105 -0.269506,0.24663 -0.686134,0.16699 -0.377381,-0.0722 -1.430042,0.0245 -2.33927,0.2147 -0.909221,0.19024 -2.949816,0.46695 -4.53466,0.61492 -2.739224,0.25576 -4.454184,0.77265 -4.454184,1.34251 0,0.14312 0.351272,1.03493 0.780606,1.98181 0.429335,0.94689 0.716888,1.82473 0.638982,1.95078 -0.07789,0.12602 -0.561055,0.0539 -1.073697,-0.16027 -1.219003,-0.50933 -3.047112,-0.49544 -4.157776,0.0316 -0.487988,0.23157 -1.534158,1.11975 -2.3248,1.97373 -1.572404,1.6984 -1.995927,1.60538 -0.523378,-0.11495 1.070417,-1.25056 1.154539,-1.75746 0.291628,-1.75746 -0.40284,0 -0.670677,-0.18432 -0.759087,-0.52236 -0.07512,-0.2873 -0.267363,-0.52236 -0.4272,-0.52236 -0.319309,0 -0.115201,1.2226 0.290403,1.7397 0.147294,0.18777 0.128808,0.37061 -0.04856,0.48021 -0.507141,0.31344 -1.044883,-0.0949 -1.044883,-0.7934 0,-0.55691 -0.105894,-0.66315 -0.58765,-0.58964 -0.323226,0.0494 -0.559448,0.23027 -0.524967,0.40214 0.03446,0.17187 -0.171184,0.43764 -0.457053,0.59064 -0.285884,0.15298 -0.519774,0.50216 -0.519774,0.77592 0,0.87354 -0.426936,0.80156 -1.071613,-0.18067 -0.835915,-1.27357 -1.181768,-1.32737 -1.390212,-0.21625 -0.270158,1.44007 0.431488,4.26485 1.173199,4.72325 0.157504,0.0973 0.619852,-0.14252 1.027459,-0.53302 0.674064,-0.64579 1.53818,-0.71774 1.153978,-0.096 -0.08826,0.14277 0.03592,0.4766 0.275991,0.74183 0.408873,0.4518 0.406329,0.4918 -0.04037,0.63357 -0.740064,0.23489 -1.190938,1.11942 -0.873219,1.71308 0.377856,0.70606 0.342123,0.7947 -0.320504,0.7947 -0.3611,1e-5 -0.875426,0.36066 -1.3341,0.93551 -0.880178,1.10313 -3.563009,6.68281 -3.563009,7.41028 0,0.27691 -0.117513,0.57611 -0.261175,0.66489 -0.143644,0.0887 -0.261177,0.37515 -0.261177,0.63637 0,0.26124 -0.185632,0.62904 -0.412523,0.81734 -0.34225,0.28404 -0.397863,0.85671 -0.326474,3.362 0.07769,2.7251 0.159112,3.15979 0.835064,4.45615 0.411961,0.79008 0.970226,1.64674 1.240599,1.90374 0.524821,0.49882 0.662834,0.84472 0.230408,0.57747 -0.408682,-0.25256 -0.309603,0.12113 0.288757,1.08935 0.302467,0.48939 1.494254,1.70717 2.64841,2.70617 2.001279,1.73222 2.808762,2.75204 2.808762,3.54736 0,0.19903 -0.117514,0.36192 -0.261165,0.36192 -0.403147,0 -0.308932,1.12149 0.149138,1.77549 0.372426,0.53172 0.559446,0.57209 2.024147,0.4369 1.041334,-0.096 2.077035,-0.0181 2.919693,0.22341 1.706775,0.48664 1.888279,0.49521 2.563656,0.12125 z m 6.359543,-11.98008 c -0.541452,-0.63238 -0.544566,-0.76312 -0.01811,-0.76312 0.229203,0 0.728713,-0.21992 1.110004,-0.48873 0.910028,-0.64154 2.91984,-1.6007 3.354122,-1.6007 0.481557,0 0.427477,0.43395 -0.07828,0.62801 -0.289901,0.11126 -0.38743,0.39019 -0.313197,0.89591 0.09319,0.6351 0.03157,0.71981 -0.45584,0.62663 -0.309978,-0.0592 -1.148656,0.18874 -1.863716,0.55107 -1.282583,0.64995 -1.305968,0.65198 -1.734988,0.15102 z m -2.155253,-1.15287 c -0.243287,-0.3713 -0.350815,-0.84813 -0.250334,-1.11001 0.200994,-0.5238 0.119356,-0.75609 -0.225385,-0.64117 -0.229509,0.0765 -0.664723,-0.42341 -0.672878,-0.77288 -0.002,-0.0943 0.231059,-0.10998 0.518354,-0.0349 0.41434,0.10835 0.52153,0.009 0.518352,-0.48151 -0.002,-0.33997 -0.107846,-0.78216 -0.234807,-0.98266 -0.293663,-0.46376 -1.067083,-0.18231 -1.067083,0.38832 0,0.32197 -0.0854,0.36112 -0.335229,0.15373 -0.212518,-0.17639 -0.475445,-0.18954 -0.71825,-0.036 -0.514969,0.3257 -2.341868,0.31716 -2.341868,-0.0109 0,-0.14364 0.576771,-0.26117 1.281717,-0.26117 1.206314,0 1.350298,-0.0763 2.448731,-1.29805 0.641896,-0.71393 1.426774,-1.85054 1.744187,-2.52581 0.322853,-0.68683 0.654875,-1.10195 0.753629,-0.94218 0.351388,0.56856 2.544337,1.21127 4.181776,1.22559 l 1.660515,0.0146 -1.36466,0.61883 c -1.076223,0.48802 -1.408978,0.54712 -1.574301,0.27961 -0.115309,-0.18657 -0.832582,-0.49862 -1.593927,-0.69347 l -1.384297,-0.35426 -0.859261,0.98878 c -0.688001,0.7917 -0.83094,1.14493 -0.717124,1.77231 0.07817,0.43094 0.2632,1.54749 0.411152,2.4812 0.147962,0.93372 0.440478,1.96211 0.650027,2.28532 0.335575,0.51758 0.334302,0.58765 -0.01066,0.58765 -0.215466,0 -0.583703,-0.29292 -0.818286,-0.65093 z m 4.201558,-4.86379 c -0.43094,-0.13544 -1.106733,-0.26076 -1.501764,-0.27849 -0.395034,-0.0177 -0.718249,-0.1788 -0.718249,-0.35794 0,-0.38121 2.318849,-0.64103 2.539187,-0.28451 0.07879,0.12747 0.717821,0.1637 1.420118,0.0806 l 1.276875,-0.15124 -0.762231,0.64139 c -0.821634,0.69135 -1.053755,0.72742 -2.253936,0.35025 z m 4.260503,-3.02142 c 0.188535,-0.0754 0.413806,-0.0661 0.500583,0.0207 0.08677,0.0868 -0.06753,0.14851 -0.342792,0.13716 -0.304254,-0.0125 -0.366159,-0.0744 -0.157793,-0.15777 z m 1.373715,-1.84573 c 0.0103,-0.10773 0.45112,-0.54848 0.979423,-0.97942 l 0.960569,-0.78354 -0.783536,0.96057 c -0.746431,0.91507 -1.197424,1.22799 -1.156456,0.80239 z m -7.27797,-3.83513 c -0.767231,-0.27843 -2.665698,-2.45627 -2.665698,-3.05795 0,-0.11351 0.499509,0.1202 1.110011,0.51936 0.610516,0.39915 1.733379,0.87778 2.495277,1.06361 1.58526,0.38669 1.940076,0.20163 3.093361,-1.6134 1.146973,-1.80508 1.687704,-3.50157 1.351351,-4.2398 -0.164154,-0.36027 -0.460935,-0.65505 -0.659508,-0.65505 -0.198573,0 -0.926455,-0.52888 -1.617535,-1.1753 -0.691074,-0.64641 -1.40561,-1.17531 -1.587853,-1.17531 -0.267119,0 -0.267375,-0.0771 -0.0011,-0.39767 0.399974,-0.48194 1.251319,-0.28723 1.871405,0.428 0.403571,0.4655 0.459957,0.4713 0.684264,0.0705 0.20942,-0.37425 0.369958,-0.39305 1.120888,-0.13127 0.793491,0.27662 0.918618,0.24962 1.322012,-0.28517 0.245063,-0.32489 0.489182,-0.5337 0.542487,-0.46402 0.05331,0.0697 0.293732,0.44169 0.534296,0.82669 0.42969,0.68771 0.422554,0.71243 -0.405524,1.40608 -0.823843,0.69008 -1.09476,1.37682 -1.41016,3.57456 -0.09091,0.63329 -0.03701,0.97943 0.152462,0.97943 0.484576,0 -0.958312,2.54841 -2.075322,3.66542 -0.860759,0.86076 -1.201312,1.03053 -2.015226,1.00464 -0.538678,-0.0172 -1.366526,-0.17164 -1.839649,-0.34335 z m 3.329205,-11.39078 c -0.304508,-0.30451 -0.925832,-0.71555 -1.380723,-0.91344 l -0.827068,-0.35978 1.044711,0.004 c 0.836409,0.003 1.162816,0.15392 1.637052,0.75498 0.709733,0.89954 0.326801,1.31479 -0.473972,0.514 z m 43.324486,36.14004 c -0.243002,-0.50927 -0.58313,-0.7645 -1.097377,-0.82347 -0.719544,-0.0825 -0.731358,-0.0657 -0.342736,0.4892 0.375233,0.53572 1.502874,1.29002 1.703213,1.13927 0.04897,-0.0369 -0.06939,-0.39908 -0.2631,-0.805 z m -24.876039,-0.27972 c -0.285321,-0.28532 -0.480958,0.16847 -0.276109,0.64035 0.194229,0.44752 0.208306,0.4471 0.316533,-0.009 0.06229,-0.26263 0.04413,-0.54664 -0.04048,-0.63119 z m 19.268033,-3.33135 c -0.08273,-0.2154 -0.196543,-0.39177 -0.252994,-0.39177 -0.05645,0 -0.102641,0.17633 -0.102641,0.39177 0,0.2154 0.113827,0.39176 0.25298,0.39176 0.139145,0 0.185326,-0.17634 0.10266,-0.39176 z m -0.501001,-0.66972 c 0.287038,-0.28072 -1.115639,-1.87006 -1.461679,-1.65619 -0.12167,0.0753 -0.221218,0.61263 -0.221218,1.19431 0,1.02266 0.02378,1.05177 0.71825,0.88024 0.395034,-0.0976 0.829122,-0.28583 0.964647,-0.41836 z m -25.241278,-12.71614 c 0.467292,-1.35911 0.491713,-1.68987 0.134211,-1.81637 -0.536054,-0.18967 -1.14771,1.05815 -0.965447,1.96949 0.216076,1.08039 0.420065,1.04281 0.831235,-0.15311 z m -37.99348,-4.70652 c 0.239766,-0.61341 0.435948,-1.34798 0.435948,-1.63236 0,-0.2844 0.117514,-0.51707 0.261176,-0.51707 0.143644,0 0.261177,-0.22607 0.261177,-0.50236 0,-0.2763 0.411358,-1.04127 0.914125,-1.69993 0.698365,-0.91491 0.914133,-1.44814 0.914133,-2.25917 0,-0.86781 -0.08293,-1.04565 -0.454069,-0.97417 -0.249737,0.0481 -0.492779,0.32115 -0.540102,0.6068 -0.134067,0.80928 -0.78164,2.10955 -1.240126,2.49005 -0.717972,0.59586 -1.510985,2.43126 -1.461885,3.38349 0.02597,0.50276 -0.0687,1.31284 -0.210206,1.80015 -0.141547,0.4873 -0.189713,0.99544 -0.107069,1.12919 0.191721,0.31022 0.671084,-0.40265 1.226889,-1.82462 z m 0.693127,0.13587 c -0.0031,-0.4752 -0.05242,-0.51269 -0.257179,-0.19589 -0.327243,0.50638 -0.327243,0.78354 0,0.78354 0.143644,0 0.259378,-0.26444 0.257179,-0.58765 z m 0.388102,-6.18818 c 0.218628,-0.42279 0.29373,-0.83286 0.166883,-0.91126 -0.251689,-0.15555 -0.57523,0.18171 -1.047881,1.09232 -0.251531,0.4846 -0.235886,0.58766 0.08923,0.58766 0.216839,0 0.573131,-0.34592 0.79177,-0.76872 z m 4.055935,-12.29024 c 0,-0.43095 -0.11755,-0.78354 -0.261177,-0.78354 -0.143644,0 -0.270968,0.0881 -0.282942,0.19589 -0.01193,0.10773 -0.05114,0.46033 -0.08697,0.78354 -0.0386,0.34809 0.07669,0.58765 0.28294,0.58765 0.21267,0 0.348122,-0.30484 0.348122,-0.78354 z m 11.947647,0.13059 c 0.09014,-0.36766 -0.459523,-1.96112 -0.671893,-1.94797 -0.369108,0.0229 -2.178182,1.79655 -2.047712,2.00767 0.192746,0.31186 2.641738,0.2581 2.719605,-0.0597 z m -5.156987,-2.01877 c 0,-0.15287 -0.165961,-0.12747 -0.391774,0.0599 -0.215464,0.17882 -0.391764,0.36583 -0.391764,0.41555 0,0.0498 0.176316,0.0228 0.391764,-0.0599 0.215487,-0.0827 0.391774,-0.26969 0.391774,-0.41556 z m 9.663628,-1.97726 c 0,-0.11493 -0.140264,-0.34921 -0.311686,-0.52064 -0.241475,-0.24147 -0.153204,-0.47712 0.39177,-1.04595 0.813358,-0.84897 0.895439,-1.15247 0.246389,-0.911 -0.96421,0.35873 -3.199438,2.08496 -3.199438,2.47087 0,0.11862 0.646415,0.21564 1.436485,0.21564 0.790065,0 1.43648,-0.094 1.43648,-0.20894 z m 2.094676,-0.7115 c 0.181704,-0.21895 0.284248,-0.43631 0.22786,-0.48304 -0.208131,-0.1725 -1.800175,0.38238 -1.800175,0.62741 0,0.40442 1.208984,0.2934 1.572315,-0.14437 z m 5.087758,-2.59101 c 0.80489,-0.68411 0.974341,-0.95998 0.738141,-1.20178 -0.237357,-0.243 -0.601736,-0.0649 -1.61424,0.78881 -0.719235,0.60647 -1.367647,1.2589 -1.440909,1.44984 -0.220755,0.57524 1.13309,-0.0306 2.317008,-1.03687 z m -15.409584,-0.66745 c 0.260003,-0.28729 0.608825,-0.52236 0.775156,-0.52236 0.319942,0 1.706053,-1.33786 1.706053,-1.64666 0,-0.44088 -0.541936,-0.0833 -1.901614,1.2549 -0.802786,0.79006 -1.36797,1.43648 -1.255959,1.43648 0.112002,0 0.416363,-0.23506 0.676364,-0.52236 z m 13.446808,-0.28358 c 0.720399,-0.44327 1.309828,-0.91339 1.309828,-1.04472 0,-0.13133 0.293821,-0.23877 0.652948,-0.23877 0.63843,0 0.652941,-0.0435 0.652941,-1.95885 0,-1.07736 -0.09733,-1.95884 -0.216402,-1.95884 -0.320267,0 -2.656565,1.58551 -2.656565,1.80287 0,0.10262 -0.681319,0.62747 -1.514047,1.16637 -0.832715,0.5389 -1.658116,1.21052 -1.834201,1.49248 -0.311927,0.49946 -0.295273,0.50227 0.64594,0.109 0.531365,-0.22201 1.605318,-0.92989 2.386575,-1.57306 1.214203,-0.9996 2.405159,-1.50944 2.405159,-1.02963 0,0.40772 -0.956769,1.50347 -1.605858,1.83913 -0.437352,0.22616 -0.744753,0.59796 -0.744753,0.90077 0,0.28361 -0.08815,0.50174 -0.195888,0.48473 -0.493071,-0.0778 -0.804788,0.0618 -0.943275,0.4227 -0.225184,0.58681 0.205796,0.47911 1.657598,-0.41418 z m -7.612165,-0.17839 c 1.675748,-1.21391 2.727084,-2.16349 2.569627,-2.32093 -0.303452,-0.30346 -3.833622,2.33636 -3.833622,2.86675 0,0.30224 0.230948,0.2025 1.263995,-0.54582 z m 18.585618,0.2008 c 0,-0.59202 -0.270837,-0.6694 -0.731298,-0.20894 -0.460457,0.46045 -0.383075,0.7313 0.208938,0.7313 0.348242,0 0.522362,-0.17413 0.522362,-0.52236 z m 0.91227,-0.78055 c 0.09151,-0.14805 -0.01337,-0.19183 -0.245745,-0.10266 -0.452472,0.17363 -0.535265,0.36084 -0.159564,0.36084 0.135168,0 0.317561,-0.11619 0.405316,-0.25819 z m -7.702933,-1.98954 c 0,-0.66871 0.246152,-1.25251 0.848838,-2.01315 1.035918,-1.30743 1.554984,-2.2686 1.225111,-2.2686 -0.135133,0 -0.43569,0.22135 -0.667934,0.49189 -0.232232,0.27054 -0.819883,0.92087 -1.305887,1.44519 -0.729916,0.78745 -0.883664,1.15627 -0.883664,2.11991 0,0.86285 0.102009,1.1666 0.391764,1.1666 0.275827,0 0.391772,-0.27877 0.391772,-0.94184 z m -5.408526,-1.48193 c 0.444922,0.19853 0.821642,0.065 1.904963,-0.6753 1.317795,-0.90052 1.34703,-0.94828 1.212517,-1.98033 -0.07581,-0.58166 -0.259596,-1.13675 -0.408399,-1.23354 -0.182489,-0.11872 -0.169919,-0.29718 0.0386,-0.54843 0.241572,-0.29106 0.195104,-0.70386 -0.21267,-1.88905 -0.679359,-1.97457 -0.682631,-2.32324 -0.01811,-1.90817 0.277069,0.17304 0.627145,0.58539 0.777939,0.91634 0.375671,0.82454 0.733619,0.75815 1.792873,-0.33252 0.616986,-0.63529 0.822045,-1.01953 0.640816,-1.20076 -0.336216,-0.33622 -5.00073,-0.32249 -5.835184,0.0172 -0.342428,0.13938 -0.934057,0.31961 -1.314734,0.40051 -0.475653,0.10109 -0.781031,0.40207 -0.976306,0.96221 -0.156276,0.44831 -0.222805,0.91436 -0.147836,1.03566 0.07503,0.12129 -0.0103,0.45505 -0.189123,0.74166 -0.511563,0.81916 -0.05035,0.94702 1.18702,0.32906 0.62524,-0.31225 1.329601,-0.56773 1.565237,-0.56773 0.564465,0 0.549468,0.76805 -0.02318,1.18677 -0.418978,0.30637 -0.404823,0.36916 0.195888,0.86893 0.35613,0.29629 0.794416,0.54262 0.973977,0.5474 0.650057,0.0172 0.305173,1.00513 -0.62973,1.80371 -0.525917,0.44922 -1.093085,0.81677 -1.260363,0.81677 -0.167299,0 -0.582341,0.29611 -0.922341,0.65802 l -0.618174,0.65802 0.855817,-0.42694 c 0.61293,-0.30578 1.013215,-0.35671 1.410425,-0.17946 z m 5.907297,-3.45521 c 0.204704,-0.42919 0.54158,-0.90564 0.748643,-1.05878 0.207061,-0.15313 0.334302,-0.48617 0.282762,-0.74005 -0.07749,-0.38191 -0.285339,-0.28439 -1.203689,0.56479 -0.666328,0.61614 -1.110023,1.2589 -1.110023,1.60804 0,0.83778 0.818217,0.59914 1.282307,-0.374 z m 6.6635,0.16642 c 0.169214,-0.2738 -1.035683,-1.95864 -2.145003,-2.99943 -0.868746,-0.81508 -1.360754,-0.7386 -1.360754,0.21151 0,0.43202 0.18993,0.65689 0.65294,0.7731 0.476994,0.11972 0.652959,0.33851 0.652959,0.81185 0,0.37974 0.150601,0.64798 0.363828,0.64798 0.2001,0 0.431477,0.17629 0.514147,0.39177 0.162184,0.42265 1.090683,0.5373 1.321883,0.16321 z m -20.341079,-1.31396 c 0.293197,-0.12724 0.6918,-0.42257 0.885764,-0.6563 0.308488,-0.37168 0.29076,-0.40151 -0.141313,-0.23799 -0.988367,0.37406 -2.148774,1.16475 -2.304355,1.57014 -0.142415,0.3712 -0.09655,0.36964 0.433759,-0.0146 0.32618,-0.23642 0.832932,-0.53395 1.126143,-0.66119 z m 0.791464,110.30497 c -0.09605,-0.38274 -0.115906,-0.75467 -0.04402,-0.8265 0.07187,-0.0717 0.209201,0.18266 0.30525,0.56534 0.09605,0.38276 0.115906,0.75469 0.04402,0.8265 -0.07187,0.0717 -0.2092,-0.18266 -0.305262,-0.56534 z m 4.958661,-0.65419 c -0.566409,-0.71768 -1.195647,-1.27124 -1.398336,-1.23015 -0.202676,0.041 -0.623258,0.53054 -0.934609,1.0876 -0.526055,0.94122 -1.122254,1.2265 -1.042698,0.49895 0.06643,-0.6078 1.422508,-2.67975 1.932432,-2.95265 0.428929,-0.22957 0.51417,-0.19161 0.51417,0.22919 0,0.2774 0.5195,0.95733 1.154433,1.51096 0.634944,0.55363 1.230521,1.27103 1.323489,1.59425 0.29075,1.01064 -0.44574,0.65965 -1.548881,-0.73815 z m 2.192926,-0.33858 c -0.630887,-1.42622 -0.497811,-2.13423 0.445682,-2.37103 0.546248,-0.13698 0.97216,0.0631 2.219739,1.04322 0.870415,0.68385 1.707098,1.15018 1.918207,1.06919 0.205948,-0.079 0.541918,-0.53078 0.746588,-1.0039 0.486963,-1.12557 1.124493,-1.94833 1.341548,-1.73128 0.09507,0.095 -0.04225,0.49797 -0.305126,0.89536 -0.262865,0.39741 -0.598952,1.14126 -0.746883,1.65298 -0.147944,0.51171 -0.461062,0.9674 -0.695822,1.01259 -0.234781,0.0452 -1.131076,-0.45337 -1.991786,-1.10793 -0.860725,-0.65457 -1.738593,-1.19013 -1.950806,-1.19013 -0.517664,0 -0.718346,0.88139 -0.429777,1.88757 0.368318,1.28428 0.04521,1.19252 -0.551564,-0.15667 z m 36.234464,-1.63845 c -0.340602,-0.34061 -0.177997,-0.61483 0.364568,-0.61483 0.303938,0 0.498482,0.13679 0.440735,0.31013 -0.127217,0.38167 -0.563326,0.54669 -0.805303,0.3047 z M -36.944836,212.833 c -0.475689,-0.78601 -0.972179,-1.42907 -1.103313,-1.42907 -0.13112,0 -0.420723,0.35258 -0.64358,0.78353 -0.342199,0.66173 -0.914134,1.07464 -0.914134,0.65992 0,-0.11601 1.075749,-2.48497 1.241411,-2.73361 0.04205,-0.0631 0.261266,0.14909 0.487089,0.47136 0.225817,0.3224 0.693501,0.90297 1.039296,1.29014 0.571924,0.64037 0.659099,0.66493 0.965081,0.27194 0.275606,-0.354 0.546712,-0.39143 1.501193,-0.20732 1.92806,0.37202 11.152291,0.3076 11.309162,-0.079 0.176244,-0.4344 0.685004,0.26309 0.690602,0.94676 0.004,0.42215 -0.113158,0.46053 -0.84484,0.27814 -0.466855,-0.11637 -3.46388,-0.22912 -6.660061,-0.25057 l -5.811247,-0.039 v 0.74027 c 0,0.40717 -0.08815,0.73696 -0.195888,0.73289 -0.10772,-0.004 -0.585073,-0.65051 -1.060773,-1.43651 z m 21.783682,1.21709 c -0.702168,-0.15251 -0.724999,-0.19314 -0.30457,-0.54159 0.477574,-0.39575 1.189141,-0.16101 1.39635,0.46056 0.109942,0.32985 0.06753,0.33301 -1.09178,0.081 z m 6.6362029,-0.32887 c -2.548e-4,-0.0902 0.1757012,-0.31023 0.3911814,-0.48904 0.3125595,-0.25941 0.4709816,-0.25941 0.7835393,0 0.596683,0.49519 0.4724326,0.71142 -0.3911814,0.68076 -0.4306063,-0.0145 -0.7831996,-0.10156 -0.7835393,-0.19161 z m -2.9716659,-0.92299 c -0.245647,-0.51514 -0.385603,-0.99767 -0.311009,-1.07226 0.07463,-0.0746 0.209749,0.0575 0.300328,0.2935 0.09061,0.23606 0.387164,0.42916 0.659088,0.42916 0.575195,0 0.610842,0.21672 0.138042,0.83902 -0.307324,0.4045 -0.382446,0.35777 -0.786441,-0.48942 z m 6.5051362,-1.15018 c -0.086667,-0.22486 -0.052423,-0.69303 0.076096,-1.04042 l 0.2336467,-0.63163 0.1834698,0.57812 c 0.2266172,0.71397 -0.240378,1.7498 -0.4931904,1.09393 z m -87.7531832,-1.79316 c -0.178411,-0.28866 0.233595,-0.60038 0.474764,-0.35917 0.248333,0.24829 0.202065,0.6023 -0.07879,0.6023 -0.135169,0 -0.313396,-0.10933 -0.396039,-0.24313 z m -2.361767,-0.94161 c -1.054722,-0.48295 -0.423972,-0.48368 0.68826,-7.9e-4 0.483349,0.20994 0.702503,0.37661 0.487041,0.37057 -0.215464,-0.007 -0.744368,-0.17239 -1.175301,-0.36978 z m 3.913582,-0.12794 c -0.24248,-0.39235 0.06968,-0.72053 0.855934,-0.89974 0.393373,-0.0896 0.89154,-0.3044 1.107011,-0.47717 0.655952,-0.52593 1.828251,-2.21355 1.828251,-2.63189 0,-0.21648 0.11755,-0.4664 0.261186,-0.55518 0.326653,-0.20187 0.343166,0.93098 0.02546,1.74595 -0.129657,0.33254 -0.570385,0.96646 -0.979424,1.40865 -0.830328,0.89764 -2.847585,1.81523 -3.098415,1.40938 z m -9.532041,-3.52302 c -0.18053,-0.21759 -0.35282,-0.80033 -0.38286,-1.29514 -0.03,-0.49483 -0.21994,-1.09819 -0.42199,-1.34081 -0.5705,-0.68504 -1.01089,-3.99013 -1.17955,-8.8522 -0.13302,-3.83421 -0.0922,-4.60041 0.29892,-5.61533 0.24911,-0.64644 0.45399,-1.49853 0.45529,-1.89357 9.9e-4,-0.39503 0.10301,-0.71824 0.22606,-0.71824 0.12302,0 0.22369,-0.178 0.22369,-0.39588 0,-0.64282 0.63207,-2.47709 0.8536,-2.47709 0.11223,0 0.31839,-0.26443 0.45814,-0.58764 0.13975,-0.32323 0.360534,-0.76396 0.490629,-0.97943 0.130108,-0.2154 0.387343,-0.92067 0.571631,-1.56707 0.516399,-1.81132 2.023091,-4.78781 2.98981,-5.90648 0.479242,-0.55455 1.00515,-1.53862 1.168658,-2.18682 0.355832,-1.41047 0.590483,-1.89874 0.973954,-2.02657 0.194077,-0.0645 0.173587,0.28026 -0.06337,1.06769 -0.454564,1.51042 -0.954833,2.45967 -2.411854,4.5765 -0.656179,0.95331 -1.477917,2.42879 -1.8261,3.27886 -0.554283,1.35318 -0.583188,1.57347 -0.23226,1.76986 0.220446,0.12324 0.339887,0.38311 0.265389,0.57723 -0.08755,0.22818 0.124019,0.40623 0.598501,0.50376 2.626339,0.53978 3.481315,0.66717 4.570912,0.68101 0.673859,0.009 1.284608,0.11167 1.357213,0.22919 0.174508,0.28235 -4.280785,0.0522 -4.861707,-0.2512 -0.477523,-0.24938 -1.481548,0.1997 -1.538585,0.68806 -0.01699,0.14492 -0.06318,0.61622 -0.102786,1.04717 -0.03959,0.43097 -0.252035,1.39239 -0.472067,2.1365 -0.275647,0.93221 -0.402315,2.51602 -0.407332,5.09299 -0.004,2.05704 -0.198638,5.56177 -0.432559,7.78832 -0.393513,3.74588 -0.386415,4.91186 0.03939,6.46418 0.128067,0.46686 0.0541,0.58766 -0.359665,0.58766 -0.286452,0 -0.668542,-0.17781 -0.849072,-0.39551 z m 12.850399,-2.37405 c 0.06939,-0.33543 0.292133,-0.47449 0.690364,-0.43103 1.005801,0.10969 1.871911,-0.65889 1.871911,-1.66125 0,-1.11648 0.403482,-1.15202 0.62291,-0.0548 0.196566,0.98284 -0.503378,1.90152 -1.620625,2.12704 -0.384972,0.0777 -0.917543,0.22541 -1.183496,0.32827 -0.381291,0.14746 -0.461879,0.0822 -0.381064,-0.30819 z m 64.656084,-1.56321 c -0.08063,-0.0806 -0.04194,-0.51134 0.08587,-0.95715 0.12785,-0.44578 0.213675,-1.49168 0.190738,-2.32421 -0.0302,-1.09512 0.07946,-1.64761 0.396611,-1.99804 0.241088,-0.2664 0.438335,-0.61701 0.438335,-0.77914 0,-0.16209 0.400889,-0.61463 0.890852,-1.00559 1.406703,-1.12245 2.765664,-0.98655 2.765664,0.27653 0,0.72543 0.470121,1.19556 1.195556,1.19556 0.879644,0 1.218912,0.57615 0.74104,1.25839 -0.219529,0.31343 -0.558994,0.56986 -0.754338,0.56986 -0.195343,0 -0.394369,0.10408 -0.442255,0.23134 -0.243121,0.64602 -5.209472,3.83105 -5.50807,3.53245 z m 2.650078,-2.59101 c 0.63073,-0.50137 1.042089,-0.91338 0.914136,-0.91558 -0.127959,-0.002 -0.390817,-0.10427 -0.584117,-0.22677 -0.280683,-0.17782 -0.21492,-0.4391 0.326476,-1.2967 0.713915,-1.13092 0.864194,-1.98311 0.400302,-2.26981 -0.732777,-0.4529 -2.44146,2.24034 -2.699091,4.25431 -0.213981,1.67288 0.02606,1.73931 1.642294,0.45455 z m -66.506839,-1.47081 c -0.533626,-0.53729 -0.377788,-0.92328 0.522342,-1.29377 0.990737,-0.40776 1.644012,-1.08409 2.164003,-2.24036 0.323357,-0.719 0.322746,-0.94821 -0.0051,-1.7317 -0.624256,-1.49406 -2.903648,-3.05496 -4.461176,-3.05496 -1.312414,0 -0.784701,-0.45988 0.890406,-0.77595 1.950476,-0.36803 2.400727,-0.6103 2.909903,-1.56581 0.32514,-0.61012 0.268883,-0.71084 -1.067348,-1.91106 -0.77582,-0.69683 -1.736231,-1.33306 -2.134254,-1.41378 -0.398032,-0.0808 -0.786944,-0.24916 -0.864256,-0.37424 -0.07731,-0.12505 -0.456836,-0.22927 -0.843396,-0.23145 -0.386554,-0.002 -0.879123,-0.11782 -1.094594,-0.25718 -0.318501,-0.20581 -0.28475,-0.25393 0.180454,-0.2572 0.754053,-0.004 0.924897,-0.33283 0.608115,-1.16601 -0.408427,-1.07425 0.09843,-1.64888 1.37415,-1.558 2.306084,0.16426 3.060855,0.39251 3.060855,0.92567 0,0.85859 -0.861659,1.5546 -1.82522,1.47427 -0.473182,-0.0392 -0.903792,0.0497 -0.956907,0.19817 -0.114117,0.31873 2.627511,1.95022 3.277244,1.95022 0.246468,0 0.852925,0.30959 1.347684,0.68795 0.494772,0.37835 0.66452,0.6047 0.377224,0.50302 -0.981231,-0.34738 -1.045799,-0.29052 -0.956098,0.84204 0.08154,1.02945 5.22e-4,1.19946 -1.014882,2.12755 l -1.103497,1.00869 1.077367,0.71297 c 0.965713,0.63909 1.157217,0.6799 1.847944,0.39378 0.984546,-0.40782 1.574735,-0.10155 0.821296,0.42616 -0.297848,0.20863 -0.541542,0.51314 -0.541542,0.67668 0,0.46358 1.353933,1.76245 1.837155,1.76245 0.485364,0 1.55817,0.84135 1.55817,1.22201 0,0.13553 -1.087159,0.78535 -2.4159,1.44379 -1.82683,0.90529 -2.61699,1.16567 -3.240574,1.06786 -0.62533,-0.0981 -0.84628,-0.0246 -0.914125,0.30382 -0.07187,0.3478 -0.153817,0.36839 -0.415938,0.10463 z m 4.73686,-2.42147 c 0.509007,-0.0954 1.002247,-0.29787 1.096115,-0.44974 0.263976,-0.42712 -0.482088,-1.01111 -1.503466,-1.17685 -0.905912,-0.1471 -0.925872,-0.13102 -1.066194,0.85758 -0.07868,0.55406 -0.230672,1.24246 -0.337846,1.52975 -0.186177,0.49915 -0.170822,0.49772 0.345546,-0.0323 0.297226,-0.30513 0.95685,-0.63288 1.465845,-0.72834 z m -5.656476,-14.34002 c -0.05636,-0.16987 -0.423025,-0.42208 -0.814778,-0.56052 -0.545935,-0.19292 -0.768741,-0.16227 -0.954086,0.13047 -0.397309,0.62819 -0.284838,0.99311 0.337865,1.09624 0.742259,0.12288 1.565724,-0.2605 1.430999,-0.66632 z m 5.816717,10.26895 c 0,-0.14366 0.124453,-0.26117 0.276596,-0.26117 0.152137,0 0.20394,0.11764 0.115182,0.26117 -0.08873,0.14366 -0.213259,0.26118 -0.276593,0.26118 -0.06337,0 -0.115183,-0.11746 -0.115183,-0.26118 z m 0.974292,-0.15758 c -0.09259,-0.0925 0.06169,-0.61924 0.342803,-1.17032 0.868874,-1.70317 0.802087,-1.86206 -1.456035,-3.46437 -1.104789,-0.78391 -0.529664,-0.79849 0.836677,-0.0219 1.58047,0.89911 1.918959,1.31297 1.894971,2.31685 -0.03039,1.27148 -1.1164,2.8411 -1.618416,2.33908 z m 80.63346314,-1.9493 c -0.0946723,-0.15324 -0.10943603,-0.34128 -0.0327802,-0.41794 0.18707129,-0.18703 0.69646208,0.14258 0.69646208,0.45072 0,0.33379 -0.45089238,0.31151 -0.66368006,-0.0327 z m -79.07566714,-3.0605 c -0.604817,-0.66833 -0.59089,-1.88447 0.02161,-1.88447 0.858442,0 1.661426,0.77863 1.574804,1.52705 -0.09966,0.8611 -0.965189,1.05491 -1.596391,0.35742 z m 0.993835,-0.57857 c 0.297998,-0.48218 -0.127869,-0.80339 -0.676117,-0.50997 -0.282596,0.15125 -0.444831,0.38664 -0.360501,0.52307 0.201387,0.32587 0.832047,0.31788 1.036618,-0.0127 z m -4.664796,-1.79214 c -0.379159,-0.23004 -0.689379,-0.51527 -0.689379,-0.63378 0,-0.11854 0.261215,-0.0325 0.580476,0.19117 0.31926,0.22363 0.671844,0.40657 0.783537,0.40657 0.388841,0 0.199903,-0.75933 -0.251827,-1.01215 -0.250191,-0.13987 -0.367255,-0.34219 -0.260148,-0.44931 0.235074,-0.23507 1.498576,0.89974 1.498576,1.34592 0,0.51648 -0.92138,0.6006 -1.661235,0.15161 z m 7.198227,-0.61072 c -0.486349,-0.48635 -0.371417,-0.7759 0.27157,-0.68417 0.321749,0.0459 0.624196,0.28915 0.672103,0.54053 0.09986,0.52392 -0.475792,0.61154 -0.943673,0.14366 z m -0.574591,-1.64541 c 0,-0.35913 0.101232,-0.65296 0.224969,-0.65296 0.123712,0 0.16878,0.29383 0.100129,0.65296 -0.06861,0.3591 -0.169882,0.65293 -0.224954,0.65293 -0.05508,0 -0.100148,-0.29383 -0.100148,-0.65293 z m -17.918455,-1.54502 c -0.07797,-0.20341 -0.103707,-0.70286 -0.05705,-1.11001 0.06486,-0.56635 0.238204,-0.75866 0.737705,-0.8184 1.370636,-0.16391 1.482902,-0.31662 0.697174,-0.94806 -0.563487,-0.45286 -0.718792,-0.77419 -0.652962,-1.3511 0.08399,-0.73645 0.133958,-0.76043 1.846733,-0.88748 1.823691,-0.13535 2.026744,-0.0334 2.026744,1.01682 0,0.67963 -0.980107,1.59495 -1.707833,1.59495 -0.572604,0 -0.642779,0.11077 -0.642779,1.01469 0,0.79025 -0.142379,1.10797 -0.643763,1.43649 -0.793912,0.52018 -1.416544,0.54042 -1.603925,0.0522 z m 1.343882,-1.15363 c -0.580213,-0.11801 -1.188515,0.42834 -1.006114,0.90364 0.120966,0.31526 0.267325,0.27549 0.790871,-0.21497 0.53341,-0.49969 0.569933,-0.61655 0.215247,-0.68867 z m 1.51083,-2.76059 c 0.192267,-0.50105 -0.04214,-0.67846 -0.896296,-0.67846 -0.764488,0 -1.156181,0.34638 -0.886011,0.78352 0.243701,0.39432 1.621851,0.3131 1.782307,-0.10499 z m 1.221242,-0.30212 c 0,-0.20711 -0.117513,-0.37634 -0.261174,-0.37634 -0.143661,0 -0.261175,0.24196 -0.261175,0.53774 0,0.29578 0.117514,0.46513 0.261175,0.37638 0.143644,-0.0889 0.261174,-0.33078 0.261174,-0.53778 z m 8.908657,3.89146 c -0.252478,-0.55412 -0.248195,-0.73676 0.02116,-0.90324 0.416994,-0.25773 0.617266,-0.047 0.835639,0.87957 0.225746,0.95782 -0.423047,0.97573 -0.856823,0.0239 z m -5.765305,-1.90004 c -0.387342,-0.72375 -0.336307,-1.18377 0.205577,-1.85297 0.43891,-0.54204 0.534711,-0.55954 1.230454,-0.22483 0.968535,0.46595 1.365967,1.93553 0.62995,2.32944 -0.779344,0.41709 -1.772853,0.29607 -2.065983,-0.25164 z m 2.001403,-0.44963 c 0.20224,-0.52702 -0.81626,-1.43682 -1.370417,-1.22417 -0.384023,0.14728 -0.524397,1.163 -0.204878,1.48252 0.341912,0.3419 1.4123,0.16625 1.575295,-0.25835 z m 4.5743,-13.26211 c -0.437399,-0.96 -0.396037,-1.1611 0.09467,-0.4605 0.226213,0.32297 0.368675,0.71503 0.316604,0.87129 -0.05212,0.15625 -0.237167,-0.0286 -0.411297,-0.41079 z m -0.536536,-1.71501 c 0,-0.3591 0.05934,-0.50602 0.131717,-0.32648 0.07246,0.17961 0.07246,0.4734 0,0.65296 -0.07245,0.17961 -0.131717,0.0327 -0.131717,-0.32648 z m -0.782352,-1.97003 c -0.437607,-0.96042 -0.354115,-1.16532 0.119067,-0.29218 0.220969,0.40771 0.352881,0.79019 0.293148,0.84992 -0.05972,0.0598 -0.245224,-0.19117 -0.412206,-0.55774 z m -1.575456,-3.21863 c -1.013679,-1.94842 -1.404604,-3.40128 -0.817585,-3.03848 0.143644,0.0888 0.261186,0.36349 0.261186,0.61045 0,0.24695 0.414598,1.31413 0.921332,2.3715 0.506735,1.05738 0.874639,1.96921 0.817574,2.02628 -0.05705,0.057 -0.589193,-0.82934 -1.182507,-1.96975 z"
         id="path977-6" />
    </g>
  </g>
</svg>
