<?xml version="1.0" encoding="UTF-8" standalone="no"?>
<svg
   xmlns:dc="http://purl.org/dc/elements/1.1/"
   xmlns:cc="http://creativecommons.org/ns#"
   xmlns:rdf="http://www.w3.org/1999/02/22-rdf-syntax-ns#"
   xmlns:svg="http://www.w3.org/2000/svg"
   xmlns="http://www.w3.org/2000/svg"
   xmlns:sodipodi="http://sodipodi.sourceforge.net/DTD/sodipodi-0.dtd"
   xmlns:inkscape="http://www.inkscape.org/namespaces/inkscape"
   width="176.92337mm"
   height="31.467913mm"
   viewBox="0 0 176.92337 31.467913"
   version="1.1"
   id="svg8"
   inkscape:version="1.0.1 (3bc2e81, 2020-09-07)"
   sodipodi:docname="logo.svg">
  <defs
     id="defs2" />
  <sodipodi:namedview
     id="base"
     pagecolor="#ffffff"
     bordercolor="#666666"
     borderopacity="1.0"
     inkscape:pageopacity="0.0"
     inkscape:pageshadow="2"
     inkscape:zoom="1.0373318"
     inkscape:cx="299.7705"
     inkscape:cy="291.34354"
     inkscape:document-units="mm"
     inkscape:current-layer="g107"
     showgrid="false"
     inkscape:window-width="1918"
     inkscape:window-height="1047"
     inkscape:window-x="0"
     inkscape:window-y="31"
     inkscape:window-maximized="1"
     inkscape:document-rotation="0"
     fit-margin-top="0"
     fit-margin-left="0"
     fit-margin-right="0"
     fit-margin-bottom="0" />
  <metadata
     id="metadata5">
    <rdf:RDF>
      <cc:Work
         rdf:about="">
        <dc:format>image/svg+xml</dc:format>
        <dc:type
           rdf:resource="http://purl.org/dc/dcmitype/StillImage" />
        <dc:title></dc:title>
      </cc:Work>
    </rdf:RDF>
  </metadata>
  <g
     inkscape:label="Capa 1"
     inkscape:groupmode="layer"
     id="layer1"
     transform="translate(1.1319768,-73.151911)">
    <flowRoot
       xml:space="preserve"
       id="flowRoot66"
       style="font-style:normal;font-weight:normal;font-size:40px;line-height:1.25;font-family:sans-serif;letter-spacing:0px;word-spacing:0px;fill:#ff6600;fill-opacity:1;stroke:none"><flowRegion
         id="flowRegion68"
         style="fill:#ff6600"><rect
           id="rect70"
           width="375.71429"
           height="285.71429"
           x="-665.71429"
           y="263.94824"
           style="fill:#ff6600;" /></flowRegion><flowPara
         id="flowPara72" /></flowRoot>
    <g
       id="g107"
       transform="matrix(0.27027185,0,0,0.27027185,104.88085,45.789203)">
      <g
         id="g112"
         transform="matrix(1.807068,0,0,1.807068,-145.9075,-16.463055)"
         style="fill:#0d0d0d;fill-opacity:1">
        <path
           inkscape:connector-curvature="0"
           style="fill:#0d0d0d;stroke-width:0.546263;fill-opacity:1"
           d="m 43.55823,129.30859 c -0.0885,-0.14172 -0.206715,-0.46617 -0.262687,-0.72101 -0.05598,-0.25483 -0.163742,-0.50163 -0.239487,-0.54844 -0.07574,-0.0469 -0.488261,0.14757 -0.9167,0.43194 -0.828319,0.54981 -1.186841,0.62756 -1.551233,0.3364 -0.231865,-0.18528 -1.418999,-2.67513 -1.418999,-2.97617 0,-0.092 0.147327,-0.16741 0.327403,-0.16741 0.265003,0 0.37785,-0.14463 0.592084,-0.75878 0.145573,-0.41734 0.557766,-1.44172 0.916,-2.27638 0.358217,-0.83468 0.733342,-1.71271 0.833607,-1.95119 0.100249,-0.23848 0.295988,-0.70433 0.434973,-1.03522 0.138975,-0.3309 0.223985,-0.68773 0.188908,-0.79296 -0.08629,-0.25885 -0.73315,0.44611 -1.053806,1.14848 -0.437151,0.95755 -0.809441,1.66978 -1.526285,2.91994 -1.151561,2.00833 -1.594656,2.89466 -1.513087,3.02663 0.04233,0.0685 0.173837,0.63093 0.292267,1.24991 0.118437,0.61897 0.281167,1.19125 0.361625,1.27173 0.187264,0.18726 0.189646,0.52208 0.0039,0.52208 -0.196195,0 -0.540363,-0.86509 -0.659054,-1.65659 -0.07862,-0.52425 -0.155817,-0.65593 -0.384553,-0.65593 -0.158438,0 -0.317871,0.12117 -0.357169,0.27145 -0.03906,0.1493 -0.236494,0.34686 -0.438785,0.43903 -0.316538,0.14422 -0.396555,0.12653 -0.574073,-0.12691 -0.294949,-0.4211 -0.580143,-0.36728 -1.247161,0.23532 -0.564175,0.5097 -0.591537,0.51845 -0.720177,0.23015 -0.105128,-0.2356 -0.03282,-0.44628 0.338148,-0.9855 0.384099,-0.55828 0.467409,-0.8118 0.447897,-1.36306 -0.01316,-0.37246 0.0744,-0.95606 0.194655,-1.29687 0.120249,-0.34081 0.218631,-0.76702 0.218631,-0.94715 0,-0.23185 0.109356,-0.35493 0.374468,-0.42146 0.213441,-0.0536 0.345145,-0.17041 0.306279,-0.2717 -0.194661,-0.50728 1.180582,-4.32216 2.038925,-5.6559 0.253014,-0.39315 0.460026,-0.85673 0.460026,-1.03016 0,-0.17343 0.100587,-0.39882 0.223551,-0.50086 0.272138,-0.22586 1.647431,-2.97007 2.264521,-4.51858 0.523561,-1.31379 0.467465,-1.46177 -0.631911,-1.66716 -0.649599,-0.12136 -1.567091,-0.64202 -1.567091,-0.88931 0,-0.15273 -3.707059,-2.17317 -5.850201,-3.18848 -0.872573,-0.41339 -1.833492,-0.78474 -2.135367,-0.82522 -0.301877,-0.0405 -0.583644,-0.12988 -0.626144,-0.19865 -0.0425,-0.0687 -0.297233,-0.12503 -0.566075,-0.12503 -0.268838,0 -0.528996,-0.0651 -0.578126,-0.14453 -0.30139,-0.48767 2.34977,0.26811 4.338248,1.23672 0.398729,0.19422 0.877162,0.35313 1.063197,0.35313 0.18603,0 0.575237,0.18543 0.864898,0.41209 0.643322,0.50336 2.698965,1.61136 2.989548,1.61136 0.116022,0 0.210952,-0.10181 0.210952,-0.22631 0,-0.40151 -0.288253,-0.78128 -0.873404,-1.15067 -0.583174,-0.36814 -0.75073,-0.84343 -0.415516,-1.17865 0.104247,-0.10422 0.109863,-0.24644 0.01688,-0.42637 -0.07675,-0.14849 -0.200894,-0.43257 -0.275885,-0.6313 -0.075,-0.19874 -0.277883,-0.65401 -0.450863,-1.01173 -0.17298,-0.35771 -0.314325,-0.7642 -0.314107,-0.90333 2.18e-4,-0.13911 -0.06464,-0.25292 -0.144131,-0.25292 -0.07949,0 -0.144529,-0.0984 -0.144529,-0.21876 0,-0.12029 -0.0753,-0.33934 -0.167343,-0.48672 -0.180103,-0.28839 -0.08076,-0.73985 0.162808,-0.73985 0.08199,0 0.149064,0.11751 0.149064,0.261 0,0.46732 0.612764,2.09486 1.289333,3.42457 0.60965,1.1982 0.718848,1.32829 1.384508,1.64952 0.397467,0.1918 0.848293,0.41111 1.001836,0.48735 0.63964,0.31759 2.309401,0.64912 3.781924,0.75091 0.246293,0.017 0.517316,0.0739 0.602277,0.12643 0.08496,0.0525 0.468808,0.13066 0.852989,0.17368 0.384186,0.043 0.877374,0.10591 1.095977,0.1398 0.728999,0.11292 0.409539,-0.16966 -0.650392,-0.57541 -2.398732,-0.91822 -2.707015,-1.13371 -2.411591,-1.6857 0.177241,-0.33118 0.332166,-0.30175 1.699014,0.32275 0.502376,0.22952 0.942096,0.41733 0.977165,0.41733 0.03507,0 0.33946,0.12086 0.676443,0.26858 0.861806,0.3778 1.410178,0.5986 1.486681,0.5986 0.201354,0 0.0022,-0.46726 -0.442096,-1.03762 -0.351252,-0.45086 -0.518168,-0.82538 -0.541997,-1.21611 -0.03802,-0.6234 0.241794,-0.77838 0.527942,-0.29244 0.08816,0.1497 0.290497,0.40986 0.44964,0.57813 0.159149,0.16826 0.633283,0.70421 1.053649,1.19098 0.77844,0.90147 2.387528,2.00246 2.732864,1.86994 0.326332,-0.12522 0.204155,-0.48878 -0.255247,-0.75951 -0.243692,-0.14361 -0.69897,-0.65134 -1.011727,-1.12829 -0.312764,-0.47696 -0.73645,-1.10566 -0.941528,-1.39711 -0.321814,-0.45738 -0.348717,-0.57506 -0.196474,-0.85953 0.172941,-0.32314 0.192307,-0.3118 0.98908,0.57902 0.776103,0.8677 0.835808,0.90429 1.325877,0.81234 0.379118,-0.0711 0.562579,-0.0367 0.702275,0.13157 0.104006,0.12532 0.327676,0.22785 0.497051,0.22785 0.16938,0 0.75877,0.12892 1.309758,0.28649 0.550988,0.15756 1.02977,0.25851 1.063956,0.22432 0.0342,-0.0342 -0.107882,-0.36642 -0.315725,-0.73829 -0.407986,-0.72997 -0.474669,-1.14098 -0.211496,-1.30363 0.193924,-0.1198 0.860834,0.62093 1.293239,1.43647 0.31675,0.59741 1.47243,1.82903 1.716264,1.82903 0.28308,0 0.145756,-0.48857 -0.342336,-1.21796 -0.269871,-0.40327 -0.528405,-0.94461 -0.574515,-1.20296 -0.131,-0.73393 0.30672,-0.59108 1.055483,0.34446 0.736295,0.91996 3.007001,2.86182 3.906918,3.3411 1.213256,0.64617 1.366876,0.27993 0.212482,-0.50656 -1.251581,-0.85272 -2.006242,-1.64171 -2.256262,-2.3589 -0.128918,-0.36984 -0.110624,-0.47029 0.117,-0.64269 0.324442,-0.24573 0.440774,-0.26008 0.558869,-0.0691 0.09486,0.15349 0.939464,0.20513 0.939464,0.0575 0,-0.0479 -0.155887,-0.38936 -0.346412,-0.75879 -0.483399,-0.93735 -0.809846,-1.72956 -0.809846,-1.96535 0,-0.1099 -0.05195,-0.22153 -0.115454,-0.24802 -0.0635,-0.0265 -0.332351,-0.56849 -0.597448,-1.20443 -0.26509,-0.635944 -0.635888,-1.522115 -0.823998,-1.969259 -0.188106,-0.447155 -0.342012,-0.904214 -0.342012,-1.015694 0,-0.111469 -0.09963,-0.344938 -0.221399,-0.518795 -0.121766,-0.173846 -0.309675,-0.566294 -0.417573,-0.872102 -0.107894,-0.305809 -0.327387,-0.8447 -0.487754,-1.197523 -0.160371,-0.352824 -0.456681,-1.015483 -0.658464,-1.472568 -0.201784,-0.45708 -0.41924,-0.829775 -0.48324,-0.828207 -0.064,0.0017 -0.701708,0.895626 -1.417137,1.98679 -0.760917,1.160532 -1.719133,2.404056 -2.308763,2.996193 -0.972698,0.976808 -1.148803,1.302917 -0.995488,1.843306 0.09899,0.34891 0.478974,0.33001 0.387629,-0.01932 -0.07814,-0.298768 0.737606,-1.028581 1.149697,-1.028581 0.127683,0 0.249696,-0.144052 0.27542,-0.325192 0.0254,-0.178857 0.143742,-0.325204 0.262981,-0.325204 0.164442,0 0.209628,0.154028 0.187095,0.6378 -0.01633,0.350783 -0.07277,0.74102 -0.125427,0.867186 -0.05265,0.126179 -0.126382,0.717205 -0.163852,1.3134 -0.0402,0.64008 -0.151631,1.17742 -0.272033,1.31217 -0.125252,0.14015 -0.203908,0.54764 -0.203908,1.05638 0,0.51534 -0.05458,0.79446 -0.144532,0.73888 -0.0795,-0.0491 -0.144535,-0.21328 -0.144535,-0.36477 0,-0.34066 -0.265292,-0.47753 -1.373058,-0.70835 -0.476948,-0.0994 -1.115146,-0.34122 -1.418201,-0.53741 l -0.551021,-0.3567 -0.290531,0.36936 c -0.255241,0.32448 -0.398984,0.36954 -1.183367,0.37096 -0.60337,0.001 -1.337996,0.14693 -2.265889,0.4498 -1.181791,0.38577 -1.649888,0.45829 -3.360374,0.52066 -1.907352,0.0696 -1.987314,0.061 -1.987314,-0.21313 0,-0.15709 -0.187668,-0.52174 -0.417039,-0.81038 -0.246861,-0.31063 -0.456697,-0.78921 -0.514213,-1.17275 -0.05343,-0.3564 -0.158455,-0.68587 -0.233353,-0.73216 -0.205411,-0.12694 -0.163649,-0.613473 0.08525,-0.993349 0.248862,-0.379815 0.390601,-0.223783 -1.73606,-1.910996 -1.048607,-0.83191 -2.09742,-2.208049 -2.098217,-2.753039 -2.88e-4,-0.173181 -0.09801,-0.412434 -0.21726,-0.531681 -0.133643,-0.133642 -0.216794,-0.488093 -0.216794,-0.924114 0,-0.523095 -0.121282,-0.930443 -0.465658,-1.564043 -0.39351,-0.723988 -0.467267,-1.013738 -0.476051,-1.870146 -0.01491,-1.452344 -0.244031,-1.704727 -0.706339,-0.778004 -0.32418,0.649828 -0.303798,2.180556 0.04676,3.513567 0.16548,0.629212 0.273536,1.171357 0.24012,1.204771 -0.126306,0.126303 -0.371027,-0.543187 -0.600555,-1.642951 -0.300019,-1.437506 -0.209759,-3.108475 0.197676,-3.659561 0.152937,-0.206853 0.328031,-0.53744 0.389097,-0.734631 0.06107,-0.197195 0.260999,-0.618696 0.444286,-0.936665 0.183289,-0.317969 0.477243,-0.968366 0.653238,-1.445319 0.175989,-0.476958 0.511794,-1.148178 0.746223,-1.491607 0.536566,-0.786057 0.394106,-0.984672 -0.194274,-0.27086 -0.24207,0.293665 -0.563229,0.533945 -0.713697,0.533945 -0.563972,0 -2.913782,1.296221 -3.745178,2.065943 -1.028732,0.952426 -1.718133,1.29418 -2.770901,1.373596 -1.402573,0.105804 -1.135997,-0.46226 0.283909,-0.604992 1.224748,-0.123112 2.069605,-0.543762 3.146233,-1.566491 0.592646,-0.562978 2.636542,-1.696992 3.07635,-1.706848 0.381586,-0.0086 0.951311,-0.592469 1.45909,-1.495432 0.262965,-0.467628 0.589581,-0.879379 0.725802,-0.915001 0.197283,-0.05157 0.267581,-0.303421 0.34549,-1.237586 0.0538,-0.645048 0.172345,-1.262625 0.263445,-1.372391 0.125903,-0.151703 0.119947,-0.227813 -0.02485,-0.317291 -0.142581,-0.08811 -0.11299,-0.142313 0.117689,-0.215523 0.231462,-0.07346 0.308157,-0.215014 0.308157,-0.568736 0,-0.557384 0.499207,-1.099446 1.012526,-1.099446 0.312484,0 0.320923,0.0165 0.09335,0.182927 -0.220439,0.161185 -0.230888,0.272809 -0.08792,0.939456 0.203149,0.947231 0.470861,0.973304 0.77672,0.07564 0.220979,-0.648533 0.218745,-0.694157 -0.04709,-0.959984 -0.194607,-0.194607 -0.240493,-0.34944 -0.151582,-0.511494 0.07013,-0.127825 0.297636,-0.622641 0.505555,-1.099599 0.207935,-0.476953 0.496679,-1.12735 0.641673,-1.445319 0.144989,-0.317969 0.460521,-1.010475 0.701182,-1.538899 0.240673,-0.528424 0.505616,-1.002819 0.588767,-1.054211 0.08316,-0.05139 0.383232,-0.508359 0.666829,-1.01548 1.12635,-2.014101 4.052937,-3.881384 7.151606,-4.563009 0.437207,-0.09617 0.973048,-0.239418 1.190755,-0.318318 0.552796,-0.200344 1.881515,-0.007 2.983435,0.434132 1.574297,0.630232 3.466076,2.693474 4.139574,4.514749 0.132272,0.357717 0.302307,0.781442 0.377833,0.941611 0.07553,0.160168 0.157778,0.483045 0.18278,0.717503 0.03616,0.339051 0.136932,0.449993 0.492505,0.542132 0.601349,0.155823 0.692617,0.35598 0.305334,0.669586 -0.293087,0.237323 -0.30659,0.306251 -0.147896,0.754755 0.260585,0.736466 0.347654,2.323473 0.164742,3.002757 -0.126766,0.470774 -0.116819,0.74755 0.04665,1.298045 0.204652,0.689139 0.199272,0.722264 -0.356917,2.19626 -0.310588,0.823115 -0.61937,1.5326 -0.686177,1.57664 -0.06682,0.04403 -0.323951,0.5069 -0.571412,1.028575 -0.247468,0.521676 -0.619047,1.13097 -0.825727,1.353988 -0.207414,0.223799 -0.339415,0.500269 -0.29461,0.617032 0.04462,0.116348 0.08118,0.332609 0.08118,0.480559 0,0.147954 0.355104,0.652559 0.789115,1.121345 0.550889,0.595023 0.743321,0.898126 0.637428,1.00402 -0.105901,0.105902 -0.09323,0.259339 0.04196,0.508264 0.323174,0.595144 1.371638,1.698753 1.613856,1.698753 0.125139,0 0.279539,0.08193 0.343108,0.182064 0.06357,0.100141 0.375872,0.350553 0.69401,0.556466 0.554905,0.359174 0.895265,0.460462 2.16768,0.645071 0.317969,0.04616 0.708209,0.141433 0.867193,0.211764 0.158985,0.07035 0.656504,0.230665 1.10559,0.356284 0.449094,0.125612 1.166625,0.418011 1.594518,0.649768 0.815795,0.44185 2.575308,1.941891 2.575308,2.19554 0,0.141129 0.481426,0.799351 0.940221,1.285515 0.118824,0.1259 0.216037,0.275121 0.216037,0.331592 0,0.18015 1.408931,1.971235 1.758872,2.235935 0.185265,0.140139 0.629519,0.34536 0.987235,0.456056 0.857096,0.265218 1.300416,0.554916 1.209949,0.79068 -0.04037,0.105189 -0.0039,0.234205 0.08099,0.286691 0.08491,0.05253 0.154385,0.238839 0.154385,0.414119 0,0.35894 0.487152,1.76484 0.701385,2.02415 0.07697,0.0931 0.184676,0.42955 0.239356,0.74752 0.238908,1.38928 0.499727,1.99111 1.105105,2.54999 0.332102,0.3066 0.65804,0.55746 0.724306,0.55746 0.222511,0 0.124069,1.05726 -0.123957,1.33133 -0.233538,0.25806 -0.180315,0.33509 1.192388,1.72622 1.259624,1.27653 1.383354,1.44481 1.003236,1.36439 -1.768058,-0.37407 -1.989803,-0.22359 -0.891959,0.60529 1.039712,0.78499 1.686887,1.45051 1.686887,1.73471 0,0.16311 -0.189318,0.0552 -0.614262,-0.35 -0.639478,-0.6098 -1.543463,-1.27828 -1.607151,-1.18843 -0.02022,0.0286 -0.278223,0.40961 -0.573308,0.84683 -0.295087,0.4372 -0.746322,1.06265 -1.002747,1.38986 -0.256422,0.32722 -0.76596,0.9776 -1.132305,1.44532 -0.579498,0.73984 -0.991631,1.50077 -0.81285,1.50077 0.03195,0 0.44285,-0.12566 0.913062,-0.27924 1.170101,-0.38218 2.227986,-0.45762 2.227986,-0.15888 0,0.077 -0.0895,0.10567 -0.198899,0.0636 -0.259656,-0.0996 -1.841593,0.31304 -2.641749,0.68916 -1.386491,0.65174 -0.367831,1.56421 1.746239,1.56421 0.852448,0 1.096906,-0.0523 1.301416,-0.27825 0.242595,-0.26806 0.236799,-0.27996 -0.158263,-0.3252 -0.495094,-0.0566 -0.593027,-0.59762 -0.121014,-0.66844 0.15899,-0.0239 0.516704,-0.2325 0.794928,-0.46369 l 0.505857,-0.42033 -0.905607,-0.83709 c -0.619729,-0.57284 -0.904896,-0.94404 -0.903328,-1.17583 0.0022,-0.29853 0.124455,-0.22563 1.031606,0.61427 0.566128,0.52414 1.113893,0.95298 1.217262,0.95298 0.196081,0 1.231993,-1.12684 1.179814,-1.28338 -0.01645,-0.0493 0.03512,-0.10942 0.114632,-0.13344 0.373044,-0.11292 0.161006,0.4009 -0.431558,1.04585 -0.435639,0.47415 -0.630436,0.80097 -0.581496,0.97559 0.04048,0.14442 0.110647,0.39313 0.155936,0.55268 0.05715,0.20135 -0.04589,0.41141 -0.336777,0.68653 -0.763079,0.72176 -1.651066,1.40737 -1.892427,1.46115 -0.13085,0.0292 -0.400508,0.16601 -0.599238,0.30412 -0.19873,0.13811 -0.540188,0.29436 -0.758791,0.34721 -0.47644,0.11521 -0.502716,0.29575 -0.09228,0.63399 0.682862,0.56277 0.677383,0.54981 0.574045,1.35737 -0.02092,0.16362 -1.071101,0.72766 -1.719073,0.92329 -0.342669,0.1035 -1.209032,0.26819 -1.925247,0.36606 -1.252734,0.1712 -1.313741,0.16643 -1.605717,-0.12555 l -0.303511,-0.30352 -0.193687,0.37333 c -0.284881,0.54912 -0.02999,0.76798 0.894472,0.76798 0.41835,0 0.971157,0.0885 1.228458,0.19671 l 0.467819,0.1967 -0.415094,0.10604 c -1.253253,0.32004 -1.999622,0.2465 -2.118675,-0.20876 -0.102387,-0.39152 -0.413236,-0.36592 -0.886879,0.0731 -0.598213,0.5544 -0.907102,0.25278 -0.372447,-0.36369 0.158984,-0.1833 0.289066,-0.5022 0.289072,-0.70864 0,-0.25573 0.161212,-0.50398 0.50586,-0.77897 0.278223,-0.22199 0.505856,-0.52297 0.505856,-0.66884 0,-0.14586 0.101131,-0.34912 0.224738,-0.4517 0.123602,-0.10254 0.549464,-0.84224 0.946361,-1.64369 0.800085,-1.61558 1.719577,-3.28422 2.35601,-4.27554 0.414291,-0.64531 0.634512,-0.92776 1.748308,-2.24235 1.199571,-1.41582 1.236663,-1.85771 0.252932,-3.01309 -0.377589,-0.44347 -1.015695,-1.44238 -1.418012,-2.21979 l -0.731489,-1.4135 -1.942352,-0.0722 c -1.068299,-0.0397 -1.994918,-0.0327 -2.059164,0.0156 -0.120818,0.0909 0.944399,1.03465 1.70666,1.51201 0.815375,0.51063 1.66212,1.27948 1.66212,1.50923 0,0.12625 -0.06474,0.2943 -0.143881,0.37343 -0.07913,0.0791 -0.18498,0.63013 -0.235216,1.22444 -0.07585,0.89733 -0.05146,1.11368 0.143876,1.27578 0.331211,0.27488 0.292179,0.4197 -0.09326,0.34601 -0.267641,-0.0512 -0.362151,0.0304 -0.510347,0.44018 -0.100033,0.27663 -0.169352,0.5578 -0.154051,0.62483 0.01529,0.067 -0.05059,0.31245 -0.146383,0.54541 -0.09582,0.23295 -0.212862,0.72074 -0.260107,1.08398 -0.08564,0.65847 -0.260802,1.02178 -0.492648,1.02178 -0.18716,0 -0.03202,-1.12195 0.298019,-2.15502 0.162753,-0.50947 0.322022,-1.06227 0.353924,-1.22844 0.03191,-0.16616 0.101602,-0.41153 0.154887,-0.54527 0.07111,-0.17848 -0.02983,-0.30869 -0.379472,-0.48949 l -0.476357,-0.24635 -0.530586,0.5979 c -0.291819,0.32885 -0.603046,0.5979 -0.691611,0.5979 -0.08857,0 -0.161028,0.0848 -0.161028,0.18845 0,0.10362 -0.234851,0.41258 -0.521884,0.68653 -0.894817,0.85401 -3.29238,3.54975 -4.247673,4.77596 -0.198728,0.25508 -0.529944,0.66519 -0.736021,0.91133 -0.893997,1.06779 -2.351601,3.64672 -2.866996,5.07255 -0.172401,0.47696 -0.442439,1.0298 -0.600085,1.22853 -0.215784,0.27203 -0.196179,0.18633 0.07932,-0.34673 0.20127,-0.38943 0.365948,-0.94404 0.365948,-1.23248 0,-0.28846 0.0894,-0.65274 0.198681,-0.80955 0.109282,-0.15679 0.245064,-0.56146 0.301755,-0.89927 0.05669,-0.33779 0.180223,-0.66299 0.274518,-0.72265 0.207013,-0.13099 0.67037,-0.84043 0.67037,-1.02639 0,-0.21914 1.08207,-1.76287 1.939974,-2.76766 0.441167,-0.51671 0.803027,-1.01317 0.804125,-1.10326 0.0011,-0.0901 0.132082,-0.19782 0.29107,-0.2394 0.302931,-0.0792 0.405662,-0.39173 0.128771,-0.39173 -0.197983,0 -0.516913,0.29007 -2.198328,1.99929 -0.929932,0.94532 -1.516328,1.69477 -1.959916,2.5049 -0.348133,0.6358 -0.732241,1.19409 -0.853572,1.24065 -0.131874,0.0506 -0.331986,-0.0529 -0.497537,-0.25736 -0.382262,-0.47207 -0.612726,-0.29043 -1.299914,1.02453 -0.309245,0.59176 -0.66822,1.23834 -0.797719,1.43683 -0.949973,1.4562 -1.494289,3.18013 -1.004091,3.18013 0.104295,0 0.34183,0.20588 0.527866,0.4575 0.272835,0.36903 0.289781,0.43891 0.08763,0.36134 -0.137838,-0.0529 -0.310337,-0.0961 -0.38333,-0.0961 -0.07299,0 -0.132713,-0.0959 -0.132713,-0.21308 0,-0.11715 -0.199791,-0.3164 -0.443977,-0.44268 -0.4865,-0.25158 -0.656262,-0.18351 -1.194723,0.47912 -0.147148,0.18108 -0.524959,0.46056 -0.839585,0.62108 -0.463002,0.23619 -0.554216,0.348 -0.478526,0.58649 0.08227,0.25917 0.05827,0.2758 -0.199162,0.13802 -0.321368,-0.17199 -0.890921,-0.9072 -0.890921,-1.15004 0,-0.0843 0.130075,-0.22289 0.289065,-0.30798 0.158984,-0.085 0.28906,-0.24767 0.28906,-0.36133 0,-0.11364 -0.130076,-0.27624 -0.28906,-0.36132 -0.15899,-0.085 -0.288586,-0.29876 -0.287994,-0.47481 0.0022,-0.64057 2.024672,-6.24483 4.777328,-13.2376 0.230769,-0.58621 0.384378,-1.12279 0.341365,-1.19238 -0.150905,-0.24417 -0.323442,-0.12221 -0.485518,0.34319 -0.08997,0.25835 -0.323971,0.71223 -0.519998,1.00862 -0.196032,0.2964 -0.356415,0.6373 -0.356415,0.75757 0,0.12029 -0.130081,0.29991 -0.289065,0.39919 -0.161568,0.10096 -0.289066,0.33705 -0.289066,0.53543 0,0.19518 -0.292678,0.92156 -0.650392,1.61417 -0.35772,0.6926 -0.650396,1.43895 -0.650396,1.65854 0,0.21959 -0.09224,0.50194 -0.204985,0.62744 -0.112737,0.12549 -0.343632,0.80336 -0.513094,1.50637 -0.169461,0.70301 -0.361337,1.38592 -0.426391,1.51759 -0.06505,0.13166 -0.232501,0.56459 -0.372109,0.96205 -0.539036,1.53469 -0.676645,1.8977 -0.931394,2.45703 -0.144814,0.31798 -0.300067,0.6879 -0.344992,0.82206 -0.05628,0.16807 -0.207789,0.2299 -0.487148,0.19884 -0.326052,-0.0362 -0.404593,-0.11618 -0.401053,-0.40788 0.0028,-0.23658 -0.05997,-0.33809 -0.180672,-0.29177 -0.101783,0.039 -0.185057,0.1291 -0.185057,0.20008 0,0.071 -0.196359,0.12908 -0.436349,0.12908 -0.400931,0 -0.429231,-0.0322 -0.348626,-0.39747 0.219057,-0.99248 1.25646,-4.41079 1.655833,-5.45608 0.242982,-0.63594 0.772196,-2.13185 1.176038,-3.32424 0.403841,-1.19239 0.782199,-2.23302 0.840786,-2.31251 0.169144,-0.22951 0.581087,-1.54105 0.581087,-1.85009 0,-0.23341 -0.03671,-0.25054 -0.216802,-0.10108 -0.119234,0.0989 -0.218298,0.25326 -0.220132,0.34289 -0.0017,0.0896 -0.35955,0.87628 -0.794927,1.74812 -0.435371,0.87182 -0.79159,1.66317 -0.79159,1.75852 0,0.0954 -0.1385,0.48773 -0.307776,0.87191 -0.169286,0.38418 -0.359183,0.92615 -0.422009,1.20437 -0.142121,0.62937 -0.794955,2.59224 -1.16259,3.49556 -0.151582,0.37245 -0.275604,0.8155 -0.275604,0.98455 0,0.77183 -1.477342,3.32462 -1.924009,3.32462 -0.266708,0 -0.279277,-0.069 -0.191182,-1.04785 0.08716,-0.96853 0.379773,-2.23112 0.678295,-2.92678 0.06822,-0.15899 0.194512,-0.58174 0.280643,-0.93945 0.08612,-0.35772 0.215177,-0.78048 0.286781,-0.93947 0.385039,-0.85489 1.736663,-4.75499 1.736663,-5.01111 0,-0.48481 -0.407742,-0.0454 -0.893845,0.96311 -0.230173,0.47757 -0.555193,1.09594 -0.722268,1.37416 -0.167074,0.27823 -0.491319,1.02618 -0.720543,1.66212 -0.453479,1.2581 -1.127966,2.96686 -2.038575,5.16453 -0.585513,1.41308 -0.967077,1.95498 -1.252411,1.77864 -0.189607,-0.11715 -0.204488,-1.18567 -0.01814,-1.30086 0.07454,-0.046 0.296359,-0.58648 0.49293,-1.20091 0.196562,-0.61445 0.562564,-1.67001 0.813326,-2.34569 0.250751,-0.67569 0.583256,-1.58447 0.738887,-2.01951 0.155629,-0.43505 0.346521,-0.85455 0.4242,-0.93224 0.07768,-0.0777 0.14124,-0.2291 0.14124,-0.3365 0,-0.10736 0.357716,-0.9865 0.794928,-1.95359 0.802602,-1.7753 0.929832,-2.19835 0.63124,-2.09881 -0.400379,0.13345 -3.051506,5.47472 -3.894602,7.84652 -0.339083,0.95391 -0.897997,2.29404 -1.242021,2.97806 -0.344026,0.68401 -0.627575,1.3344 -0.630099,1.44531 -0.0063,0.27647 -0.292195,0.62592 -0.681938,0.83352 -0.346123,0.18437 -0.437807,0.77437 -0.18256,1.17478 0.113377,0.17787 0.184363,0.18417 0.395248,0.035 1.065293,-0.7531 1.34048,-0.52847 0.404889,0.3305 -0.38708,0.35538 -0.709387,0.64614 -0.716242,0.64614 -0.0069,0 -0.08488,-0.11594 -0.173384,-0.25768 z m -1.835498,-0.91361 c 0.396905,-0.24529 0.459265,-0.34356 0.322547,-0.50828 -0.18338,-0.22097 -0.08251,-1.81908 0.151879,-2.40609 0.07084,-0.17741 0.275025,-0.81036 0.453758,-1.40656 0.178725,-0.59619 0.447825,-1.46719 0.597998,-1.93552 0.182184,-0.56819 0.224902,-0.89968 0.128372,-0.99619 -0.09652,-0.0965 -0.333029,0.25896 -0.710775,1.06833 -1.719252,3.6837 -1.99068,4.1162 -2.484851,3.95935 -0.442298,-0.14037 -0.479455,0.19203 -0.109886,0.98295 0.193054,0.41315 0.425248,0.93003 0.515999,1.14864 0.197844,0.47657 0.477696,0.49959 1.134958,0.0933 z m 14.356638,-0.85216 c 0.287876,-0.28787 0.399395,-0.8672 0.166939,-0.8672 -0.154057,0 -0.512149,0.40679 -0.731578,0.83107 -0.139154,0.26906 -0.129884,0.32519 0.05369,0.32519 0.122042,0 0.351968,-0.13008 0.510946,-0.28906 z m -12.514081,-0.67108 c 0.05014,-0.13061 0.06141,-0.26721 0.02507,-0.30354 -0.114862,-0.11485 -0.374349,0.11582 -0.374349,0.33275 0,0.2835 0.236872,0.2637 0.349271,-0.0292 z m -7.214536,-0.16219 c 0.187171,-0.13752 0.79585,-1.35256 0.795326,-1.58764 -2.9e-4,-0.0994 -0.09797,-0.18067 -0.2172,-0.18067 -0.119234,0 -0.216795,0.0681 -0.216795,0.15144 0,0.0833 -0.17334,0.31206 -0.385191,0.50841 -0.602468,0.55835 -0.581061,1.55288 0.02388,1.10846 z m 38.383636,-4.5882 c 0.81775,-0.27895 1.656175,-1.03268 1.439332,-1.29396 -0.08427,-0.10157 -0.40476,-0.21837 -0.712209,-0.2596 -0.817984,-0.10965 -1.380864,-0.42172 -1.434092,-0.79493 -0.05624,-0.39436 -0.3968,-0.41806 -1.111327,-0.0773 -0.843742,0.40236 -0.567665,0.88459 0.748177,1.30688 0.297341,0.0954 0.507254,0.0976 0.598749,0.006 0.156739,-0.15675 0.750045,0.0935 0.750045,0.31637 0,0.213 -0.615573,0.58125 -0.971617,0.58125 -0.181042,0 -0.329171,0.0607 -0.329171,0.13492 0,0.0743 -0.178858,0.16204 -0.397462,0.19515 -0.292637,0.0443 -0.24224,0.0659 0.191052,0.0819 0.323682,0.0121 0.876515,-0.0766 1.228523,-0.19665 z m -1.782932,-0.56255 c 0.118087,-0.11811 -0.158695,-0.49737 -0.464677,-0.63678 -0.382826,-0.17443 -0.542636,-0.0563 -0.724438,0.53542 -0.103752,0.33772 -0.0909,0.34382 0.518878,0.24631 0.343905,-0.055 0.645509,-0.12016 0.670237,-0.14495 z m -13.702872,-0.75621 c 0.164758,-0.20946 0.299554,-0.4696 0.299554,-0.57813 0,-0.10857 0.05414,-0.19731 0.120285,-0.19731 0.06616,0 0.191311,-0.23146 0.278141,-0.51435 0.135662,-0.44206 0.126016,-0.50808 -0.06867,-0.46973 -0.124581,0.0245 -0.273524,0.14218 -0.330985,0.26142 -0.865532,1.79611 -0.978353,2.36259 -0.298331,1.4981 z m 15.619943,-1.35357 c 0,-0.0795 0.09373,-0.14453 0.208274,-0.14453 0.114549,0 0.247857,-0.064 0.29625,-0.14235 0.05457,-0.0883 -0.09316,-0.11099 -0.38894,-0.0598 -0.728801,0.12621 -0.864418,0.18736 -0.766603,0.34563 0.116638,0.18873 0.651019,0.18956 0.651019,0.001 z m -29.424325,-0.52654 c 0.121002,-0.31532 -0.03966,-0.46188 -0.210384,-0.19193 -0.170908,0.27026 -0.174552,0.42942 -0.0098,0.42942 0.07099,0 0.17008,-0.10688 0.220199,-0.23749 z m 17.283638,-0.95102 c 0,-0.10941 0.07236,-0.27136 0.160798,-0.3598 0.08843,-0.0884 0.134807,-0.23875 0.103051,-0.33402 -0.06668,-0.20002 -0.752176,0.74656 -0.979476,1.35249 l -0.153652,0.40964 0.434644,-0.43465 c 0.23905,-0.23905 0.43464,-0.5242 0.43464,-0.63366 z m -2.304884,0.51806 c 0.208207,-0.54764 0.0556,-0.59372 -0.217473,-0.0657 -0.135473,0.26197 -0.168321,0.44703 -0.07934,0.44703 0.0835,0 0.217069,-0.17163 0.296823,-0.38138 z m -18.847949,-0.5552 c -0.129929,-0.33859 -0.337854,-0.15538 -0.414226,0.36498 -0.06483,0.44175 -0.06386,0.44243 0.22022,0.15834 0.170561,-0.17056 0.248593,-0.38106 0.194006,-0.52332 z m 32.50717,0.63364 c 0.05386,-0.0871 -0.0043,-0.26039 -0.128749,-0.38504 -0.186707,-0.18671 -0.266122,-0.19388 -0.450694,-0.0407 -0.123231,0.10229 -0.224054,0.27554 -0.224054,0.38505 0,0.23768 0.66107,0.27115 0.803497,0.0407 z m -27.74797,-1.57527 c 0.536477,-1.25233 2.559906,-4.99965 3.402358,-6.30103 0.880243,-1.35982 0.97089,-1.61535 0.677147,-1.90909 -0.280277,-0.28028 -0.474953,-0.2023 -0.649507,0.26016 -0.137167,0.36337 -0.242375,0.43359 -0.649774,0.43359 -0.474822,0 -0.486222,0.0143 -0.490745,0.61426 -0.005,0.65723 -0.374747,1.74242 -0.874195,2.56544 -0.168838,0.27822 -0.383007,0.74387 -0.475938,1.03476 -0.09292,0.2909 -0.434021,1.03886 -0.75801,1.66212 -0.323983,0.62327 -0.637353,1.39337 -0.696365,1.71134 -0.05902,0.31799 -0.157591,0.70821 -0.219067,0.8672 l -0.111783,0.28906 0.283785,-0.28906 c 0.156076,-0.15899 0.409019,-0.58142 0.562094,-0.93875 z m 14.971187,-0.11413 c 0.400793,-0.46326 0.538271,-0.89828 0.283892,-0.89828 -0.06976,0 -0.214074,0.10507 -0.320694,0.23358 -0.173925,0.20955 -0.282746,0.45716 -0.627852,1.42852 l -0.102713,0.28907 0.178316,-0.28907 c 0.09808,-0.15898 0.363146,-0.50269 0.589047,-0.76382 z m 17.537766,0.54703 c 0.163842,-0.18104 0.195666,-0.28907 0.08517,-0.28907 -0.265619,0 -0.735563,0.28028 -0.735563,0.43868 0,0.23942 0.376761,0.15275 0.650395,-0.14961 z m -36.783394,-0.0478 c 0,-0.28865 3.251345,-5.20382 3.834371,-5.79655 0.345424,-0.35117 0.680484,-1.06512 0.577826,-1.23124 -0.0396,-0.064 -0.237828,-0.14815 -0.440552,-0.1869 -0.272452,-0.052 -0.410783,0.01 -0.530392,0.23568 -0.08899,0.16836 -0.379368,0.56172 -0.645274,0.87413 -0.265909,0.31241 -0.48347,0.62817 -0.48347,0.70171 0,0.0736 -0.188799,0.41342 -0.41955,0.75534 -0.230753,0.34191 -0.460872,0.75183 -0.511369,0.91093 -0.05048,0.15911 -0.1858,0.32535 -0.300669,0.36943 -0.114874,0.0441 -0.174476,0.16975 -0.132457,0.27926 0.042,0.10954 -0.02409,0.28253 -0.14696,0.38449 -0.122861,0.10193 -0.223379,0.33618 -0.223379,0.52049 0,0.18431 -0.06319,0.37416 -0.140415,0.42189 -0.138096,0.0854 -0.607056,1.05976 -0.794945,1.65175 -0.06938,0.21861 -0.03327,0.30197 0.130694,0.30197 0.124591,0 0.226541,-0.0866 0.226541,-0.19238 z m 16.910246,-0.25826 c 0,-0.15899 -0.06503,-0.24887 -0.144536,-0.19975 -0.07949,0.0491 -0.144529,0.21941 -0.144529,0.37839 0,0.15899 0.06504,0.24886 0.144529,0.19973 0.0795,-0.0491 0.144536,-0.21939 0.144536,-0.37837 z m -6.652901,-0.48881 c 0,-0.0795 -0.06305,-0.047 -0.140107,0.0722 -0.07705,0.1192 -0.140099,0.28185 -0.140099,0.36134 0,0.0795 0.06304,0.047 0.140099,-0.0722 0.07706,-0.1192 0.140107,-0.28184 0.140107,-0.36133 z m 13.094376,-0.72267 c 0.212211,-0.27822 0.459417,-0.50617 0.549342,-0.50654 0.308066,-0.001 3.137767,-2.61602 3.720338,-3.4377 l 0.43959,-0.61999 -0.298747,-0.50634 c -0.164315,-0.27849 -0.663785,-0.95814 -1.109939,-1.51034 -0.631021,-0.781 -0.934886,-1.03729 -1.368153,-1.15396 -0.30634,-0.0825 -0.591625,-0.20604 -0.633977,-0.27457 -0.04233,-0.0686 -0.25387,-0.16897 -0.470033,-0.22324 -0.216172,-0.0542 -0.94075,-0.36005 -1.610173,-0.67957 l -1.217149,-0.58092 -0.306235,0.31157 -0.306241,0.31157 0.433596,0.36078 c 1.182702,0.98409 2.327914,1.78852 2.546244,1.78852 0.133967,0 0.377889,0.22763 0.542042,0.50586 0.208103,0.3527 0.402555,0.50586 0.642271,0.50586 0.18909,0 0.46534,0.1343 0.613901,0.29845 0.264595,0.29238 0.262835,0.31222 -0.086,0.97331 -0.195851,0.37117 -0.560854,0.97362 -0.811102,1.33877 -0.250248,0.36516 -0.602161,1.01658 -0.782019,1.44761 -0.179857,0.43102 -0.511682,0.98189 -0.737381,1.22415 -0.400472,0.42985 -0.547743,0.93259 -0.273198,0.93259 0.07544,0 0.310807,-0.22764 0.523021,-0.50587 z m -11.059931,-3.534 c 0.556534,-1.13957 0.98601,-2.0978 0.954399,-2.12941 -0.03163,-0.0316 -0.253511,0.10748 -0.493107,0.30908 -0.280511,0.23603 -0.55597,0.70742 -0.773585,1.32384 -0.185871,0.5265 -0.420759,0.98906 -0.521976,1.0279 -0.101215,0.0389 -0.184023,0.28745 -0.184023,0.55248 0,0.26504 -0.05728,0.51727 -0.127274,0.56053 -0.07001,0.0432 -0.159712,0.2483 -0.199337,0.45565 -0.1382,0.72293 0.301715,0.036 1.344903,-2.10007 z m 7.50724,1.49414 c 0.885765,-1.24954 2.165194,-3.00464 2.488609,-3.41385 0.371197,-0.46966 0.299452,-0.57716 -0.400284,-0.59971 -0.493221,-0.0159 -0.550509,0.0307 -0.950531,0.77347 -0.234122,0.43473 -0.513974,0.89 -0.621881,1.01174 -0.107919,0.12172 -0.303345,0.48059 -0.434295,0.79748 -0.130956,0.31688 -0.359797,0.70712 -0.508549,0.86718 -0.148759,0.16008 -0.317057,0.54329 -0.374004,0.85161 -0.139222,0.75376 0.131497,0.65643 0.800935,-0.28792 z m 1.130911,0.33995 c 0.03338,-0.17344 -0.04441,-0.25127 -0.251265,-0.25127 -0.20684,0 -0.299662,0.0929 -0.299662,0.29967 0,0.37038 0.478378,0.32836 0.550927,-0.0484 z m -2.560602,-2.17571 c 0.564308,-0.94517 0.657227,-1.48182 0.228072,-1.31714 -0.218627,0.0839 -0.307159,0.2522 -1.058964,2.01306 -0.46771,1.09544 -0.474303,1.13345 -0.125422,0.72266 0.202545,-0.23847 0.632878,-0.87684 0.956314,-1.41858 z m -8.012827,0.29845 c 0.21335,-0.33783 0.535354,-0.84189 0.715578,-1.12011 0.180222,-0.27822 0.372972,-0.69116 0.428335,-0.91764 0.08547,-0.34966 0.06035,-0.40401 -0.166565,-0.3603 -0.146974,0.0283 -0.348063,0.2136 -0.44685,0.41177 -0.98915,1.98409 -1.223497,2.60055 -0.98862,2.60055 0.03862,0 0.244769,-0.27642 0.458122,-0.61427 z m -2.015802,0.21681 c 0.05135,-0.13912 0.161224,-0.29818 0.244218,-0.35348 0.08299,-0.0553 0.100878,-0.15055 0.03971,-0.21168 -0.171876,-0.17188 -0.597776,0.16109 -0.649338,0.50766 -0.05529,0.37169 0.232731,0.41702 0.365379,0.0575 z m 14.571432,-0.15275 c -0.04451,-0.0446 -0.161114,-1e-4 -0.259157,0.0987 -0.141685,0.14273 -0.125083,0.15934 0.0809,0.0809 0.142542,-0.0543 0.222749,-0.13509 0.17825,-0.17959 z m -21.185133,-1.53173 c 0.239519,-0.44755 0.09774,-0.66417 -0.43476,-0.66417 -0.370376,0 -0.425057,0.0526 -0.425057,0.40951 0,0.22523 0.04337,0.45287 0.09636,0.50586 0.205646,0.20566 0.585927,0.0806 0.763462,-0.2512 z m 7.793548,0.008 c 0.233853,-0.28178 0.376565,-1.10635 0.19148,-1.10635 -0.290889,0 -0.60652,0.45666 -0.60652,0.87753 0,0.45499 0.155969,0.54099 0.41504,0.22882 z m 19.38584,-0.17542 c 0,-0.23849 -0.22842,-0.27878 -0.361326,-0.0638 -0.11787,0.1907 0.05495,0.46135 0.226786,0.35515 0.07399,-0.0458 0.13454,-0.17688 0.13454,-0.29142 z m -4.62502,-0.004 c 0,-0.25523 -0.311142,-0.21078 -0.400471,0.0572 -0.03146,0.0944 0.04577,0.17164 0.17163,0.17164 0.125865,-1e-5 0.228841,-0.10302 0.228841,-0.22886 z m -4.281043,-1.05383 0.398056,-0.41548 -0.390506,-0.30719 c -0.497243,-0.39112 -0.5824,-0.38581 -0.870683,0.0541 -0.21932,0.33472 -0.21932,0.38794 0,0.72266 0.300024,0.45789 0.3772,0.45305 0.863133,-0.0541 z m 10.619625,-0.0816 c 0.496699,-0.48857 0.312395,-0.80789 -0.818958,-1.41897 -0.924719,-0.49946 -1.278987,-0.74795 -1.978597,-1.38779 -0.569174,-0.52056 -1.373046,-0.78913 -1.373046,-0.45872 0,0.0768 0.292675,0.46924 0.650396,0.87201 0.357713,0.40278 0.650392,0.80082 0.650392,0.88453 0,0.0837 0.403998,0.57294 0.897776,1.08715 0.990517,1.03152 1.287558,1.09506 1.972037,0.42179 z m 5.302019,0.35044 c 0.367219,-0.13961 0.37512,-0.16322 0.162967,-0.487 -0.122625,-0.18715 -0.558138,-0.66002 -0.96782,-1.05081 l -0.74485,-0.71055 0.327425,-0.67393 0.327424,-0.67395 -0.350384,-0.29168 c -0.192711,-0.16044 -0.399165,-0.29385 -0.458785,-0.2965 -0.145135,-0.006 -0.13988,2.99295 0.0054,3.05446 0.06257,0.0264 0.333603,0.32458 0.602316,0.66243 0.537276,0.67551 0.542974,0.67793 1.09636,0.46753 z m -30.574297,-0.63239 c 0,-0.12284 -0.200621,-0.2244 -0.516036,-0.26122 l -0.516046,-0.0603 0.335379,0.25802 c 0.403918,0.31075 0.696703,0.33741 0.696703,0.0634 z M 58.16315,109.0619 c 0.11002,-0.17802 -0.444385,-0.64511 -0.629743,-0.53057 -0.107339,0.0663 -0.108559,0.18018 -0.0039,0.3755 0.155269,0.29013 0.498399,0.37409 0.633757,0.15507 z m -15.814323,-0.2863 c 0,-0.12928 -1.7233,-1.06901 -2.275469,-1.24086 -0.252613,-0.0786 -0.305829,-0.0528 -0.240792,0.11667 0.11473,0.29899 0.691596,0.65713 1.565217,0.97177 0.843174,0.30366 0.951044,0.32095 0.951044,0.15241 z m 17.343841,-0.21211 c 0,-0.3569 -0.743535,-0.82169 -1.314476,-0.82169 -0.231742,0 -0.153386,0.12078 0.375026,0.57813 0.768706,0.66531 0.93945,0.70958 0.93945,0.24356 z m -3.902363,-0.10374 c 0,-0.15748 -2.178197,-2.01875 -2.362488,-2.01875 -0.07923,0 -0.279256,-0.11389 -0.444499,-0.25294 l -0.300445,-0.25292 0.289054,0.35617 c 0.641838,0.79081 2.466645,2.42172 2.636663,2.35647 0.09995,-0.0384 0.181715,-0.12297 0.181715,-0.18803 z m 1.300788,-0.62888 c 0,-0.33866 -1.106467,-1.2229 -1.66023,-1.3268 -0.582283,-0.10929 -0.767296,-0.028 -0.481122,0.2113 1.538101,1.28606 2.141352,1.60031 2.141352,1.1155 z m 10.695368,-1.15068 c 0,-0.0274 -0.146337,-0.17376 -0.325195,-0.32519 l -0.325196,-0.27533 0.275333,0.32519 c 0.258737,0.30561 0.375058,0.39099 0.375058,0.27533 z m -2.594412,-1.04947 c -0.887666,-0.94891 -1.16342,-1.40997 -1.16342,-1.94524 0,-0.31926 0.492521,-0.39103 0.679349,-0.099 0.06357,0.0994 0.659503,0.70099 1.324298,1.33692 l 1.20872,1.15627 -0.10432,-0.63215 c -0.129179,-0.78277 0.07489,-0.95549 0.704735,-0.59644 0.890637,0.50773 2.456582,0.76857 5.754206,0.95845 1.294859,0.0745 1.404287,0.10422 1.445317,0.3922 0.07502,0.52639 0.334151,0.2638 0.322257,-0.32656 -0.0081,-0.40148 -0.158748,-0.75705 -0.541995,-1.27914 -0.291941,-0.39769 -0.530794,-0.85686 -0.530794,-1.02038 0,-0.40409 -0.29356,-0.55689 -0.507586,-0.26418 -0.2754,0.37664 -0.384171,0.28279 -0.35133,-0.30312 0.01671,-0.2981 -0.006,-0.63955 -0.05042,-0.75879 -0.04441,-0.1192 -0.120838,-0.51689 -0.169767,-0.88369 -0.05612,-0.42068 -0.29957,-0.99099 -0.659438,-1.544811 -0.550419,-0.847079 -0.607366,-0.889275 -1.620072,-1.20041 -1.423801,-0.437446 -1.699997,-0.750356 -1.699997,-1.925983 0,-1.124145 -0.272377,-1.805288 -1.057767,-2.645193 -0.778834,-0.832919 -1.531978,-1.205994 -3.72959,-1.847487 -3.397345,-0.99169 -3.717908,-1.103735 -4.48626,-1.567981 -0.596502,-0.360419 -0.763554,-0.538298 -0.736936,-0.78467 0.02191,-0.202947 -0.04479,-0.318589 -0.183757,-0.318589 -0.120019,0 -0.29065,-0.159023 -0.379205,-0.353384 -0.229987,-0.504762 -0.553648,-0.579917 -0.828641,-0.192404 -0.217151,0.306004 -0.565617,1.207469 -0.657931,1.70204 -0.06974,0.373644 -0.260774,0.785263 -0.486311,1.047859 -0.119475,0.13911 -0.174629,0.261063 -0.122553,0.270999 0.05206,0.0099 0.159705,0.03431 0.239198,0.05419 0.07949,0.01988 0.198451,0.04425 0.264358,0.05419 0.06589,0.0099 0.255121,0.327004 0.420502,0.70459 0.165365,0.37759 0.641328,1.467004 1.05769,2.420914 0.416356,0.95391 0.975085,2.111845 1.241611,2.573191 0.266539,0.461333 0.484608,0.906581 0.484608,0.989415 0,0.08285 0.09463,0.32326 0.210281,0.534254 0.583798,1.06504 1.816145,4.49584 1.813917,5.04987 -0.0011,0.32976 0.45845,0.89824 0.726486,0.89824 0.143213,0 0.282079,0.0488 0.308577,0.10845 0.07418,0.16689 1.23334,0.7588 1.485993,0.7588 0.123362,0 0.224302,0.0603 0.224302,0.13393 0,0.13957 0.314177,0.2542 0.775364,0.2829 0.191995,0.0121 0.01262,-0.25783 -0.623678,-0.93804 z m -3.247707,-5.984576 c -0.232543,-0.148617 -0.438906,-0.419765 -0.459429,-0.603707 -0.02048,-0.183651 -0.07751,-0.529024 -0.126695,-0.767504 -0.08595,-0.416746 -0.08043,-0.413969 0.142023,0.07125 0.127297,0.277645 0.348331,0.635372 0.491189,0.794919 0.215079,0.240219 0.516365,0.822079 0.406676,0.785402 -0.01737,-0.006 -0.221565,-0.131975 -0.453764,-0.280351 z m -2.287804,-2.839979 c 0.09936,-0.04009 0.261966,-0.04009 0.361326,0 0.09937,0.0401 0.01808,0.07294 -0.18066,0.07294 -0.198729,0 -0.28003,-0.03285 -0.180666,-0.07294 z m 2.493177,9.342675 c 0,-0.29801 -0.638581,-0.70729 -0.820191,-0.52568 -0.104766,0.10482 0.506319,0.81784 0.700854,0.81784 0.06564,0 0.119343,-0.13148 0.119343,-0.29216 z m -20.122107,-4.41331 c 0.521014,-0.36494 0.375397,-0.49768 -0.545973,-0.49768 -0.970371,0 -1.121288,0.19258 -0.397461,0.50719 0.592455,0.2575 0.561755,0.25781 0.943434,-0.01 z m 9.038774,-0.98047 0.514044,-0.62733 -0.296511,-0.492793 c -0.163086,-0.271039 -0.322339,-0.520691 -0.353884,-0.554796 -0.03157,-0.03406 -0.237417,0.07113 -0.457484,0.233819 -0.596902,0.44131 -1.571392,0.91239 -1.674369,0.8094 -0.04971,-0.0498 -0.236618,-0.0145 -0.41536,0.0781 -0.178737,0.0928 -0.581469,0.25526 -0.894965,0.36122 -0.3135,0.10592 -0.593334,0.26271 -0.621864,0.34829 -0.07507,0.22521 2.201717,0.13465 2.482954,-0.0988 0.184314,-0.15297 0.2753,-0.12135 0.548906,0.19074 0.180383,0.20576 0.401438,0.37529 0.491234,0.37672 0.08979,10e-4 0.39457,-0.27968 0.677299,-0.6247 z m -6.64847,0.019 c 0.173635,-0.0961 0.705929,-0.19159 1.182883,-0.21218 0.875577,-0.0378 2.213736,-0.3597 2.746118,-0.660597 0.158978,-0.08985 0.566106,-0.298491 0.90473,-0.463641 1.197501,-0.584009 4.085363,-3.400355 4.897284,-4.775986 0.281512,-0.476962 0.628863,-0.997273 0.771913,-1.156257 0.362145,-0.402509 1.029285,-1.72399 1.032813,-2.045808 0.0017,-0.146689 -0.06192,-0.518378 -0.141155,-0.825978 -0.120942,-0.469475 -0.09494,-0.655115 0.161991,-1.156257 0.168334,-0.328343 0.342095,-0.629502 0.38613,-0.669249 0.275972,-0.249047 0.585942,-1.06849 0.585942,-1.548976 0,-0.777333 -0.582627,-1.344114 -1.382333,-1.344741 -1.051775,-0.0011 -1.363772,0.03306 -1.363772,0.148037 0,0.06291 -0.174138,0.312833 -0.386984,0.555391 -0.330357,0.376483 -0.410282,0.409129 -0.546283,0.223126 -0.126604,-0.173127 -0.241996,-0.186438 -0.561891,-0.06482 -0.654698,0.248915 -0.770248,0.187127 -0.967482,-0.517294 l -0.187686,-0.670363 0.493183,-0.402508 c 0.601555,-0.490977 0.698278,-0.445685 0.273928,0.128273 -0.426809,0.577295 -0.269246,0.793741 0.488857,0.67152 0.749784,-0.120877 1.084397,-0.407998 0.8824,-0.757159 -0.185559,-0.320759 -0.05042,-1.365656 0.186762,-1.443728 0.09936,-0.03272 0.18066,0.03557 0.18066,0.15167 0,0.116131 0.09757,0.292114 0.216795,0.391075 0.119246,0.09896 0.216801,0.302041 0.216801,0.451289 0,0.218904 0.108559,0.271368 0.56151,0.271368 0.659808,0 0.966153,-0.355066 1.116265,-1.293812 0.052,-0.325327 0.15108,-0.626426 0.220129,-0.669101 0.06905,-0.04267 0.125546,-0.245337 0.125546,-0.450351 0,-0.372152 -0.0017,-0.372604 -0.935857,-0.276878 -0.514727,0.05271 -1.103319,0.05386 -1.307993,0.0028 -0.344987,-0.08659 -0.353153,-0.106602 -0.112,-0.274257 0.143076,-0.09946 0.487773,-0.229769 0.765996,-0.289558 0.278229,-0.05978 0.668468,-0.219055 0.867193,-0.353938 0.198729,-0.134885 0.658765,-0.355421 1.022303,-0.490086 0.990641,-0.366969 1.758825,-1.539963 1.396854,-2.132959 -0.149746,-0.245316 -0.137681,-0.323693 0.07402,-0.48088 0.261213,-0.19394 0.344343,-0.732774 0.13319,-0.86327 -0.180031,-0.111264 -1.871075,0.607268 -2.750093,1.168537 -0.547667,0.34969 -0.906759,0.481372 -1.227518,0.450142 -0.423606,-0.04124 -0.459932,-0.0902 -0.552891,-0.74514 -0.137143,-0.966339 -0.20837,-1.105662 -0.565222,-1.105662 -0.244262,0 -0.293529,-0.06474 -0.231064,-0.303609 0.04365,-0.166987 0.0054,-0.465907 -0.08492,-0.664266 -0.135292,-0.296937 -0.122832,-0.383864 0.07054,-0.492079 0.211626,-0.118437 0.213504,-0.174224 0.01901,-0.564153 -0.118727,-0.23799 -0.371405,-0.471752 -0.561493,-0.519458 -0.190089,-0.04769 -0.384848,-0.210359 -0.432804,-0.361445 -0.106723,-0.336252 -0.605581,-0.359064 -1.049682,-0.04802 -0.393572,0.275666 -0.320859,0.430525 0.256312,0.545961 0.240125,0.04802 0.436605,0.161569 0.436605,0.252314 0,0.100189 -0.14914,0.136483 -0.379695,0.09241 -0.208836,-0.03993 -0.79136,0.01355 -1.294511,0.118812 -0.503147,0.105273 -1.632377,0.258404 -2.509402,0.340289 -1.515839,0.14153 -2.464868,0.427571 -2.464868,0.742917 0,0.0792 0.194388,0.572712 0.431974,1.096699 0.237586,0.523992 0.396713,1.009777 0.353601,1.079529 -0.0431,0.06974 -0.310478,0.02983 -0.594165,-0.08869 -0.674575,-0.281855 -1.686219,-0.274169 -2.300841,0.01748 -0.270044,0.128148 -0.848976,0.619653 -1.286504,1.09223 -0.870141,0.939862 -1.104511,0.888387 -0.289628,-0.06361 0.59235,-0.692039 0.638902,-0.97255 0.161382,-0.97255 -0.222925,0 -0.371141,-0.102001 -0.420066,-0.289065 -0.04157,-0.158984 -0.147954,-0.289066 -0.236405,-0.289066 -0.1767,0 -0.06375,0.676568 0.160704,0.962723 0.08151,0.103908 0.07128,0.205088 -0.02687,0.26574 -0.280643,0.173449 -0.57822,-0.0525 -0.57822,-0.439053 0,-0.308186 -0.0586,-0.36698 -0.325195,-0.3263 -0.178868,0.02732 -0.309589,0.127427 -0.290508,0.222537 0.01907,0.09511 -0.09473,0.242186 -0.252925,0.32685 -0.158203,0.08466 -0.287634,0.277885 -0.287634,0.42938 0,0.483404 -0.236259,0.443571 -0.593012,-0.09998 -0.462581,-0.704772 -0.65397,-0.734542 -0.769319,-0.119669 -0.149501,0.79691 0.238778,2.360095 0.649228,2.613769 0.08716,0.05386 0.343015,-0.07887 0.568578,-0.294965 0.373015,-0.357372 0.851202,-0.397189 0.638591,-0.05315 -0.04884,0.07901 0.01988,0.263741 0.152729,0.410516 0.226263,0.25002 0.224855,0.272154 -0.02234,0.350609 -0.409538,0.129983 -0.659044,0.619467 -0.483224,0.94799 0.209099,0.390719 0.189325,0.439769 -0.177361,0.439772 -0.199827,7e-6 -0.484446,0.199579 -0.738268,0.517694 -0.487075,0.610454 -1.971707,3.69815 -1.971707,4.100719 0,0.153237 -0.06503,0.31881 -0.14453,0.367941 -0.07949,0.0491 -0.144531,0.207602 -0.144531,0.352157 0,0.144564 -0.102725,0.348096 -0.228283,0.452297 -0.189395,0.157186 -0.22017,0.474089 -0.180665,1.860477 0.04299,1.508019 0.08805,1.748571 0.46211,2.465954 0.227972,0.437215 0.536906,0.911278 0.686526,1.053494 0.290427,0.27604 0.366801,0.467457 0.127504,0.319565 -0.226158,-0.139765 -0.171329,0.06703 0.159793,0.602825 0.16738,0.270822 0.826894,0.944719 1.465584,1.497547 1.107473,0.958584 1.55432,1.522932 1.55432,1.963047 0,0.11014 -0.06503,0.200282 -0.144524,0.200282 -0.223095,0 -0.170958,0.620614 0.08253,0.982528 0.206094,0.29424 0.309588,0.31658 1.120128,0.24177 0.576256,-0.0531 1.149395,-0.01 1.615707,0.12363 0.9445,0.2693 1.044941,0.27404 1.418683,0.0671 z m 3.51926,-6.629569 c -0.29963,-0.34995 -0.301353,-0.422297 -0.01002,-0.422297 0.126837,0 0.403257,-0.121701 0.614257,-0.270455 0.503594,-0.355021 1.615789,-0.885798 1.856113,-0.885798 0.266485,0 0.236558,0.240138 -0.04332,0.347527 -0.160426,0.06157 -0.214397,0.215927 -0.173318,0.495783 0.05157,0.351454 0.01747,0.398329 -0.252254,0.346767 -0.171536,-0.03278 -0.635646,0.10444 -1.031348,0.30495 -0.709759,0.359671 -0.7227,0.360794 -0.960112,0.08357 z m -1.192679,-0.637978 c -0.134631,-0.205472 -0.194135,-0.469344 -0.138531,-0.614262 0.111227,-0.289862 0.06605,-0.418404 -0.124724,-0.354812 -0.127006,0.04233 -0.367846,-0.234309 -0.372359,-0.427698 -0.0011,-0.05217 0.127864,-0.06086 0.286848,-0.01929 0.229289,0.05996 0.288606,0.005 0.286847,-0.266463 -0.0011,-0.188133 -0.05968,-0.432831 -0.129938,-0.543783 -0.162508,-0.256639 -0.590505,-0.100889 -0.590505,0.214889 0,0.178169 -0.04726,0.199834 -0.18551,0.08507 -0.117604,-0.09761 -0.263103,-0.104887 -0.397467,-0.01994 -0.284975,0.180239 -1.295949,0.175514 -1.295949,-0.006 0,-0.07949 0.319175,-0.144529 0.70928,-0.144529 0.667553,0 0.747231,-0.04222 1.355085,-0.718319 0.355214,-0.395074 0.789552,-1.024057 0.965203,-1.39774 0.178661,-0.380078 0.362396,-0.609797 0.417045,-0.521385 0.194452,0.314632 1.407992,0.670297 2.314122,0.678223 l 0.9189,0.0081 -0.755179,0.342447 C 49.412098,90.071087 49.227957,90.103792 49.13647,89.955755 49.07266,89.85251 48.675734,89.679827 48.254419,89.572 l -0.766046,-0.196044 -0.4755,0.547176 c -0.380728,0.438113 -0.459828,0.633582 -0.396844,0.980766 0.04326,0.238476 0.14565,0.856354 0.227524,1.373052 0.08188,0.516706 0.243753,1.085796 0.359714,1.264658 0.185701,0.286417 0.184997,0.325196 -0.0059,0.325196 -0.119235,0 -0.323011,-0.162099 -0.452825,-0.360216 z m 2.325069,-2.69154 c -0.238475,-0.07495 -0.612447,-0.144296 -0.83105,-0.154107 -0.218605,-0.0098 -0.397467,-0.09895 -0.397467,-0.198079 0,-0.210956 1.283211,-0.354739 1.405142,-0.157445 0.0436,0.07054 0.39723,0.09059 0.785869,0.04458 l 0.7066,-0.08369 -0.421805,0.354934 c -0.454678,0.382581 -0.58313,0.40254 -1.247289,0.193819 z m 2.357688,-1.672001 c 0.104332,-0.04174 0.228993,-0.0366 0.277014,0.01147 0.04802,0.04802 -0.03737,0.08218 -0.189695,0.0759 -0.168369,-0.0069 -0.202626,-0.04118 -0.08732,-0.08731 z m 0.76019,-1.021391 c 0.0057,-0.05962 0.249642,-0.30352 0.541996,-0.541997 l 0.531562,-0.433596 -0.433595,0.531563 c -0.413062,0.506381 -0.662634,0.679547 -0.639963,0.44403 z m -4.027502,-2.122297 c -0.424572,-0.154078 -1.475151,-1.359254 -1.475151,-1.692218 0,-0.06281 0.27642,0.06652 0.614261,0.287405 0.337849,0.220883 0.959222,0.485748 1.380843,0.588587 0.877255,0.213983 1.073604,0.111578 1.711812,-0.892828 0.634715,-0.998901 0.933946,-1.937709 0.747814,-2.346232 -0.09084,-0.199368 -0.255073,-0.362492 -0.36496,-0.362492 -0.109887,0 -0.512684,-0.292677 -0.895116,-0.650393 -0.382428,-0.357714 -0.77784,-0.650395 -0.87869,-0.650395 -0.147819,0 -0.147961,-0.04267 -6e-4,-0.220063 0.221339,-0.266697 0.692458,-0.158947 1.035603,0.236848 0.223329,0.257596 0.254532,0.260809 0.37866,0.03901 0.115889,-0.207104 0.204728,-0.217506 0.62028,-0.07264 0.439104,0.153074 0.508347,0.138134 0.731578,-0.15781 0.135614,-0.179786 0.270705,-0.295337 0.300203,-0.256782 0.0295,0.03856 0.162546,0.244426 0.29567,0.457479 0.237783,0.380564 0.233834,0.394248 -0.22441,0.778097 -0.4559,0.38188 -0.605821,0.76191 -0.780358,1.978104 -0.05031,0.35045 -0.02048,0.541996 0.08437,0.541996 0.268156,0 -0.530313,1.410248 -1.148447,2.028383 -0.476329,0.476325 -0.664785,0.570277 -1.115191,0.555948 -0.298095,-0.0095 -0.756212,-0.09498 -1.01803,-0.190001 z m 1.842324,-6.303461 c -0.168509,-0.168506 -0.512339,-0.39597 -0.764068,-0.505479 l -0.457685,-0.199097 0.578125,0.0022 c 0.462854,0.0017 0.643482,0.08518 0.905916,0.417798 0.392754,0.497786 0.180846,0.727577 -0.262288,0.284438 z m 23.975017,19.999272 c -0.134473,-0.281824 -0.322694,-0.423062 -0.607269,-0.455693 -0.398183,-0.04565 -0.404721,-0.03635 -0.189664,0.270713 0.207647,0.296461 0.831664,0.713875 0.942528,0.630455 0.0271,-0.0204 -0.0384,-0.220846 -0.145595,-0.445475 z M 60.211312,99.540303 c -0.157892,-0.157892 -0.266154,0.09323 -0.152794,0.354358 0.107483,0.247649 0.115273,0.247419 0.175164,-0.0048 0.03447,-0.145332 0.02442,-0.3025 -0.0224,-0.349285 z m 10.662594,-1.843511 c -0.04578,-0.119198 -0.108763,-0.216802 -0.140002,-0.216802 -0.03124,0 -0.0568,0.09758 -0.0568,0.216802 0,0.119198 0.06299,0.216791 0.139995,0.216791 0.077,0 0.102556,-0.09758 0.05681,-0.216791 z M 70.596661,97.32618 c 0.158842,-0.155344 -0.617375,-1.034861 -0.808868,-0.916509 -0.06733,0.04166 -0.122418,0.33902 -0.122418,0.660915 0,0.565919 0.01316,0.582029 0.397467,0.487106 0.218605,-0.05398 0.458822,-0.15817 0.533819,-0.231512 z M 56.628577,90.289287 c 0.258591,-0.752105 0.272105,-0.935142 0.07427,-1.005147 -0.296643,-0.104959 -0.635123,0.585562 -0.534262,1.089883 0.119573,0.597869 0.232457,0.577071 0.459991,-0.08473 z M 35.603646,87.684782 c 0.132682,-0.339447 0.241246,-0.74595 0.241246,-0.903321 0,-0.157379 0.06503,-0.286138 0.14453,-0.286138 0.07949,0 0.144531,-0.125099 0.144531,-0.277994 0,-0.152899 0.227638,-0.576219 0.505861,-0.940713 0.386463,-0.506292 0.505865,-0.801373 0.505865,-1.250187 0,-0.480226 -0.04589,-0.57864 -0.251274,-0.539086 -0.1382,0.02661 -0.272695,0.177721 -0.298883,0.335793 -0.07419,0.447838 -0.432546,1.167386 -0.686264,1.377948 -0.397313,0.329741 -0.836153,1.345418 -0.808982,1.872365 0.01437,0.278221 -0.03802,0.726502 -0.116324,0.99617 -0.07833,0.269668 -0.104984,0.550863 -0.05925,0.624876 0.106095,0.171673 0.371366,-0.22282 0.678939,-1.009713 z m 0.383564,0.07519 c -0.0017,-0.262966 -0.02901,-0.283713 -0.142318,-0.108401 -0.181091,0.280218 -0.181091,0.433597 0,0.433597 0.07949,0 0.143535,-0.146339 0.142318,-0.325196 z m 0.214769,-3.424433 c 0.120985,-0.233965 0.162545,-0.460888 0.09235,-0.504272 -0.13928,-0.08608 -0.318322,0.100552 -0.579879,0.604467 -0.139193,0.268171 -0.130535,0.325201 0.04938,0.325201 0.119995,0 0.317161,-0.191427 0.438152,-0.425396 z m 2.244484,-6.801207 c 0,-0.238476 -0.06505,-0.433596 -0.144531,-0.433596 -0.07949,0 -0.149949,0.04878 -0.156575,0.108402 -0.0066,0.05962 -0.0283,0.254739 -0.04813,0.433597 -0.02136,0.192628 0.04244,0.325195 0.156574,0.325195 0.117688,0 0.192645,-0.168692 0.192645,-0.433597 z m 6.61162,0.07227 c 0.04988,-0.203456 -0.254292,-1.085249 -0.371814,-1.077973 -0.204258,0.01267 -1.205368,0.994181 -1.133168,1.111011 0.106662,0.172575 1.461892,0.142826 1.504982,-0.03305 z m -2.853787,-1.117151 c 0,-0.0846 -0.09184,-0.07054 -0.216801,0.03316 -0.119234,0.09896 -0.216795,0.202446 -0.216795,0.22996 0,0.02754 0.09757,0.01262 0.216795,-0.03316 0.119247,-0.04578 0.216801,-0.149239 0.216801,-0.22996 z m 5.347684,-1.094186 c 0,-0.0636 -0.07762,-0.193245 -0.172482,-0.28811 -0.133628,-0.133627 -0.08478,-0.26403 0.216799,-0.578814 0.450098,-0.469803 0.49552,-0.637756 0.136347,-0.50413 -0.533577,0.198517 -1.770513,1.153783 -1.770513,1.367339 0,0.06564 0.357715,0.119331 0.794926,0.119331 0.437208,0 0.794923,-0.052 0.794923,-0.115623 z m 1.159157,-0.39373 c 0.100552,-0.12116 0.157298,-0.241448 0.126094,-0.267303 -0.115176,-0.09546 -0.996186,0.211601 -0.996186,0.347194 0,0.223798 0.669031,0.162366 0.870092,-0.07989 z m 2.815477,-1.433819 c 0.445412,-0.378577 0.539183,-0.531239 0.408474,-0.665045 -0.131349,-0.134471 -0.33299,-0.03594 -0.893292,0.436516 -0.398012,0.335607 -0.756832,0.696649 -0.797374,0.802312 -0.122162,0.318329 0.627032,-0.01693 1.282192,-0.573783 z m -8.527396,-0.369355 c 0.143881,-0.158984 0.336913,-0.289063 0.428958,-0.289063 0.17705,0 0.9441,-0.740349 0.9441,-0.911233 0,-0.243975 -0.299898,-0.04607 -1.05232,0.694435 -0.444248,0.437209 -0.757011,0.794926 -0.695026,0.794926 0.06198,0 0.230408,-0.130076 0.374288,-0.289065 z m 7.44123,-0.156927 c 0.398656,-0.245297 0.724836,-0.505455 0.724836,-0.578129 0,-0.07268 0.162595,-0.132136 0.36133,-0.132136 0.353296,0 0.361326,-0.02409 0.361326,-1.083989 0,-0.596195 -0.05386,-1.083991 -0.119753,-1.083991 -0.17723,0 -1.470097,0.877396 -1.470097,0.997675 0,0.05679 -0.37703,0.347235 -0.837847,0.645453 -0.46081,0.298214 -0.917573,0.669877 -1.015015,0.825912 -0.172615,0.276392 -0.163399,0.277947 0.357452,0.06032 0.294048,-0.12286 0.888355,-0.514589 1.320689,-0.870508 0.671919,-0.553158 1.330973,-0.835295 1.330973,-0.569776 0,0.225626 -0.529459,0.83199 -0.888654,1.017739 -0.242023,0.125157 -0.412133,0.3309 -0.412133,0.498474 0,0.156944 -0.04878,0.277651 -0.108401,0.268237 -0.272857,-0.04308 -0.445356,0.03421 -0.521992,0.233916 -0.124613,0.324732 0.113884,0.265134 0.917286,-0.229197 z m -4.21244,-0.09872 c 0.92733,-0.671755 1.509121,-1.197235 1.421987,-1.284363 -0.167925,-0.16793 -2.12146,1.292901 -2.12146,1.586411 0,0.167255 0.127803,0.11206 0.699473,-0.302048 z m 10.284958,0.111118 c 0,-0.327612 -0.149877,-0.370435 -0.404688,-0.115623 -0.254809,0.254807 -0.211987,0.404691 0.115623,0.404691 0.192711,0 0.289066,-0.09636 0.289066,-0.289065 z M 57.0178,72.621893 c 0.05064,-0.08193 -0.0074,-0.106155 -0.135991,-0.05681 -0.25039,0.09608 -0.296206,0.19968 -0.0883,0.19968 0.0748,0 0.175733,-0.0643 0.224295,-0.142877 z m -4.262669,-1.10098 c 0,-0.370052 0.136216,-0.693116 0.469732,-1.11404 0.573259,-0.723508 0.860501,-1.255404 0.677955,-1.255404 -0.07478,0 -0.241103,0.122491 -0.369623,0.272202 -0.128513,0.149711 -0.453709,0.509596 -0.722655,0.799744 -0.403923,0.43576 -0.489004,0.639861 -0.489004,1.173118 0,0.477491 0.05645,0.645577 0.216795,0.645577 0.152638,0 0.2168,-0.154265 0.2168,-0.521197 z m -2.992984,-0.820072 c 0.246212,0.109862 0.454682,0.03596 1.054173,-0.373701 0.729245,-0.498333 0.745423,-0.524761 0.670986,-1.095881 -0.04195,-0.321878 -0.143656,-0.629056 -0.226001,-0.682617 -0.100986,-0.0657 -0.09403,-0.164456 0.02136,-0.303491 0.133682,-0.161071 0.107967,-0.389505 -0.117688,-1.045368 -0.375945,-1.092696 -0.377756,-1.285642 -0.01002,-1.05595 0.153325,0.09576 0.347051,0.323944 0.430498,0.507088 0.20789,0.456285 0.405972,0.419548 0.992145,-0.184011 0.341429,-0.351561 0.454905,-0.56419 0.354616,-0.66448 -0.186056,-0.186058 -2.767317,-0.178459 -3.229089,0.0095 -0.189494,0.07713 -0.516891,0.17687 -0.727551,0.221638 -0.263218,0.05594 -0.432209,0.222495 -0.540271,0.532467 -0.08648,0.248089 -0.123296,0.505993 -0.08181,0.57312 0.04152,0.06712 -0.0057,0.251817 -0.104657,0.410421 -0.28309,0.453305 -0.02786,0.524063 0.656876,0.182093 0.345997,-0.172794 0.735778,-0.314172 0.866175,-0.314172 0.312365,0 0.304066,0.425028 -0.01283,0.656738 -0.231855,0.169539 -0.224022,0.204289 0.108401,0.480855 0.197076,0.163961 0.439616,0.300274 0.538982,0.302917 0.35973,0.0095 0.168877,0.556225 -0.348482,0.998142 -0.291033,0.248593 -0.604894,0.451987 -0.697463,0.451987 -0.09258,0 -0.322257,0.163862 -0.510407,0.364137 l -0.342087,0.364136 0.473594,-0.236261 c 0.339185,-0.169209 0.560696,-0.197394 0.780505,-0.09931 z m 3.268995,-1.912052 c 0.11328,-0.237506 0.299701,-0.501166 0.414286,-0.585913 0.114584,-0.08474 0.184997,-0.269037 0.156476,-0.409533 -0.04288,-0.21134 -0.157902,-0.157375 -0.666101,0.312549 -0.368734,0.340961 -0.614267,0.696649 -0.614267,0.889858 0,0.463613 0.452787,0.331557 0.709606,-0.206961 z m 3.687465,0.09209 c 0.09364,-0.151513 -0.573129,-1.083878 -1.187007,-1.659832 -0.480749,-0.451051 -0.753018,-0.40873 -0.753018,0.117049 0,0.23907 0.105104,0.36351 0.361326,0.427819 0.26396,0.06625 0.361336,0.187322 0.361336,0.449265 0,0.21014 0.08334,0.358577 0.201336,0.358577 0.110732,0 0.238772,0.09756 0.28452,0.216798 0.08975,0.233891 0.603565,0.297333 0.731507,0.09032 z M 45.462208,68.153757 c 0.16225,-0.07041 0.38283,-0.233841 0.490166,-0.363182 0.170712,-0.205686 0.160902,-0.222193 -0.0782,-0.131701 -0.546945,0.206999 -1.189094,0.64455 -1.27519,0.86889 -0.07881,0.205411 -0.05343,0.204552 0.240035,-0.0081 0.180502,-0.130829 0.46093,-0.295478 0.623188,-0.365887 z m 0.437982,61.040853 c -0.05315,-0.2118 -0.06414,-0.41762 -0.02436,-0.45737 0.03977,-0.0397 0.115768,0.10108 0.16892,0.31285 0.05315,0.21181 0.06414,0.41763 0.02436,0.45737 -0.03977,0.0397 -0.115768,-0.10108 -0.168927,-0.31285 z m 2.744037,-0.36202 c -0.313441,-0.39715 -0.66165,-0.70348 -0.773815,-0.68074 -0.112157,0.0227 -0.3449,0.29359 -0.517196,0.60186 -0.29111,0.52085 -0.621036,0.67872 -0.577011,0.27611 0.03676,-0.33635 0.787191,-1.48293 1.069374,-1.63395 0.237362,-0.12704 0.284533,-0.10603 0.284533,0.12683 0,0.15351 0.287482,0.52977 0.638843,0.83614 0.351367,0.30637 0.680949,0.70337 0.732396,0.88223 0.160896,0.55927 -0.246665,0.36504 -0.857124,-0.40848 z m 1.213527,-0.18736 c -0.349122,-0.78925 -0.27548,-1.18105 0.246633,-1.31209 0.302284,-0.0758 0.537976,0.0349 1.228365,0.5773 0.481672,0.37843 0.944678,0.63649 1.061502,0.59167 0.113968,-0.0437 0.299888,-0.29372 0.413149,-0.55554 0.269477,-0.62287 0.622275,-1.07817 0.742389,-0.95806 0.05261,0.0526 -0.02338,0.27557 -0.168851,0.49548 -0.145465,0.21992 -0.33145,0.63155 -0.413312,0.91473 -0.08187,0.28317 -0.255144,0.53534 -0.385056,0.56035 -0.129924,0.025 -0.625918,-0.25089 -1.10222,-0.61311 -0.47631,-0.36223 -0.962107,-0.6586 -1.079542,-0.6586 -0.286466,0 -0.39752,0.48775 -0.237831,1.04455 0.203821,0.7107 0.02502,0.65992 -0.305226,-0.0867 z m 20.051522,-0.90669 c -0.188483,-0.18849 -0.0985,-0.34024 0.201746,-0.34024 0.168194,0 0.275851,0.0757 0.243895,0.17162 -0.0704,0.21121 -0.311735,0.30253 -0.445641,0.16862 z m -9.611233,-0.85021 c -0.263238,-0.43496 -0.537987,-0.79082 -0.610554,-0.79082 -0.07256,0 -0.232821,0.19511 -0.356146,0.43359 -0.189367,0.36619 -0.505866,0.59469 -0.505866,0.36519 0,-0.0642 0.595301,-1.37514 0.686975,-1.51273 0.02327,-0.0349 0.14458,0.0825 0.269547,0.26084 0.124963,0.17841 0.383771,0.49969 0.575128,0.71394 0.316493,0.35437 0.364734,0.36796 0.534059,0.15049 0.152516,-0.1959 0.302541,-0.21661 0.830734,-0.11473 1.066955,0.20587 6.171484,0.17022 6.258294,-0.0437 0.09753,-0.24039 0.379069,0.14559 0.382167,0.52392 0.0022,0.23361 -0.06262,0.25485 -0.46752,0.15392 -0.258349,-0.0644 -1.916851,-0.12679 -3.685562,-0.13866 l -3.215843,-0.0216 v 0.40965 c 0,0.22532 -0.04878,0.40782 -0.108401,0.40557 -0.05961,-0.002 -0.323769,-0.35998 -0.587013,-0.79494 z m 12.054711,0.67352 c -0.388568,-0.0844 -0.401202,-0.10688 -0.168544,-0.29971 0.264281,-0.219 0.65805,-0.0891 0.772716,0.25487 0.06084,0.18253 0.03737,0.18428 -0.604172,0.0448 z m 3.672359,-0.18199 c -1.41e-4,-0.0499 0.09723,-0.17168 0.216473,-0.27063 0.172965,-0.14355 0.260633,-0.14355 0.433597,0 0.330194,0.27403 0.261436,0.39369 -0.216473,0.37672 -0.23829,-0.008 -0.433409,-0.0562 -0.433597,-0.10603 z m -1.644468,-0.51077 c -0.135937,-0.28507 -0.213386,-0.55209 -0.172107,-0.59337 0.0413,-0.0413 0.116071,0.0318 0.166196,0.16242 0.05014,0.13063 0.21425,0.23749 0.364728,0.23749 0.318303,0 0.338029,0.11993 0.07639,0.4643 -0.170068,0.22384 -0.211639,0.19798 -0.435203,-0.27084 z m 3.599829,-0.63649 c -0.04796,-0.12443 -0.02901,-0.38351 0.04211,-0.57575 l 0.129296,-0.34953 0.101529,0.31992 c 0.125406,0.3951 -0.133021,0.96831 -0.272923,0.60536 z m -48.561085,-0.9923 c -0.09873,-0.15974 0.129267,-0.33224 0.262726,-0.19876 0.137423,0.1374 0.111819,0.3333 -0.0436,0.3333 -0.0748,0 -0.173428,-0.0605 -0.219161,-0.13454 z m -1.306961,-0.52107 c -0.583665,-0.26726 -0.234619,-0.26766 0.380871,-4.4e-4 0.267477,0.11618 0.388753,0.20841 0.26952,0.20507 -0.119234,-0.004 -0.41192,-0.0954 -0.650391,-0.20463 z m 2.165708,-0.0708 c -0.134184,-0.21712 0.03856,-0.39873 0.473659,-0.4979 0.217686,-0.0496 0.493363,-0.16845 0.612601,-0.26406 0.362992,-0.29104 1.011722,-1.22494 1.011722,-1.45644 0,-0.1198 0.06505,-0.2581 0.144536,-0.30723 0.180764,-0.11171 0.189902,0.51519 0.01409,0.96618 -0.07175,0.18402 -0.315641,0.53482 -0.541996,0.77952 -0.459489,0.49674 -1.575804,1.00452 -1.714609,0.77993 z m -5.274866,-1.94958 c -0.0999,-0.12041 -0.195245,-0.44289 -0.211868,-0.71671 -0.01661,-0.27383 -0.121708,-0.60772 -0.233522,-0.74198 -0.315702,-0.37909 -0.559411,-2.20807 -0.652741,-4.89865 -0.07361,-2.12179 -0.05102,-2.54579 0.165415,-3.10743 0.137854,-0.35773 0.251231,-0.82926 0.251952,-1.04787 5.47e-4,-0.2186 0.057,-0.39746 0.125094,-0.39746 0.06808,0 0.123789,-0.0985 0.123789,-0.21907 0,-0.35573 0.349778,-1.37078 0.472365,-1.37078 0.06211,0 0.176192,-0.14633 0.253526,-0.32519 0.07734,-0.17887 0.199516,-0.42276 0.271508,-0.542 0.072,-0.1192 0.214349,-0.50948 0.316331,-0.86719 0.285766,-1.00235 1.119543,-2.64949 1.654509,-3.26854 0.265204,-0.30688 0.556232,-0.85145 0.646715,-1.21015 0.196911,-0.78053 0.326763,-1.05073 0.538969,-1.12147 0.107399,-0.0357 0.09606,0.15509 -0.03507,0.59084 -0.251548,0.83584 -0.528388,1.36114 -1.334678,2.53256 -0.363118,0.52754 -0.817854,1.34405 -1.010532,1.81446 -0.306731,0.74883 -0.322726,0.87073 -0.128529,0.97941 0.121991,0.0682 0.188088,0.21201 0.146862,0.31943 -0.04845,0.12627 0.06863,0.2248 0.3312,0.27877 1.45337,0.29871 1.926499,0.3692 2.529463,0.37686 0.372902,0.005 0.71088,0.0618 0.751058,0.12683 0.09657,0.15625 -2.368912,0.0289 -2.690384,-0.13901 -0.264253,-0.138 -0.819863,0.11051 -0.851426,0.38076 -0.0094,0.0802 -0.03496,0.34101 -0.05688,0.57949 -0.02191,0.23849 -0.139472,0.77052 -0.261234,1.1823 -0.152538,0.51587 -0.222634,1.39232 -0.22541,2.81837 -0.0022,1.13833 -0.109923,3.07779 -0.239371,4.30992 -0.217763,2.07291 -0.213835,2.71814 0.0218,3.57717 0.07087,0.25835 0.02994,0.3252 -0.199032,0.3252 -0.15852,0 -0.369961,-0.0984 -0.469862,-0.21887 z m 7.111188,-1.31376 c 0.0384,-0.18562 0.161661,-0.26257 0.382035,-0.23852 0.556593,0.0607 1.035883,-0.36462 1.035883,-0.91931 0,-0.61784 0.22328,-0.63751 0.344708,-0.0303 0.108776,0.54389 -0.278561,1.05227 -0.896826,1.17707 -0.213037,0.043 -0.507752,0.12474 -0.654926,0.18166 -0.211,0.0816 -0.255596,0.0455 -0.210874,-0.17055 z m 35.779552,-0.86505 c -0.04462,-0.0446 -0.02321,-0.28297 0.04752,-0.52967 0.07075,-0.24669 0.118244,-0.82547 0.105551,-1.28618 -0.01671,-0.60602 0.04397,-0.91176 0.219478,-1.10568 0.133414,-0.14742 0.242567,-0.34144 0.242567,-0.43116 0,-0.0897 0.221845,-0.34013 0.492982,-0.55648 0.778445,-0.62114 1.53047,-0.54594 1.53047,0.15303 0,0.40144 0.260157,0.6616 0.6616,0.6616 0.48678,0 0.674525,0.31883 0.410079,0.69637 -0.121484,0.17345 -0.309338,0.31535 -0.417438,0.31535 -0.108099,0 -0.218237,0.0576 -0.244736,0.12802 -0.134539,0.3575 -2.882831,2.12004 -3.04807,1.9548 z m 1.466507,-1.43382 c 0.349035,-0.27745 0.576674,-0.50545 0.505867,-0.50667 -0.07081,-10e-4 -0.216271,-0.0577 -0.32324,-0.12549 -0.155325,-0.0984 -0.118933,-0.24299 0.180666,-0.71757 0.395068,-0.62583 0.47823,-1.09742 0.22152,-1.25607 -0.405506,-0.25063 -1.351061,1.23976 -1.49363,2.35426 -0.118413,0.92574 0.01442,0.9625 0.908817,0.25154 z M 32.556789,118.2723 c -0.295299,-0.29733 -0.209061,-0.51093 0.289055,-0.71595 0.548257,-0.22565 0.909768,-0.59992 1.197522,-1.23978 0.17894,-0.39788 0.178602,-0.52472 -0.0028,-0.95829 -0.345452,-0.82679 -1.606828,-1.69056 -2.468737,-1.69056 -0.726267,0 -0.43424,-0.25449 0.492735,-0.4294 1.07936,-0.20366 1.328521,-0.33773 1.61029,-0.86649 0.179927,-0.33763 0.148795,-0.39337 -0.590652,-1.05755 -0.429325,-0.38561 -0.9608,-0.73769 -1.181059,-0.78236 -0.220264,-0.0447 -0.435481,-0.13788 -0.478264,-0.2071 -0.04278,-0.0692 -0.252805,-0.12687 -0.466721,-0.12808 -0.213912,-0.001 -0.486491,-0.0652 -0.605729,-0.14232 -0.176253,-0.11389 -0.157576,-0.14052 0.09986,-0.14233 0.41728,-0.002 0.511822,-0.18418 0.33652,-0.64525 -0.226016,-0.59447 0.05447,-0.91246 0.760431,-0.86217 1.276147,0.0909 1.693824,0.21721 1.693824,0.51225 0,0.47513 -0.476827,0.86029 -1.010045,0.81584 -0.261851,-0.0217 -0.500143,0.0275 -0.529536,0.10966 -0.06315,0.17638 1.454019,1.07922 1.81357,1.07922 0.136391,0 0.471994,0.17132 0.745785,0.3807 0.273798,0.20937 0.367734,0.33463 0.208749,0.27836 -0.542996,-0.19223 -0.578727,-0.16077 -0.529088,0.46597 0.04512,0.56968 2.89e-4,0.66376 -0.561618,1.17735 l -0.610656,0.55819 0.596196,0.39455 c 0.534409,0.35366 0.640384,0.37624 1.02262,0.21791 0.544831,-0.22568 0.871431,-0.0562 0.454491,0.23583 -0.164824,0.11545 -0.29968,0.28396 -0.29968,0.37446 0,0.25654 0.749243,0.97531 1.01665,0.97531 0.268592,0 0.862264,0.46559 0.862264,0.67624 0,0.075 -0.601615,0.4346 -1.336917,0.79897 -1.010936,0.50097 -1.448197,0.64506 -1.793277,0.59093 -0.346047,-0.0543 -0.468317,-0.0136 -0.505861,0.16813 -0.03977,0.19247 -0.08512,0.20386 -0.230173,0.0579 z m 2.621296,-1.34 c 0.281676,-0.0528 0.554626,-0.16484 0.606571,-0.24888 0.14608,-0.23636 -0.266779,-0.55953 -0.831992,-0.65125 -0.501316,-0.0814 -0.512361,-0.0725 -0.590013,0.47457 -0.04354,0.30661 -0.12765,0.68756 -0.186958,0.84654 -0.103027,0.27622 -0.09453,0.27543 0.191219,-0.0179 0.16448,-0.16885 0.529504,-0.35022 0.811173,-0.40305 z m -3.130195,-7.93552 c -0.03119,-0.094 -0.234095,-0.23357 -0.450884,-0.31018 -0.302111,-0.10676 -0.425408,-0.0898 -0.527975,0.0722 -0.219864,0.34763 -0.157624,0.54957 0.186969,0.60664 0.410753,0.068 0.866444,-0.14416 0.79189,-0.36873 z m 3.21887,5.68266 c 0,-0.0795 0.06887,-0.14453 0.153063,-0.14453 0.08419,0 0.112857,0.0651 0.06374,0.14453 -0.0491,0.0795 -0.118014,0.14453 -0.153062,0.14453 -0.03507,0 -0.06374,-0.065 -0.06374,-0.14453 z m 0.539156,-0.0872 c -0.05124,-0.0512 0.03414,-0.34268 0.189701,-0.64764 0.48082,-0.9425 0.443861,-1.03043 -0.805744,-1.91712 -0.611371,-0.4338 -0.293107,-0.44187 0.463002,-0.0121 0.874605,0.49755 1.061919,0.72657 1.048644,1.2821 -0.01682,0.70362 -0.617796,1.57222 -0.895603,1.29441 z m 44.621156,-1.07871 c -0.05239,-0.0848 -0.06056,-0.18886 -0.01814,-0.23128 0.103522,-0.1035 0.38541,0.0789 0.38541,0.24942 0,0.18471 -0.249516,0.17238 -0.367269,-0.0181 z M 36.667973,111.8199 c -0.334695,-0.36984 -0.326988,-1.04283 0.01196,-1.04283 0.475047,0 0.919404,0.43088 0.871469,0.84504 -0.05515,0.47652 -0.534119,0.58377 -0.883415,0.19779 z m 0.549971,-0.32017 c 0.164907,-0.26683 -0.07076,-0.44458 -0.374151,-0.28221 -0.156384,0.0837 -0.246162,0.21396 -0.199495,0.28946 0.111444,0.18033 0.46044,0.17591 0.573646,-0.007 z m -2.581417,-0.99174 c -0.20982,-0.1273 -0.38149,-0.28514 -0.38149,-0.35072 0,-0.0656 0.144552,-0.018 0.321225,0.10579 0.176673,0.12375 0.371787,0.22499 0.433596,0.22499 0.215178,0 0.110623,-0.4202 -0.139357,-0.56011 -0.138451,-0.0774 -0.203232,-0.18936 -0.143961,-0.24864 0.130086,-0.13008 0.829286,0.4979 0.829286,0.74481 0,0.28581 -0.509876,0.33236 -0.919299,0.0839 z m 3.983374,-0.33796 c -0.269137,-0.26914 -0.205536,-0.42937 0.150282,-0.37861 0.17805,0.0254 0.345419,0.16001 0.37193,0.29912 0.05526,0.28993 -0.263295,0.33842 -0.522212,0.0795 z m -0.317969,-0.91054 c 0,-0.19874 0.05602,-0.36134 0.124494,-0.36134 0.06846,0 0.0934,0.1626 0.05541,0.36134 -0.03797,0.19872 -0.09401,0.36132 -0.124486,0.36132 -0.03048,0 -0.05542,-0.1626 -0.05542,-0.36132 z m -9.915761,-0.85499 c -0.04315,-0.11256 -0.05739,-0.38895 -0.03157,-0.61426 0.03589,-0.31341 0.131818,-0.41983 0.408233,-0.45289 0.758486,-0.0907 0.820612,-0.17521 0.385804,-0.52464 -0.311824,-0.2506 -0.397767,-0.42842 -0.361338,-0.74767 0.04648,-0.40754 0.07413,-0.42081 1.02195,-0.49112 1.009199,-0.0749 1.121565,-0.0185 1.121565,0.56269 0,0.3761 -0.542374,0.88262 -0.945085,0.88262 -0.316869,0 -0.355703,0.0613 -0.355703,0.56151 0,0.43731 -0.07879,0.61313 -0.356247,0.79493 -0.439337,0.28786 -0.783891,0.29906 -0.887584,0.0289 z m 0.743681,-0.6384 c -0.32108,-0.0653 -0.657704,0.23704 -0.556766,0.50006 0.06694,0.17446 0.147933,0.15245 0.437654,-0.11896 0.29518,-0.27652 0.315391,-0.34119 0.119114,-0.3811 z m 0.836067,-1.52766 c 0.106397,-0.27727 -0.02332,-0.37545 -0.495995,-0.37545 -0.423054,0 -0.63981,0.19168 -0.490303,0.43359 0.13486,0.21821 0.897504,0.17326 0.986298,-0.0581 z m 0.675814,-0.16719 c 0,-0.11461 -0.06503,-0.20826 -0.144529,-0.20826 -0.0795,0 -0.14453,0.1339 -0.14453,0.29758 0,0.16368 0.06503,0.25739 0.14453,0.20828 0.07949,-0.0492 0.144529,-0.18305 0.144529,-0.2976 z m 4.929896,2.15347 c -0.139717,-0.30664 -0.137347,-0.40771 0.01171,-0.49984 0.230757,-0.14262 0.341584,-0.026 0.462428,0.48674 0.124924,0.53004 -0.234107,0.53995 -0.474151,0.0132 z m -3.19042,-1.05145 c -0.214348,-0.40051 -0.186106,-0.65508 0.113763,-1.0254 0.242885,-0.29996 0.2959,-0.30964 0.680912,-0.12442 0.53597,0.25785 0.755902,1.07109 0.348603,1.28907 -0.431275,0.23081 -0.981066,0.16384 -1.143279,-0.13925 z m 1.107542,-0.24882 c 0.111916,-0.29164 -0.451704,-0.79511 -0.758365,-0.67743 -0.212512,0.0815 -0.290192,0.64358 -0.113376,0.8204 0.189208,0.1892 0.781542,0.092 0.871741,-0.14297 z m 2.531338,-7.339019 c -0.242049,-0.531247 -0.21916,-0.642534 0.05239,-0.254833 0.125182,0.178725 0.204018,0.395684 0.175203,0.482154 -0.02884,0.08647 -0.131244,-0.01582 -0.227605,-0.227321 z m -0.29691,-0.949056 c 0,-0.198723 0.03284,-0.280024 0.07289,-0.180668 0.0401,0.09939 0.0401,0.261969 0,0.361337 -0.04009,0.09939 -0.07289,0.01812 -0.07289,-0.180669 z m -0.43294,-1.090184 c -0.242164,-0.531476 -0.195961,-0.644865 0.06589,-0.161684 0.12228,0.225619 0.195278,0.437276 0.162223,0.470331 -0.03305,0.03309 -0.135703,-0.105793 -0.228108,-0.308647 z m -0.87183,-1.781134 c -0.560952,-1.078217 -0.777283,-1.882205 -0.452437,-1.681441 0.07949,0.04915 0.144536,0.201151 0.144536,0.337812 0,0.136661 0.229431,0.727217 0.509849,1.31235 0.280418,0.585133 0.48401,1.089725 0.452431,1.121306 -0.03157,0.03152 -0.326049,-0.458942 -0.654379,-1.090027 z"
           id="path977-6" />
        <g
           aria-label="SUMA    EMPA"
           id="text102"
           style="font-style:normal;font-weight:normal;font-size:62.8348px;line-height:1.25;font-family:sans-serif;letter-spacing:0px;word-spacing:0px;fill:#0d0d0d;fill-opacity:1;stroke:none;stroke-width:1.57087">
          <path
             d="m -110.7003,82.194511 -4.32603,3.466959 q -1.71814,-1.779501 -3.12947,-2.638571 -1.38064,-0.88975 -4.01922,-0.88975 -2.88401,0 -4.6942,1.319285 -1.7795,1.288604 -1.7795,3.344235 0,1.779501 1.56474,3.160149 1.56473,1.349966 5.3385,2.976062 3.77377,1.595415 5.86008,3.006744 2.11699,1.380647 3.46696,3.068105 1.34997,1.687461 1.99427,3.559001 0.67498,1.87155 0.67498,3.95786 0,4.87829 -3.559,8.31456 -3.52832,3.43628 -8.56001,3.43628 -4.90897,0 -8.68274,-2.66925 -3.74309,-2.69993 -5.76804,-8.06912 l 5.3385,-1.50337 q 2.9147,6.59643 8.92819,6.59643 2.9147,0 4.84761,-1.74882 1.9329,-1.74882 1.9329,-4.41807 0,-1.59542 -1.01247,-3.19083 -1.01248,-1.6261 -2.51585,-2.66926 -1.50337,-1.043152 -4.81692,-2.362437 -3.28288,-1.349967 -5.06238,-2.454485 -1.74882,-1.135199 -3.03742,-2.669252 -1.28861,-1.564733 -1.90223,-3.098786 -0.58294,-1.534053 -0.58294,-3.282873 0,-4.203305 3.37492,-7.148686 3.37491,-2.976062 8.19184,-2.976062 3.19083,0 6.4737,1.380647 3.28287,1.380648 5.46123,4.203305 z"
             style="font-style:normal;font-variant:normal;font-weight:normal;font-stretch:normal;font-family:'Tw Cen MT';-inkscape-font-specification:'Tw Cen MT';stroke-width:1.57087;fill:#0d0d0d;fill-opacity:1"
             id="path937" />
          <path
             d="m -103.33685,77.929844 h 5.338506 v 24.023266 q 0,5.3385 2.546528,8.2532 2.577209,2.9147 7.27141,2.9147 4.66352,0 7.240729,-2.66925 2.60789,-2.69993 2.60789,-7.57822 V 77.929844 h 5.338503 v 24.575526 q 0,7.17937 -4.111261,11.47471 -4.08058,4.29535 -10.891775,4.29535 -6.964599,0 -11.167904,-4.35671 -4.172626,-4.35671 -4.172626,-12.85536 z"
             style="font-style:normal;font-variant:normal;font-weight:normal;font-stretch:normal;font-family:'Tw Cen MT';-inkscape-font-specification:'Tw Cen MT';stroke-width:1.57087;fill:#0d0d0d;fill-opacity:1"
             id="path939" />
          <path
             d="M -32.954507,76.242386 -22.2775,116.95615 h -5.215779 l -6.473703,-24.882339 -11.137223,26.385709 -11.167904,-26.569796 -6.535065,25.066426 h -5.215779 l 10.677007,-40.713764 12.241741,29.147004 z"
             style="font-style:normal;font-variant:normal;font-weight:normal;font-stretch:normal;font-family:'Tw Cen MT';-inkscape-font-specification:'Tw Cen MT';stroke-width:1.57087;fill:#0d0d0d;fill-opacity:1"
             id="path941" />
          <path
             d="M -2.1814135,76.36511 16.288582,116.95615 H 10.70463 L 6.1331524,106.95412 H -10.465298 l -4.448753,10.00203 h -5.553271 z m 0,12.241741 -6.2896163,13.898519 H 4.1082028 Z"
             style="font-style:normal;font-variant:normal;font-weight:normal;font-stretch:normal;font-family:'Tw Cen MT';-inkscape-font-specification:'Tw Cen MT';stroke-width:1.57087;fill:#0d0d0d;fill-opacity:1"
             id="path943" />
          <path
             d="m 90.107207,77.868482 h 21.660823 v 5.338504 H 95.384349 v 9.756575 h 16.383681 v 5.277142 H 95.384349 V 111.679 h 16.383681 v 5.27715 H 90.107207 Z"
             style="font-style:normal;font-variant:normal;font-weight:normal;font-stretch:normal;font-family:'Tw Cen MT';-inkscape-font-specification:'Tw Cen MT';stroke-width:1.57087;fill:#0d0d0d;fill-opacity:1"
             id="path945" />
          <path
             d="m 150.30344,76.242386 10.677,40.713764 h -5.21578 l -6.4737,-24.882339 -11.13722,26.385709 -11.16791,-26.569796 -6.53506,25.066426 h -5.21578 L 125.912,76.242386 138.15374,105.38939 Z"
             style="font-style:normal;font-variant:normal;font-weight:normal;font-stretch:normal;font-family:'Tw Cen MT';-inkscape-font-specification:'Tw Cen MT';stroke-width:1.57087;fill:#0d0d0d;fill-opacity:1"
             id="path947" />
          <path
             d="m 167.76094,77.868482 h 7.85435 q 6.65779,0 10.73837,3.129468 4.08058,3.129467 4.08058,8.130479 0,5.031693 -4.32603,8.43729 -4.29534,3.405601 -13.07013,3.313551 v 16.07688 h -5.27714 z m 5.27714,4.66352 v 13.683751 q 6.01349,-0.06136 8.89751,-1.687458 2.9147,-1.656777 2.9147,-5.277141 0,-2.730614 -2.20904,-4.724883 -2.17835,-1.994269 -9.60317,-1.994269 z"
             style="font-style:normal;font-variant:normal;font-weight:normal;font-stretch:normal;font-family:'Tw Cen MT';-inkscape-font-specification:'Tw Cen MT';stroke-width:1.57087;fill:#0d0d0d;fill-opacity:1"
             id="path949" />
          <path
             d="m 207.46226,76.36511 18.47,40.59104 h -5.58395 l -4.57148,-10.00203 h -16.59845 l -4.44875,10.00203 h -5.55328 z m 0,12.241741 -6.28961,13.898519 h 12.57923 z"
             style="font-style:normal;font-variant:normal;font-weight:normal;font-stretch:normal;font-family:'Tw Cen MT';-inkscape-font-specification:'Tw Cen MT';stroke-width:1.57087;fill:#0d0d0d;fill-opacity:1"
             id="path951" />
        </g>
      </g>
    </g>
  </g>
</svg>
