<?xml version="1.0" encoding="UTF-8" standalone="no"?>
<svg
   xmlns:dc="http://purl.org/dc/elements/1.1/"
   xmlns:cc="http://creativecommons.org/ns#"
   xmlns:rdf="http://www.w3.org/1999/02/22-rdf-syntax-ns#"
   xmlns:svg="http://www.w3.org/2000/svg"
   xmlns="http://www.w3.org/2000/svg"
   xmlns:sodipodi="http://sodipodi.sourceforge.net/DTD/sodipodi-0.dtd"
   xmlns:inkscape="http://www.inkscape.org/namespaces/inkscape"
   width="104.10782mm"
   height="117.66739mm"
   viewBox="0 0 104.10782 117.66739"
   version="1.1"
   id="svg91"
   inkscape:version="1.0.1 (3bc2e81, 2020-09-07)"
   sodipodi:docname="logo.svg">
  <defs
     id="defs85" />
  <sodipodi:namedview
     id="base"
     pagecolor="#ffffff"
     bordercolor="#666666"
     borderopacity="1.0"
     inkscape:pageopacity="0.0"
     inkscape:pageshadow="2"
     inkscape:zoom="0.7"
     inkscape:cx="240.60521"
     inkscape:cy="505.73962"
     inkscape:document-units="mm"
     inkscape:current-layer="layer1"
     inkscape:document-rotation="0"
     showgrid="false"
     fit-margin-top="0"
     fit-margin-left="0"
     fit-margin-right="0"
     fit-margin-bottom="0"
     inkscape:window-width="1918"
     inkscape:window-height="1047"
     inkscape:window-x="0"
     inkscape:window-y="31"
     inkscape:window-maximized="1" />
  <metadata
     id="metadata88">
    <rdf:RDF>
      <cc:Work
         rdf:about="">
        <dc:format>image/svg+xml</dc:format>
        <dc:type
           rdf:resource="http://purl.org/dc/dcmitype/StillImage" />
        <dc:title></dc:title>
      </cc:Work>
    </rdf:RDF>
  </metadata>
  <g
     inkscape:label="Layer 1"
     inkscape:groupmode="layer"
     id="layer1"
     transform="translate(110.28681,61.830413)">
    <path
       id="path977"
       style="fill:#000000;stroke-width:1"
       d="m -74.267547,55.478496 c -0.386894,-5.226675 -6.307641,2.893316 -6.895137,-3.562 -2.267528,-4.069134 3.444843,-8.306285 4.117997,-13.122276 2.116053,-6.179379 -2.81886,2.407796 -3.488625,4.170296 -3.113959,3.515331 -3.543776,8.015629 -2.029857,11.92735 -1.332464,-2.286077 -1.175032,-5.881293 -3.988428,-2.775892 -1.297315,-2.58718 -5.607474,3.185299 -3.412451,-1.341138 1.156266,-5.14633 2.967391,-9.038799 4.589731,-14.121797 2.278206,-5.718723 5.883354,-10.744025 7.868918,-16.617268 -3.246211,-3.080956 -9.044939,-5.807812 -13.655065,-8.305223 -2.039316,-1.666278 -7.971373,-2.4951791 -8.240233,-3.4129825 5.263451,1.1803772 10.21786,3.3975105 14.792951,6.1964455 4.930642,1.616755 -2.003083,-3.070267 -0.541326,-5.3118927 -0.32275,-1.6000681 -3.719263,-6.9355983 -1.915536,-6.7491188 0.932477,5.5514247 4.390462,11.0677075 10.585616,11.1919735 2.095987,0.171611 12.165914,2.358429 5.767001,-0.185072 -2.707587,0.339644 -5.568338,-4.5335164 -1.364031,-2.572981 2.502191,1.02732 9.466395,4.874525 5.057238,-0.32394 -0.121224,-5.5865173 5.190012,6.557932 8.747205,4.810266 -0.89734,-1.532952 -6.648629,-7.1204009 -3.742978,-7.2194516 1.853177,3.0288676 7.447232,3.6683886 9.698964,3.5729776 -2.542646,-3.0984808 0.215774,-4.3858059 1.525115,-0.664398 0.980837,2.565314 5.314251,4.776731 2.15426,0.52962 -1.948657,-5.9843422 4.517392,3.284938 6.77047,4.044737 2.217647,2.280989 4.916358,1.573742 1.195421,-0.418214 -3.942701,-2.072941 -3.580778,-5.6605969 -0.543053,-5.4098949 -3.505592,-7.0391048 -5.822248,-14.6454558 -9.522599,-21.5865261 -2.480313,4.3874817 -6.940223,8.0244522 -8.643078,12.49633748 1.031939,0.73336472 5.317501,-6.31364978 3.912759,-0.3538 -0.958815,2.37395862 0.02484,10.34261952 -2.965674,6.42156992 -3.862414,-2.0432642 -5.520199,-1.3178803 -9.402523,-0.370138 -4.232773,0.7566854 -11.711978,4.4134446 -13.45045,-1.3250646 -1.047174,-3.6218038 -0.14204,-6.5171608 -4.505983,-8.3934258 -3.965276,-3.6443846 -4.612911,-9.338419 -5.672106,-14.272725 -2.194833,-4.051605 -1.577216,6.913879 -0.949422,8.0180887 -2.738333,-5.2262267 -0.338549,-10.6270967 2.194158,-15.3229447 0.973571,-2.309627 3.351778,-5.651998 -0.2961,-2.248961 -5.148764,0.667323 -8.08553,7.382158 -13.577722,6.100087 4.913357,-0.783417 8.788149,-5.037303 13.560172,-6.903349 3.68731,-1.974055 5.017609,-6.924941 5.28439,-10.165849 0.497402,-2.111818 3.43731,-4.797965 2.427619,-0.999151 2.396724,3.2655 0.362753,-4.03819 2.290486,-5.268101 2.559995,-6.486716 6.381318,-13.192097 13.393127,-15.591924 4.827026,-2.194439 11.100072,-3.180332 15.129202,1.141848 3.914479,2.602318 4.039401,8.430741 7.092252,10.883654 -1.428109,4.307627 1.224665,10.209477 -1.322644,14.744255 -2.127444,4.141221 -5.940225,8.33023 -1.174072,12.072496 1.314067,4.641066 6.905615,6.4039 11.298237,7.24888 5.393838,1.054382 9.137805,5.3621679 11.811016,9.8453004 2.395303,3.92182861 7.966863,3.78862807 7.740956,9.3647107 -0.01159,4.4788102 5.382649,6.9587069 3.915028,10.9831829 1.54615,2.0829 7.2458379,6.085903 1.246798,4.583761 0.895655,1.098612 7.0247405,6.918655 2.177379,3.080716 -3.593871,-3.093318 -5.482378,5.27674 -8.22746,7.280366 -1.464114,1.540118 8.8381927,-1.2067 3.809678,0.317769 -4.703192,-0.11002 -6.030307,4.68992 -0.286521,3.987601 2.678186,0.106848 2.635442,-0.789655 1.413776,-2.097051 5.2222124,-1.306242 0.391769,-3.293122 -0.409623,-5.805558 2.376322,2.29789 4.8369628,4.137806 6.7404529,0.592322 -2.0916818,4.149468 -3.2784117,8.799401 -8.9531419,9.973515 4.445651,4.343733 -4.08775,6.441136 -7.866596,5.898143 -2.257413,-2.250932 -1.280485,3.149759 1.599949,1.333989 4.508005,1.118208 -3.012063,1.393721 -3.798538,0.09932 -3.947631,2.432722 1.306095,-4.388375 2.196342,-6.004371 2.695622,-5.84045 6.182606,-11.236231 10.153633,-16.242571 -0.08274,-3.52897 -3.767791,-6.057509 -4.876586,-9.489397 -1.874476,-0.778374 -6.128126,-0.658099 -7.308302,-0.0749 3.505887,2.675798 7.339284,4.804985 5.219878,9.748479 1.00593,1.814052 -2.512826,4.351171 -2.163807,7.616121 -2.58155,0.1756 3.452982,-8.166812 -0.849934,-7.82038 -4.924747,5.164604 -10.023655,10.495642 -14.154285,16.460775 -1.657957,2.002205 -4.370476,9.261078 -4.44927,8.406022 1.069984,-5.394311 3.740102,-10.227505 7.437546,-14.344208 4.744834,-5.543752 -3.224565,1.431904 -4.481921,3.56192 -1.553144,1.700089 -2.363066,5.775902 -4.913935,3.710985 -3.01717,3.237138 -5.644804,10.640906 -4.27258,11.939353 -2.699843,-4.884199 -6.023542,6.206436 -7.651279,0.03461 1.465671,-2.008061 -0.625872,-5.377898 1.679631,-8.245177 2.329769,-7.056736 5.47892,-13.853366 7.692718,-20.926538 -2.778734,2.889574 -4.742354,8.3993 -6.308019,12.712105 -2.173891,4.012197 -2.026059,11.985615 -6.222737,13.465701 -0.251688,-1.836255 -3.859532,0.594755 -1.707344,-3.26591 1.97455,-7.353874 5.034969,-14.384771 7.247001,-21.63557 -2.393455,2.419792 -4.366849,8.535841 -5.650406,12.757857 -1.864333,3.673748 -2.002835,10.655358 -5.963201,11.905418 0.188109,-6.89547 3.837415,-13.032486 5.528185,-19.601989 -2.964868,2.130643 -4.509096,8.640148 -6.314933,12.62357 -0.540625,2.005265 -4.409817,10.949877 -4.020345,5.026743 2.393473,-6.478339 4.774337,-12.969991 7.567931,-19.296425 -2.21748,0.644627 -4.792459,8.368617 -6.588304,11.876213 -0.859463,4.927436 -5.690472,9.673132 -5.434276,13.884278 4.222181,-3.244464 0.884116,2.110128 -0.45875,1.123824 z m -3.360092,-1.67246 c 0.403493,-3.790117 2.456859,-9.378501 2.848251,-13.254173 -1.875077,3.395174 -3.83098,8.217316 -6.238375,10.052389 0.832688,1.249893 1.107813,5.130237 3.390124,3.201784 z m 26.281552,-1.56 c 3.256226,-5.054389 -4.061072,2.483857 0,0 z m -22.90854,-1.22849 c 0.0633,-1.93427 -1.204189,1.492392 0,0 z m -13.207081,-0.29691 c 2.20769,-2.074203 1.128487,-5.033866 -0.657862,-1.166489 -0.485201,0.442832 -0.118173,1.934636 0.657862,1.166489 z m 70.265892,-8.39925 c 3.655175,-0.994887 2.869197,-3.394145 -0.506542,-3.390703 -1.760105,-3.756728 -6.0823,1.54942 -0.763086,1.476187 5.339783,-0.202314 -4.784698,3.107574 0.125704,2.185135 l 1.143924,-0.270609 z m -3.263871,-1.0298 c -1.066875,-3.770017 -4.141076,2.288592 0,0 z m -25.08477,-1.38435 c 1.984815,-2.23928 1.134432,-5.080166 -0.382705,-0.704276 l -0.405222,1.159508 c -0.390223,0.772569 1.674258,-0.479155 0.787927,-0.455232 z m 28.594209,-2.477862 c 2.683673,-1.733791 -3.501776,0.548731 0,3.2e-5 z m -53.86479,-0.963915 c 0.264409,-1.819994 -1.375263,1.48603 -2.1e-5,0 z m 31.63979,-1.740945 c 1.504348,-3.921013 -3.613739,4.834187 -0.233727,0.491026 z m -4.219379,0.948373 c 1.113323,-2.919349 -1.603626,2.355044 0,0 z m -34.50345,-1.016379 c -1.482073,-1.305632 -0.420087,3.416692 0,0 z m 59.50831,1.159974 c -0.322229,-2.910973 -3.073266,1.618079 0,0 z m -50.79602,-2.883731 c 2.140471,-5.086138 5.501592,-9.64824 7.727804,-14.606764 -4.005936,-1.456851 -3.96698,6.105368 -6.21338,9.10186 -0.915597,1.354557 -5.003945,11.655848 -1.514424,5.504904 z m 27.406571,-0.208942 c 2.369065,-5.640419 -4.079095,6.003108 0,0 z m 32.1050127,1.001395 c 0.7923873,-2.024321 -2.7482567,1.924808 0,0 z m -67.3364637,-0.08759 c 1.355561,-4.571071 8.257514,-9.374038 7.27058,-13.207373 -2.932069,2.140128 -5.03134,6.255482 -6.287757,9.690618 -0.465577,0.482047 -2.771634,4.842599 -0.982823,3.516755 z m 30.95625,-0.472803 c -0.543459,-1.532668 -0.621789,2.320192 0,0 z m -12.178941,-0.894812 c -0.922864,0.192375 -0.257075,1.707232 0,0 z m 23.97084,-1.32292 c 3.055603,-2.512965 6.369424,-4.995614 8.62089,-8.35538 -1.960458,-4.363862 -5.975983,-6.673777 -10.336063,-8.095146 -2.544123,-2.152915 -4.136042,1.200872 -0.686008,2.144905 3.477956,2.500166 9.421304,4.744403 4.354654,9.218591 -0.107977,0.944481 -5.327416,8.212105 -1.953473,5.08703 z m -20.24653,-6.46943 c 1.453646,-2.170696 2.312684,-5.8675 -0.254571,-1.702835 -1.461804,2.368746 -3.28858,9.05907 -0.409883,3.045 l 0.319319,-0.640047 z m 13.7429,2.735207 c 0.912112,-1.759449 7.874142,-8.953093 2.53672,-6.730324 -0.813664,1.967721 -5.340471,7.518009 -3.318658,7.736046 l 0.356634,-0.430132 z m 2.07028,0.622332 c -1.002484,-1.698682 -1.204128,1.838408 0,0 z m -4.687491,-3.9829 c 2.65674,-6.250378 -3.291239,2.850536 -1.75065,2.596877 0.651317,-0.817216 1.205912,-1.706851 1.75065,-2.596877 z m -14.668457,0.546354 c 2.040362,-1.662875 2.654774,-6.810906 0.355854,-2.388772 -0.621294,0.707305 -2.191573,5.277222 -0.355854,2.388772 z m -3.690163,0.396875 c 2.329922,-4.198966 -2.652523,2.021611 0,0 z m 26.674771,-0.279628 c -0.858266,0.01262 -0.777263,0.998214 0,0 z m -38.781958,-2.803998 c -0.174187,-3.940253 -3.097966,2.266867 0,0 z m 14.267029,0.01569 c 2.04833,-4.714267 -2.425575,0.513492 0,0 z m 35.488139,-0.321116 c -1.093633,-1.509962 -0.574026,1.917877 0,0 z m -8.466669,-0.0064 c -0.753528,-1.08052 -0.828792,1.375975 0,0 z m -7.836969,-1.929173 c 2.244756,-2.330017 -4.381784,-1.769983 -0.91766,0.712098 l 0.372726,-0.187016 0.544934,-0.525081 z m 19.440509,-0.149553 c 0.371992,-2.659043 -5.436218,-5.363956 -7.63479,-5.977853 2.094615,1.887908 4.286077,8.405515 7.63479,5.977853 z m 9.705991,0.641543 c 1.192859,-2.044313 -4.777281,-3.597975 -1.824858,-6.199034 -2.361499,-5.1349183 -2.322571,8.038567 1.824858,6.199034 z M -67.221087,18.80522 c -1.729381,-1.343959 -2.49426,0.0057 -0.0953,0.273421 z m 19.689609,-0.390464 c -1.248768,-2.773728 -2.021815,0.893615 0,0 z m -28.95002,-0.524115 c -1.271262,-1.520629 -7.191854,-3.370002 -2.833871,-0.722976 0.715087,0.01101 2.243766,1.356575 2.833871,0.722976 z m 31.75,-0.388284 c -1.009698,-2.217265 -4.487588,-1.591868 -0.857405,0.257574 0.166391,0.48359 1.144893,0.364665 0.857405,-0.257574 z m -7.14375,-0.189879 c -1.706923,-2.244652 -8.853837,-7.066533 -3.197902,-1.93702 0.843535,0.355834 2.283031,2.897594 3.197902,1.93702 z m 2.38125,-1.151255 c -0.871714,-2.752835 -6.66296,-3.158829 -2.119642,-0.604959 0.371821,0.125609 1.985122,1.758499 2.119642,0.604959 z m 19.579161,-2.106445 c -1.962934,-2.125589 -0.997473,-0.500384 0,0 z m -4.74939,-1.92119 c -2.937413,-1.706132 -2.160544,-6.4854011 0.662291,-2.1427756 1.714253,1.4113906 3.716661,4.6409866 3.021587,0.4776406 4.348128,2.135502 10.113944,1.142377 14.345701,2.710445 1.763794,-0.32986 -2.065173,-6.2926266 -2.946289,-5.8458545 0.735156,-5.4867636 -4.186676,-7.73498137 -7.568323,-10.211751 0.730342,-5.8604468 -5.007325,-9.0665325 -9.985246,-9.8926835 -4.165148,-0.856243 -8.094708,-2.517576 -10.21815,-6.003515 -2.234189,2.362278 -3.969782,5.943311 -1.093716,8.193332 2.821925,7.00688 7.038519,13.4822213 8.616669,20.949069 0.399541,1.165482 9.459172,5.702431 5.165476,1.766093 z M -40.609538,1.1780835 c -1.58224,-1.65698452 -1.334294,-4.425591 0.08619,-0.92453602 0.300892,0.0324431 1.561556,2.73387522 -0.08619,0.92453602 z m -4.188109,-5.198917 c 1.646438,-0.2624632 0.02054,0.4577884 0,0 z m 4.56406,17.1028885 c -2.568204,-3.5443481 -0.907854,1.970146 0,0 z m -36.83595,-8.0791145 c 1.779231,-1.9923619 -5.651455,-0.4226243 -0.718834,0.3690037 l 0.718834,-0.3689967 z m 16.546571,-1.794854 c 2.494646,-3.25370247 -2.432402,-2.66162769 -4.443819,-1.1825991 -2.818711,0.6238704 -4.35313,2.2969933 -0.400817,1.6410581 2.258237,-1.8424648 3.350915,2.215115 4.844636,-0.458459 z m -12.170831,0.03477 c 5.124017,-0.3746622 10.147878,-2.293787 13.595962,-6.2745536 3.120883,-3.7536027 8.30873,-7.9632209 7.152079,-13.3253599 2.839092,-2.97735 2.836684,-9.486217 -2.839911,-7.331511 -0.78222,3.351189 -6.919133,0.715458 -3.948909,-1.604473 1.822956,-1.872561 -1.444238,3.367315 2.279823,1.244077 1.30623,-0.852205 0.433415,-6.206915 2.198255,-1.989244 3.071311,2.499756 5.871744,-7.122528 0.580898,-4.354118 -3.685041,-1.265403 8.962638,-2.332663 6.048528,-7.051658 2.445466,-5.898787 -8.58859,5.486842 -7.909655,-1.42341 -2.300299,-1.64136 -0.344926,-7.531082 -5.015281,-6.367341 -1.367727,1.09559 3.436437,1.783312 -0.409447,1.639588 -3.411268,1.232165 -13.30176,-0.546268 -9.18579,5.498938 -1.39728,0.790398 -7.010545,-0.404017 -8.488419,3.498115 0.814605,0.43871 1.370222,-5.017082 -0.600199,-3.223125 1.234946,3.962296 -2.023995,-2.166299 -2.801895,1.95478 -0.556417,1.427649 -3.134402,-3.355048 -2.529339,0.895692 -0.431478,3.439791 2.239783,3.176425 3.43378,2.849733 0.825404,3.422482 -3.606905,5.275888 -4.751437,9.389947 -2.054468,4.217364 -3.852348,9.212883 -1.278027,13.6670618 0.964917,3.3673182 5.266037,5.6591329 6.899376,9.6086738 -2.086028,3.686743 5.816336,2.1946239 7.569608,2.6981879 z m 6.442429,-12.136236 c -0.649297,-1.8959135 7.556622,-4.3937695 3.645566,-0.711142 -1.237581,-0.3417704 -2.667826,1.8051099 -3.645566,0.711142 z m -2.183331,-1.1678875 c -1.165189,-2.519229 -0.09037,-2.064628 -0.645637,-4.29353 -1.03482,1.572914 -6.86091,0.661517 -1.646445,0.26165 2.569153,-2.606839 3.313783,-5.904764 7.322306,-3.42711 4.908309,-0.495733 -1.271273,2.19886 -2.876039,0.100152 -4.266951,-0.287706 -0.833518,7.28001 -1.73246,7.8245403 l -0.421734,-0.4657153 z m 4.256321,-4.927192 c -6.380613,-0.683551 4.714056,-1.854784 2.283301,-0.354804 -0.577726,0.692318 -1.518028,0.713191 -2.283301,0.354804 z m 4.316021,-3.060801 c 1.526737,-0.166864 -0.501878,0.466134 0,0 z m 1.391629,-1.869781 c 2.378368,-2.83214 2.24268,-1.148198 0,0 z m -7.37284,-3.885118 c -2.114943,-1.208718 -3.786778,-4.370689 -0.369564,-1.951908 4.625068,2.733276 8.429625,-6.443681 2.996613,-7.788291 -3.162063,-2.887675 3.515021,1.078084 4.524343,-1.51812 1.208786,2.393652 -1.912109,5.395143 -1.586415,8.307476 -1.157149,2.089014 -2.876055,4.253839 -5.564977,2.950843 z m 3.372601,-11.539249 c -3.776289,-1.398443 -0.681184,-2.110053 0.822526,0.05919 0.325472,0.706452 -0.904377,0.181282 -0.822526,-0.05919 z m 43.889171,36.6110865 c -3.833842,-3.3369803 0.454756,2.6019026 0,0 z M -43.782067,0.98438248 c -0.984735,-0.0606903 0.474096,1.97964582 0,0 z m 19.51917,-3.37477398 c -0.753092,-1.2817912 -0.0535,1.3241144 0,0 z m -0.507529,-0.678439 c -1.530179,-4.8783815 -3.121932,2.48267107 0,0 z M -50.340689,-15.95029 c 1.482342,-6.115614 -2.746137,3.477762 0,0 z m -38.488689,-4.767855 c 0.02613,-2.037875 4.645768,-7.910695 1.81575,-7.069212 -1.170914,2.4498 -4.138108,7.130602 -2.575498,8.651445 l 0.355325,-0.64152 z m 0.70216,0.137649 c -0.406017,-1.307708 -0.570043,1.777751 0,0 z m 0.39316,-6.268839 c 0.607427,-3.199055 -2.211695,2.629129 0,0 z m 4.10881,-12.450433 c -0.594199,-2.509462 -0.790539,2.542117 0,0 z m 12.10337,0.132292 c 0.181287,-5.109889 -5.868832,2.4491 0,0 z m -5.224209,-2.04508 c -0.848293,-0.199411 -0.848985,1.205202 0,0 z m 9.789589,-2.003045 c -1.074189,-1.491077 2.372242,-3.803372 -1.124043,-1.661265 -2.848169,1.638769 -1.650551,2.340309 1.124043,1.661265 z m 2.121972,-0.720769 c 0.60382,-1.647827 -3.23462,1.052384 -0.404153,0.267558 z m 5.15407,-2.624774 c 3.312226,-4.846905 -6.158145,4.390611 0,0 z m -15.610422,-0.676151 c 2.189517,-0.851114 3.36978,-3.916348 0.58715,-0.926041 -0.249332,0.164057 -2.323641,2.473664 -0.58715,0.926041 z m 13.62207,-0.287277 c 3.763401,-0.402432 3.478543,-8.148624 -0.260609,-3.44261 -2.312648,1.352268 -5.018311,4.471469 -0.955804,1.702605 4.473513,-3.958565 2.294806,0.773821 -0.119714,1.778807 -1.276597,1.228154 1.063826,0.482894 1.336127,-0.0388 z m -7.71139,-0.180721 c 3.008093,-1.789636 2.767629,-3.235227 -0.132732,-0.683124 -0.987513,0.501572 -1.81032,2.509462 0.132732,0.683124 z m 18.827861,0.203415 c -0.658006,-1.775661 -1.560379,2.033707 0,0 z m 0.924169,-0.790719 c -0.197261,-0.618875 -1.119763,0.970185 0,0 z m -7.80333,-2.015477 c 0.826212,-2.220107 3.728609,-6.310879 0.10142,-2.375227 -1.469832,0.0406 -0.804106,5.537679 -0.10142,2.375227 z m -5.479029,-1.502007 c 4.969346,-0.27214 2.350152,-5.575708 2.171802,-8.498799 1.637732,4.116802 6.002788,-2.090849 0.865085,-0.716394 -2.698817,-1.054859 -7.418161,2.026677 -5.394242,4.108485 2.599615,-1.64647 2.741585,-0.510485 2.550172,1.178661 4.702988,1.523001 -6.309693,5.539593 -0.192817,3.928047 z m 5.984298,-3.500241 c 4.141062,-6.0779 -4.556573,3.195988 0,0 z m 6.750342,0.168581 c -0.429519,-3.205032 -5.606464,-4.610208 -2.22853,-1.218638 0.170699,0.626374 1.481476,1.950704 2.22853,1.218638 z m -20.6062,-1.331076 c 3.648931,-3.071258 -5.12951,2.907612 0,0 z m 0.80178,111.742663 c -0.39845,-2.814008 0.966395,2.176539 0,0 z m 5.023289,-0.66274 c -1.19987,-3.608071 -4.793799,3.715774 -2.609304,-1.261738 1.038616,-5.007124 6.573349,6.017966 2.609304,1.261738 z m 2.22151,-0.34298 c -1.335829,-6.244407 5.73822,3.288386 6.18175,-2.665948 1.515092,-0.128003 -1.959039,5.776847 -3.857788,1.649964 -3.035454,-3.282589 -0.824827,4.379146 -2.323962,1.015984 z m 36.706742,-1.6598 c -0.566274,-1.405 2.025868,0.146444 0,0 z m -17.594522,-1.55642 c -1.066754,-3.301669 -4.06291,2.813596 -1.705426,-2.232252 2.578133,2.337043 9.372049,1.415385 14.186105,1.47828 4.96336,-0.314233 -0.433005,1.979813 -2.967003,0.788565 -2.746612,-0.04757 -5.493752,-0.04857 -8.240636,-0.07175 0.02958,1.58923 -0.04576,2.1973 -1.27304,0.03716 z m 22.06761,1.23297 c -1.633823,-2.025564 3.264843,0.733493 0,0 z m 6.7227,-0.33317 c 1.058557,-1.869868 2.458828,1.20131 0,0 z m -3.0104,-0.93501 c -0.972991,-3.209356 2.445667,2.36073 0,0 z m 6.589911,-1.16518 c -0.50449,-3.401602 1.6097507,0.104077 0,0 z m -88.896943,-1.81653 c 0.073,-1.711819 1.271927,1.158634 0,0 z m -2.39255,-0.95388 c -2.21377,-1.305505 3.934969,1.399686 0,0 z m 3.964592,-0.12946 c 1.557338,-0.291143 5.849573,-7.503517 3.741041,-2.182913 -0.782187,1.097298 -2.31103,2.409855 -3.741041,2.182913 z m -9.656272,-3.56893 c -2.02673,-5.210714 -2.24497,-10.986787 -1.94086,-16.550047 0.99151,-4.800857 3.44579,-9.01369 5.33321,-13.583687 1.61269,-1.939769 4.80688,-9.8081078 2.51628,-3.006392 -2.10024,2.936643 -6.97425,9.66885 0.0865,9.302781 6.298456,0.884025 -0.95244,-0.0875 -3.17747,0.4667 -1.82842,6.449893 -0.96938,13.323297 -1.90937,19.95247 -0.57239,1.03876 1.60187,5.087873 -0.90832,3.418175 z m 13.017882,-2.40501 c 2.193732,0.190412 3.631161,-5.352971 2.904928,-0.81007 -0.325367,0.487524 -3.020977,1.806572 -2.904928,0.81007 z m 65.4988,-1.58357 c -1.054206,-3.521212 2.963596,-11.212004 5.542101,-5.750829 4.807597,0.551428 -4.972804,5.60121 -5.542101,5.750829 z m 2.68463,-2.624793 c 0.524188,-1.008516 1.038245,-2.888903 1.07057,-4.770233 -1.878848,-0.348863 -4.691094,8.146207 -1.07057,4.770233 z m -67.37369,-1.490048 c 1.152147,-1.848554 5.25776,-5.970333 0.15362,-7.849124 -7.234852,-1.073874 5.746123,-1.450504 0.812,-4.888373 -1.738768,-2.394791 -6.336302,-1.240995 -4.20198,-3.748095 -0.209692,-4.18621 8.281135,0.616029 1.999532,0.881916 0.0105,2.165189 6.883049,2.328129 3.773678,4.206825 -1.352449,2.325289 -3.249409,4.86301 1.475553,4.116293 -0.672154,1.414902 1.183073,3.077606 3.064877,4.322572 -1.978379,1.740922 -5.158831,2.444258 -7.07728,2.957986 z m 4.7986,-2.45304 c 3.222593,-2.788829 -4.258561,-0.707729 -1.48495,0.737858 l 0.662026,-0.448561 0.822924,-0.289293 z m -5.73019,-14.52694 c -2.940408,-2.48774 -2.286134,2.70229 0,0 z m 5.89252,10.402809 c 0.633638,-1.057056 0.42198,0.983975 0,0 z m 0.98699,-0.159542 c 2.684951,-2.091114 -1.639813,-4.96071 -1.153919,-5.157098 2.740463,0.367401 4.085199,4.345125 1.153919,5.157098 z m 81.6844347,-1.974728 c -0.072355,-1.510942 1.3757314,1.091832 0,0 z m -80.1063347,-3.10044 c -1.758249,-4.838533 4.120067,1.366341 0,0 z m 1.00679,-0.586126 c 0.186975,-1.951641 -2.454289,1.034403 0,0 z m -4.7256,-1.815492 c -1.863895,-1.414053 2.485646,0.829222 0.16478,-1.517094 1.689079,0.227737 2.171657,2.741699 -0.16478,1.517094 z m 7.29206,-0.618672 c -0.872126,-2.179117 2.445737,1.094073 0,0 z m -0.58209,-1.666875 c 0.705518,-2.486153 0.125796,2.413864 0,0 z m -18.151992,-1.565151 c -0.56391,-2.719666 3.430914,-1.608964 0.73432,-4.282649 1.965722,-3.2043545 6.378155,1.226674 1.650761,1.917319 0.255888,1.180611 -1.006351,3.735848 -2.385081,2.36533 z m 1.3614,-1.168678 c -2.32098,0.273647 -0.16495,2.283124 0,0 z m 1.530512,-2.796553 c -0.269859,-2.447842 -4.280002,1.551963 0,0 z m 1.23717,-0.306067 c -0.619583,-1.446478 -0.612367,1.853954 0,0 z m 9.02476,3.942199 c -0.228242,-3.082573 1.916286,2.371862 4e-5,-1.2e-5 z m -5.84045,-1.924818 c -1.137704,-6.4226279 6.358202,2.110728 0,0 z m 2.02749,-0.455477 c -1.518278,-3.936485 -3.058079,2.118388 0,0 z m 4.63392,-13.4349805 c -1.027102,-2.7174479 1.180606,1.734948 0,0 z m -0.54353,-1.73735202 c 0.19833,-1.46249828 0.198406,1.46260038 0,0 z m -0.79255,-1.99570698 c -1.152002,-2.8224368 1.41643,2.1635961 0,0 z m -1.59599,-3.260601 c -2.416793,-5.8400565 0.445193,-0.706276 1.19792,1.995424 -0.506645,-0.5958471 -0.816683,-1.3214078 -1.19792,-1.995424 z" />
  </g>
</svg>
