<?xml version="1.0" standalone="no"?>
<!DOCTYPE svg PUBLIC "-//W3C//DTD SVG 20010904//EN"
 "http://www.w3.org/TR/2001/REC-SVG-20010904/DTD/svg10.dtd">
<svg version="1.0" xmlns="http://www.w3.org/2000/svg"
 width="952.000000pt" height="952.000000pt" viewBox="0 0 952.000000 952.000000"
 preserveAspectRatio="xMidYMid meet">
<metadata>
Created by potrace 1.11, written by Peter Selinger 2001-2013
</metadata>
<g transform="translate(0.000000,952.000000) scale(0.100000,-0.100000)"
fill="#000000" stroke="none">
<path d="M4568 9515 c-6 -7 -185 -55 -223 -61 -11 -1 -20 -3 -20 -4 0 -1 -7
-3 -15 -5 -95 -24 -277 -88 -292 -103 -7 -7 -18 -12 -26 -12 -18 0 -168 -80
-257 -138 -129 -83 -218 -158 -305 -257 -45 -52 -120 -157 -120 -169 0 -3 -19
-32 -42 -66 -24 -35 -51 -74 -60 -89 -9 -14 -21 -30 -25 -36 -9 -11 -40 -79
-175 -380 -49 -110 -103 -228 -119 -263 -35 -74 -36 -91 -8 -123 34 -38 39
-63 24 -110 -23 -76 -44 -118 -65 -129 -16 -9 -22 -6 -33 17 -14 28 -33 100
-41 159 -3 23 2 38 20 57 31 34 30 37 -9 34 -75 -6 -147 -83 -147 -156 0 -45
-16 -78 -42 -86 -31 -10 -40 -26 -21 -41 15 -10 15 -15 1 -50 -16 -39 -26 -88
-33 -154 -20 -189 -21 -191 -65 -230 -21 -19 -68 -82 -105 -138 -72 -114 -125
-176 -167 -198 -16 -8 -28 -12 -28 -10 0 19 -310 -130 -340 -163 -3 -4 -16
-12 -30 -19 -14 -7 -67 -49 -118 -93 -81 -69 -166 -132 -182 -134 -3 -1 -19
-8 -37 -18 -40 -21 -160 -53 -238 -63 -33 -4 -62 -8 -65 -9 -3 -1 -19 -6 -37
-10 -40 -9 -71 -41 -55 -57 18 -18 141 -15 242 6 56 12 170 80 255 152 75 64
170 132 280 201 11 7 70 37 130 67 108 53 154 71 199 75 7 0 46 34 86 73 41
40 75 67 77 61 4 -11 -19 -59 -57 -118 -29 -45 -75 -141 -108 -225 -16 -41
-57 -129 -89 -195 -33 -66 -66 -136 -73 -155 -8 -19 -26 -53 -41 -75 -23 -36
-40 -84 -55 -155 -7 -35 -6 -246 1 -295 10 -67 14 -84 19 -103 3 -9 7 -33 10
-54 3 -20 10 -47 15 -60 5 -12 15 -42 22 -66 14 -48 39 -77 39 -46 0 11 -13
75 -29 144 -16 69 -27 128 -24 133 2 4 1 7 -4 7 -15 0 -21 217 -9 305 8 57 41
131 71 158 18 17 20 17 32 1 7 -10 13 -25 14 -33 0 -9 2 -25 5 -36 2 -11 6
-65 9 -120 6 -134 9 -144 65 -260 54 -113 67 -154 74 -240 8 -95 12 -114 28
-133 9 -9 21 -34 27 -54 6 -21 16 -55 22 -75 19 -63 110 -184 211 -283 53 -52
51 -50 183 -155 126 -99 175 -145 175 -163 0 -8 -9 -29 -20 -48 -30 -48 -34
-100 -11 -138 10 -17 22 -47 26 -66 14 -75 47 -162 78 -207 17 -27 35 -50 38
-53 3 -3 12 -23 20 -45 23 -69 26 -70 157 -68 353 6 466 21 667 88 39 13 107
31 152 40 70 14 116 18 262 24 16 1 42 19 71 51 l47 49 34 -19 c107 -61 200
-100 279 -115 14 -3 41 -8 60 -12 38 -7 101 -39 112 -57 4 -6 8 -23 8 -37 0
-15 6 -32 14 -39 18 -14 23 10 31 134 3 51 12 92 24 116 24 47 36 107 46 245
4 62 10 96 31 195 9 47 11 135 3 158 -13 35 -38 26 -59 -23 -14 -33 -26 -46
-47 -51 -73 -17 -161 -99 -166 -155 -1 -18 -7 -34 -14 -36 -14 -5 -43 24 -44
45 0 9 -2 25 -4 36 -6 33 37 107 105 177 95 99 135 146 203 234 43 55 83 106
90 114 6 8 14 20 17 25 9 20 173 260 227 334 30 40 59 72 65 70 15 -5 46 -65
122 -238 74 -168 79 -180 122 -285 15 -38 38 -86 50 -106 18 -29 37 -79 49
-129 6 -28 32 -92 81 -205 7 -16 28 -68 47 -115 50 -124 94 -218 116 -248 10
-15 23 -48 29 -74 12 -47 42 -117 122 -281 23 -48 40 -90 37 -94 -19 -18 -137
-3 -137 18 0 5 -12 9 -26 9 -30 0 -84 -49 -84 -77 0 -26 57 -143 70 -143 5 0
10 -5 10 -11 0 -17 90 -106 170 -167 41 -31 81 -63 88 -69 7 -7 17 -13 22 -13
13 0 100 -86 100 -99 0 -43 -165 36 -305 146 -16 13 -35 27 -40 31 -53 38
-233 202 -302 274 -49 51 -111 116 -140 146 -63 66 -87 67 -89 5 -1 -45 25
-106 104 -238 47 -79 60 -130 37 -139 -13 -5 -47 19 -102 70 -56 53 -183 219
-183 240 0 12 -91 123 -121 148 -37 31 -50 30 -63 -7 -11 -29 12 -109 44 -157
15 -23 50 -103 50 -115 0 -6 -16 -3 -125 23 -38 9 -72 19 -75 22 -5 5 -12 7
-62 15 -112 18 -158 31 -158 45 0 18 -56 30 -105 22 -35 -5 -58 -4 -75 5 -14
7 -74 63 -133 125 l-108 113 -19 -25 c-36 -46 -27 -71 89 -243 101 -150 153
-212 245 -294 39 -34 46 -67 18 -82 -58 -31 -300 139 -452 319 -25 29 -63 73
-86 96 -23 24 -39 46 -36 49 3 3 0 5 -6 5 -5 0 -19 15 -31 32 -24 39 -59 78
-70 78 -15 0 -29 -46 -26 -90 1 -25 3 -45 4 -45 2 0 4 -8 6 -18 4 -21 50 -100
69 -119 19 -20 76 -122 76 -137 0 -23 -49 -5 -485 180 -196 83 -208 86 -235
52 -44 -57 -13 -104 107 -159 40 -19 75 -34 77 -34 2 0 21 -7 42 -16 22 -9 40
-16 41 -16 3 1 164 -69 206 -88 15 -7 27 -17 27 -22 0 -8 -34 -13 -55 -8 -21
4 -53 9 -140 20 -49 6 -113 17 -141 25 -48 14 -66 17 -194 30 -73 8 -119 14
-155 22 -16 4 -39 7 -50 8 -74 7 -216 55 -343 116 -166 81 -175 90 -271 284
-92 186 -164 376 -186 493 -6 32 -14 42 -30 36 -30 -12 -35 -81 -9 -118 8 -11
14 -31 14 -43 0 -13 8 -31 18 -41 10 -10 28 -48 40 -85 12 -38 37 -100 55
-140 19 -40 49 -107 67 -151 l34 -79 -21 -36 c-38 -65 -20 -105 82 -179 66
-49 78 -61 97 -103 22 -46 19 -78 -7 -85 -37 -9 -228 88 -425 217 -66 42 -121
71 -145 75 -46 7 -117 34 -261 97 -56 25 -130 55 -165 67 -35 12 -73 26 -84
31 -11 5 -29 12 -40 14 -11 3 -54 14 -95 26 -90 24 -133 29 -151 18 -21 -13 0
-28 46 -33 81 -10 107 -16 119 -25 7 -6 42 -17 78 -26 98 -22 262 -91 485
-203 236 -118 326 -165 333 -172 3 -3 19 -12 35 -20 55 -27 267 -150 298 -172
18 -13 44 -37 59 -53 35 -40 116 -80 220 -107 46 -12 94 -29 107 -37 21 -14
23 -20 18 -70 -5 -50 -15 -82 -63 -188 -8 -17 -14 -33 -14 -37 0 -27 -224
-470 -279 -551 -26 -39 -50 -88 -54 -109 -3 -21 -35 -91 -71 -155 -142 -255
-296 -673 -296 -802 0 -45 -2 -47 -38 -62 -50 -20 -59 -33 -66 -87 -3 -25 -12
-64 -20 -88 -20 -57 -35 -144 -37 -217 -2 -88 -14 -124 -69 -209 -27 -42 -48
-76 -45 -76 2 0 1 -10 -4 -22 -6 -15 -4 -32 6 -51 16 -31 27 -28 84 22 81 71
96 81 127 87 29 6 38 2 69 -30 20 -20 43 -36 52 -36 27 0 79 38 103 75 45 69
91 56 105 -30 6 -42 35 -157 43 -175 37 -78 45 -90 62 -90 23 0 24 32 1 67
-10 14 -18 31 -19 37 -1 6 -9 38 -18 71 -9 33 -19 76 -22 95 -3 19 -14 71 -25
115 l-19 80 60 120 c32 66 109 208 170 315 61 107 140 255 175 328 86 177 153
272 191 272 27 0 3 -81 -85 -285 -49 -112 -56 -130 -57 -135 -1 -6 -13 -34
-49 -115 -41 -91 -151 -366 -158 -396 -8 -33 -63 -93 -77 -84 -5 3 -19 1 -30
-5 -15 -8 -19 -17 -14 -32 3 -11 7 -26 9 -32 7 -32 36 -95 104 -231 92 -181
114 -202 188 -180 26 8 83 36 127 63 45 26 93 53 109 60 26 11 29 10 47 -21
11 -17 20 -40 20 -50 0 -9 13 -47 30 -83 35 -77 23 -80 143 36 114 112 98 145
-33 64 -30 -19 -60 -34 -65 -34 -18 0 -37 43 -41 91 -3 52 4 63 99 145 20 17
39 44 42 60 8 34 39 109 111 260 28 61 80 182 114 270 118 301 133 339 159
394 13 30 26 60 27 65 7 31 243 511 318 645 91 164 116 200 136 200 22 0 1
-79 -53 -200 -11 -25 -35 -81 -55 -125 -19 -44 -41 -96 -50 -115 -9 -19 -16
-37 -17 -40 -2 -5 -21 -54 -32 -80 -3 -8 -8 -26 -10 -38 -2 -13 -14 -40 -27
-60 -21 -33 -58 -127 -136 -342 -15 -41 -31 -84 -35 -95 -4 -11 -9 -24 -11
-30 -17 -53 -137 -396 -145 -415 -6 -14 -20 -43 -31 -65 -20 -42 -31 -142 -16
-151 5 -3 6 -8 4 -12 -2 -4 2 -15 9 -25 38 -53 113 62 225 343 23 58 50 124
61 147 10 23 19 48 19 55 0 8 4 18 9 24 8 8 40 91 177 449 31 83 76 186 99
230 24 44 70 133 104 199 67 130 104 186 127 186 18 0 18 -26 -1 -80 -8 -24
-17 -52 -20 -64 -4 -20 -29 -96 -42 -126 -3 -8 -7 -17 -8 -20 -6 -24 -58 -175
-82 -240 -3 -8 -7 -19 -9 -25 -1 -5 -17 -46 -34 -90 -42 -108 -79 -211 -84
-232 -6 -37 -20 -82 -61 -208 -39 -118 -64 -223 -80 -330 -12 -80 -15 -190 -5
-205 30 -48 137 76 235 275 56 115 71 156 81 230 5 37 10 54 17 61 4 4 7 14 7
22 0 8 6 28 14 45 24 54 51 132 48 140 -1 4 2 7 8 7 6 0 9 3 8 8 -1 4 19 72
44 152 41 128 77 245 84 275 1 6 8 24 15 40 6 17 14 39 16 49 2 11 10 27 18
35 7 9 14 19 14 24 0 4 8 33 17 65 18 61 38 106 159 357 68 141 81 171 84 196
2 10 42 49 51 49 6 0 10 -11 10 -24 0 -32 -46 -191 -72 -246 -12 -25 -22 -47
-23 -50 -5 -15 -18 -48 -25 -65 -5 -11 -27 -74 -50 -140 -22 -66 -43 -127 -47
-135 -3 -8 -7 -20 -8 -26 -2 -5 -19 -55 -38 -110 -31 -86 -47 -136 -52 -154
-1 -3 -5 -12 -8 -20 -47 -110 -186 -531 -251 -765 -1 -5 -8 -30 -15 -55 -7
-25 -15 -54 -17 -65 -2 -11 -10 -42 -18 -68 -12 -40 -12 -49 0 -61 22 -23 82
-17 111 10 36 34 53 31 53 -8 0 -44 11 -59 51 -67 51 -11 73 4 99 67 13 32 33
80 46 107 25 57 67 165 70 180 3 13 85 233 113 303 11 28 18 52 15 52 -4 0 -1
6 5 14 6 8 11 18 10 22 -1 5 0 16 4 24 4 12 39 146 52 200 6 29 46 125 61 148
8 13 16 40 18 60 2 20 7 46 11 57 19 53 52 130 100 230 61 127 81 182 84 225
0 11 18 39 40 63 21 23 42 53 46 67 4 14 31 68 61 121 30 52 54 98 54 102 0 4
9 27 21 52 14 29 28 45 39 45 26 0 29 -18 13 -70 -8 -25 -15 -52 -17 -60 -4
-16 -41 -111 -55 -145 -5 -11 -26 -65 -47 -120 -21 -55 -41 -104 -46 -109 -4
-6 -8 -16 -8 -24 0 -8 -6 -28 -14 -45 -15 -35 -29 -69 -30 -77 -2 -6 -44 -114
-61 -155 -7 -16 -25 -64 -39 -105 -15 -41 -32 -86 -38 -100 -7 -14 -12 -27
-13 -30 -1 -3 -5 -14 -9 -25 -4 -11 -12 -31 -17 -45 -5 -14 -14 -38 -20 -55
-7 -16 -13 -35 -14 -41 -2 -6 -10 -27 -18 -45 -8 -19 -42 -113 -76 -209 -34
-96 -68 -188 -74 -205 -6 -16 -12 -32 -13 -35 0 -3 -3 -12 -7 -20 -18 -46 -92
-277 -112 -345 -20 -74 -21 -83 -7 -112 8 -17 25 -37 37 -43 36 -19 46 -52 25
-78 -10 -12 -21 -22 -25 -22 -3 0 -17 -11 -31 -24 -17 -15 -22 -26 -15 -30 6
-4 11 -14 11 -21 0 -18 22 -47 82 -107 56 -57 81 -63 68 -19 -7 25 -4 34 17
55 14 14 35 28 47 32 33 11 85 52 154 122 62 64 63 64 105 58 46 -8 109 -52
113 -80 3 -21 10 -29 27 -32 7 -1 25 -5 40 -9 l29 -8 -15 29 c-20 38 -76 94
-93 94 -19 0 -34 42 -28 77 16 85 88 257 151 357 14 22 68 116 120 210 52 94
99 173 104 174 5 2 9 8 9 14 0 14 31 37 51 38 8 0 30 -15 48 -34 18 -19 43
-36 55 -38 22 -4 46 12 46 31 0 5 4 11 9 13 8 3 81 112 81 122 0 10 73 121 82
124 4 2 8 10 8 18 0 8 4 14 8 14 5 0 14 10 19 23 16 32 85 107 273 296 209
210 227 224 250 196 8 -10 7 -17 -5 -29 -9 -9 -22 -16 -29 -16 -13 0 -56 -41
-56 -54 0 -10 -57 -89 -95 -130 -87 -94 -289 -383 -301 -430 -8 -32 -40 -84
-81 -129 -29 -34 -49 -78 -57 -128 -6 -41 -18 -76 -47 -137 -12 -23 -22 -60
-24 -83 -6 -67 -17 -123 -27 -136 -6 -7 -8 -13 -4 -13 3 0 -7 -27 -24 -60 -17
-33 -27 -60 -23 -60 9 0 63 86 63 101 0 5 4 17 9 27 14 25 41 89 41 95 0 7 68
157 79 177 5 8 24 44 42 80 55 110 214 367 265 429 7 9 55 68 106 131 74 92
306 366 353 416 5 6 44 48 85 94 41 46 119 129 173 184 54 56 105 116 113 134
8 18 22 35 32 39 9 3 54 44 99 91 l83 86 42 -24 c67 -36 87 -58 82 -88 -3 -14
-8 -30 -12 -36 -3 -6 -7 -17 -8 -26 -1 -8 -12 -46 -23 -85 -25 -82 -24 -78
-51 -180 -35 -136 -46 -235 -27 -247 22 -14 60 52 71 127 10 68 17 98 38 165
11 36 22 76 24 90 10 52 34 126 48 146 12 17 23 21 50 17 47 -6 54 12 20 48
-26 27 -29 37 -29 97 1 111 22 272 35 272 16 0 28 56 17 76 -24 45 -226 214
-256 214 -5 0 -11 3 -13 8 -1 4 -30 27 -62 51 -74 55 -156 134 -156 149 0 15
49 16 345 7 66 -2 147 -4 180 -4 l61 -1 73 -142 c96 -185 213 -370 271 -428
31 -31 68 -104 73 -144 8 -63 -37 -158 -120 -252 -42 -48 -62 -72 -133 -159
-35 -44 -67 -82 -70 -85 -13 -12 -132 -203 -192 -310 -81 -143 -128 -230 -208
-390 -78 -153 -158 -290 -170 -290 -8 0 -26 -57 -22 -72 1 -5 -2 -8 -8 -8 -5
0 -10 -5 -10 -11 0 -6 -23 -32 -51 -57 -60 -55 -66 -65 -85 -140 -8 -31 -26
-71 -39 -88 -33 -43 -47 -81 -34 -90 15 -9 51 3 74 23 78 72 119 78 148 22 24
-45 54 -56 147 -53 41 1 75 3 75 4 0 1 9 3 20 5 79 14 125 29 111 37 -9 5 -17
7 -19 6 -2 -2 -10 2 -18 8 -13 10 -42 20 -94 30 -10 2 -57 6 -102 8 -138 8
-168 39 -123 126 l22 42 39 -38 c36 -35 44 -38 92 -38 66 0 148 10 257 30 47
9 96 18 110 20 40 7 169 55 214 80 22 13 50 28 61 33 35 15 48 39 52 97 l5 56
-73 70 -73 70 23 19 c13 11 35 22 50 26 14 3 51 20 81 36 30 17 81 43 114 59
32 16 65 36 73 44 8 8 24 19 35 25 25 14 71 53 156 136 61 58 64 63 61 105 -1
23 -7 49 -12 56 -23 30 24 130 88 187 21 19 74 100 77 119 5 34 -31 28 -46 -7
-16 -37 -120 -149 -154 -167 -21 -10 -29 -7 -76 29 -28 22 -72 59 -96 82 -25
23 -65 58 -90 78 -25 20 -48 41 -53 48 -12 20 -34 4 -31 -23 4 -38 62 -105
222 -251 l42 -39 -22 -21 c-50 -44 -135 -100 -170 -112 -37 -12 -42 -19 -39
-51 3 -24 41 -50 72 -50 62 0 9 -65 -64 -78 -92 -17 -266 -3 -353 28 -120 42
-148 101 -76 159 66 55 291 130 407 135 33 2 59 6 58 10 -1 4 -3 11 -5 17 -4
11 -90 13 -148 3 -19 -3 -44 -7 -55 -8 -11 -2 -20 -4 -20 -5 0 -2 -10 -4 -23
-7 -12 -2 -63 -17 -114 -34 -50 -17 -93 -28 -96 -25 -16 15 112 215 203 317
14 15 25 32 25 37 0 5 3 11 8 13 10 4 98 118 152 198 25 36 47 67 50 70 3 3
20 28 38 57 51 80 50 79 129 24 38 -27 91 -69 119 -94 71 -66 108 -97 116 -97
20 0 14 23 -17 64 -46 60 -59 73 -162 157 -127 102 -153 127 -153 144 0 20 20
22 105 12 28 -3 61 -9 75 -12 67 -14 70 -14 70 1 0 8 -37 53 -82 100 -46 47
-125 129 -175 182 -51 52 -95 104 -99 114 -3 10 4 39 17 64 14 29 23 69 25
110 2 62 1 65 -26 79 -16 8 -58 44 -95 79 -73 72 -117 153 -141 265 -8 36 -16
73 -18 81 -2 8 -7 33 -10 54 -4 22 -23 69 -41 106 -40 79 -82 206 -91 272 -4
26 -15 57 -25 69 -10 11 -15 27 -13 34 15 37 -48 82 -166 120 -90 29 -152 65
-199 114 -64 67 -165 198 -211 275 -22 37 -48 75 -58 85 -55 57 -122 151 -122
171 0 19 -129 139 -239 223 -116 89 -235 149 -376 192 -49 15 -99 31 -110 36
-52 21 -121 39 -207 53 -155 26 -180 32 -242 64 -27 13 -56 30 -64 38 -7 8
-17 14 -21 14 -4 0 -25 16 -46 36 -22 20 -57 43 -77 51 -44 18 -182 159 -223
228 -21 37 -26 55 -21 84 6 42 -11 72 -88 156 -69 74 -117 148 -121 186 -2 19
-6 44 -9 55 -4 22 0 31 71 132 23 33 62 100 87 149 24 48 62 119 84 157 23 37
50 94 62 125 12 31 28 70 35 86 7 17 20 53 30 80 9 28 20 57 23 65 3 8 6 18 7
23 2 4 3 8 5 10 15 18 16 138 1 166 -19 36 -23 133 -9 216 14 74 16 227 4 285
-3 14 -7 41 -10 62 -3 20 -12 56 -20 80 -19 56 -16 71 22 111 18 18 32 40 32
50 0 17 -36 40 -80 50 -38 9 -60 29 -65 60 -3 15 -7 37 -9 50 -5 29 -36 119
-45 132 -4 6 -16 33 -26 60 -23 65 -68 159 -77 163 -5 2 -8 8 -8 13 0 8 -32
62 -62 104 -25 35 -127 155 -153 178 -16 16 -48 45 -70 66 -22 20 -58 50 -80
66 -22 17 -42 32 -45 35 -3 3 -39 22 -80 42 -64 31 -157 63 -252 84 -39 9
-213 16 -220 9z m187 -79 c39 -2 78 -7 88 -11 25 -10 13 -41 -37 -93 -86 -91
-120 -100 -150 -39 -24 48 -50 75 -81 83 -27 7 -28 6 -21 -28 3 -19 20 -76 36
-127 32 -99 36 -131 19 -163 -8 -16 -7 -29 6 -57 9 -20 18 -46 20 -56 2 -11 4
-22 5 -25 1 -3 2 -23 2 -45 0 -34 -6 -45 -40 -75 -64 -56 -150 -104 -185 -102
-18 1 -48 2 -68 3 -21 1 -54 -7 -77 -19 -22 -11 -42 -18 -45 -15 -10 9 64 73
105 91 64 29 145 103 163 149 17 44 14 63 -11 63 -21 0 -90 45 -108 72 -15 21
-14 24 15 50 22 21 29 35 27 56 -4 39 -38 39 -128 1 -141 -59 -162 -57 -128
12 10 22 17 52 15 67 -3 15 4 50 14 78 20 54 51 79 109 89 19 3 39 10 45 14
18 14 67 22 170 28 55 2 101 6 102 7 1 1 17 1 35 -1 18 -1 65 -5 103 -7z m459
-205 c63 -53 155 -165 187 -228 30 -58 -47 -76 -94 -23 -15 17 -33 30 -41 30
-13 0 -26 19 -32 49 -9 48 -17 58 -56 76 -38 18 -43 24 -46 58 -6 65 31 82 82
38z m-1400 -110 c-16 -15 -51 -40 -79 -54 -27 -15 -65 -36 -82 -48 -18 -11
-33 -16 -33 -10 0 21 66 76 130 109 80 41 104 42 64 3z m1139 13 c8 -8 -11
-55 -31 -76 -29 -30 -39 -44 -46 -66 -10 -30 -64 -82 -86 -82 -20 0 -28 22
-21 59 2 13 36 57 75 97 65 68 92 85 109 68z m42 -240 c-8 -13 -13 -24 -10
-24 3 0 -20 -35 -51 -77 -76 -102 -102 -157 -108 -222 -4 -58 -16 -77 -40 -68
-26 10 -26 148 -1 197 16 30 86 111 163 188 45 45 75 49 47 6z m-302 -149 c10
-54 6 -253 -6 -268 -7 -9 -27 -18 -46 -21 -20 -3 -49 -19 -70 -39 -39 -36 -63
-52 -146 -98 -62 -34 -75 -36 -75 -11 0 22 30 48 51 44 20 -4 50 24 44 41 -6
16 11 37 60 72 54 40 101 88 120 125 14 27 14 31 0 36 -31 12 -66 -8 -273
-155 -81 -58 -172 -100 -172 -80 0 17 79 87 160 142 41 28 97 71 124 96 58 55
184 140 207 141 10 0 19 -10 22 -25z m-623 -195 c0 -23 -129 -132 -245 -207
-125 -82 -62 11 82 120 34 26 64 47 67 47 3 0 22 11 42 25 40 27 54 31 54 15z
m-480 -38 c0 -27 -118 -142 -146 -142 -6 0 -32 -19 -58 -41 -72 -64 -64 -41
14 38 120 122 190 176 190 145z m1855 -109 c-11 -7 -22 -13 -27 -13 -14 0 -8
19 9 29 25 13 40 1 18 -16z m-65 -48 c0 -28 -5 -38 -22 -44 -24 -9 -58 3 -58
20 0 16 47 59 65 59 11 0 15 -10 15 -35z m-672 -1 c5 -35 -151 -160 -221 -177
-57 -15 -14 47 97 138 86 70 118 80 124 39z m-588 -151 c0 -5 -23 -34 -50 -66
-28 -32 -50 -60 -50 -62 0 -2 9 -19 20 -39 l21 -34 -23 -8 c-13 -4 -56 -7 -97
-6 -121 3 -134 14 -78 65 109 99 257 185 257 150z m614 -48 c21 -25 42 -45 49
-45 27 0 78 -48 97 -93 l21 -49 -25 -23 c-30 -28 -29 -25 -15 -62 7 -15 13
-55 14 -88 1 -51 5 -60 21 -63 66 -10 77 -24 89 -107 15 -111 25 -144 46 -156
54 -29 122 -9 270 78 72 41 121 66 254 123 45 20 99 29 111 19 15 -12 24 -59
12 -59 -5 0 -7 -4 -3 -9 3 -6 -9 -26 -27 -46 -30 -35 -31 -39 -19 -68 47 -112
-34 -242 -199 -320 -47 -22 -85 -39 -85 -37 0 1 -25 -12 -55 -30 -30 -18 -99
-47 -152 -65 -93 -31 -138 -58 -123 -73 9 -10 229 -11 287 -3 25 4 54 4 62 -1
22 -12 20 -70 -3 -116 -11 -21 -24 -60 -29 -88 -6 -27 -13 -59 -15 -71 -8 -33
-33 -76 -55 -96 -22 -20 -124 -38 -144 -26 -6 4 -15 6 -19 3 -4 -2 -10 12 -13
31 -4 19 -17 47 -30 62 -12 15 -28 43 -35 60 -11 27 -16 31 -31 23 -32 -17
-48 -151 -25 -206 13 -32 12 -36 -10 -63 -14 -15 -39 -32 -57 -36 -18 -4 -40
-9 -48 -12 -30 -8 -85 -9 -102 -1 -26 13 -22 37 16 98 19 30 32 58 30 62 -5 8
-112 -70 -134 -98 -11 -13 4 -77 37 -156 18 -43 48 -52 106 -32 51 18 81 18
97 -1 26 -31 49 -16 116 73 20 26 41 50 47 53 18 12 207 10 248 -3 76 -22 128
-92 133 -178 4 -62 -35 -182 -73 -225 -34 -38 -91 -154 -97 -197 -3 -24 -1
-61 4 -83 20 -74 23 -126 11 -163 -15 -50 -87 -191 -113 -224 -11 -15 -32 -43
-46 -63 -14 -20 -30 -42 -36 -48 -5 -7 -13 -19 -17 -27 -15 -32 -112 -177
-136 -202 -9 -9 -34 -38 -56 -64 -49 -60 -251 -262 -325 -327 -188 -165 -388
-274 -590 -322 -30 -7 -62 -13 -70 -13 -8 0 -26 -3 -40 -5 -14 -3 -57 -8 -95
-11 -108 -10 -165 -21 -175 -36 -11 -17 -78 -18 -135 -3 -149 39 -194 43 -375
32 -61 -3 -87 13 -111 68 -24 57 -24 94 1 116 11 9 20 26 20 37 0 21 -22 70
-44 98 -16 21 -157 161 -274 271 -117 112 -217 256 -152 221 29 -15 25 3 -8
42 -43 51 -75 98 -105 155 -62 118 -71 169 -71 445 -1 170 0 177 22 201 13 13
28 41 33 62 6 21 18 50 27 63 9 14 18 37 20 51 8 71 212 499 282 592 42 57 87
89 123 89 36 0 40 12 22 66 -15 44 -14 47 7 85 12 21 26 39 32 39 6 0 22 9 36
19 23 18 23 21 9 38 -31 35 -41 63 -29 79 10 11 9 15 -4 20 -24 9 -57 -2 -91
-32 -16 -14 -42 -32 -57 -40 -26 -13 -28 -12 -52 19 -81 107 -108 422 -36 422
8 0 35 -28 60 -61 68 -92 103 -105 103 -39 0 19 12 40 38 65 22 21 39 42 39
47 0 18 35 42 55 38 11 -2 23 -4 26 -4 4 -1 9 -23 13 -49 5 -39 11 -51 32 -61
18 -8 31 -8 45 -1 23 13 23 14 0 64 -21 43 -24 57 -22 94 1 30 29 28 37 -2 8
-33 32 -52 77 -60 50 -9 49 -33 -5 -105 -44 -59 -46 -61 -78 -100 -21 -25 -25
-41 -12 -41 5 0 57 47 116 104 108 106 191 170 207 160 5 -3 9 -1 9 3 0 22
224 22 280 1 35 -14 84 -28 97 -28 23 0 11 61 -32 155 -37 81 -65 156 -65 174
0 28 51 54 150 76 65 15 90 18 195 30 33 4 71 8 85 10 14 2 57 7 95 11 39 3
73 8 76 10 3 1 25 6 50 9 24 3 78 12 119 19 41 7 103 12 137 11 64 -2 86 12
57 35 -8 7 -14 9 -14 6 0 -4 -6 -4 -12 1 -7 4 -19 8 -27 10 -30 4 -71 26 -71
38 0 27 72 70 124 73 28 2 39 -4 70 -43z m-494 -74 c-22 -42 -81 -62 -121 -41
-20 11 -20 12 -2 24 26 19 106 44 120 39 9 -4 10 -10 3 -22z m-976 -246 c-7
-16 -43 -40 -50 -33 -5 6 35 48 46 48 5 0 7 -7 4 -15z m397 -38 c23 -55 35
-126 23 -128 -5 -1 -20 -3 -34 -5 -45 -7 -158 -6 -169 1 -18 11 14 60 70 107
28 24 56 48 63 54 16 17 32 7 47 -29z m-950 -84 c3 -18 0 -44 -8 -64 -12 -30
-15 -31 -29 -17 -22 22 -10 121 14 116 9 -2 19 -17 23 -35z m-196 -923 c11
-33 3 -123 -13 -155 -8 -16 -36 -62 -62 -100 -26 -39 -55 -93 -64 -120 -9 -27
-23 -53 -31 -59 -8 -6 -17 -30 -20 -54 -13 -102 -108 -297 -129 -263 -7 11 -1
85 9 101 3 5 8 40 11 77 12 173 36 238 127 343 45 52 92 147 96 195 1 20 37
55 55 55 8 0 18 -9 21 -20z m-119 -45 c9 -22 -33 -100 -61 -115 -48 -26 -46
18 5 88 34 45 47 51 56 27z m-50 -591 c-4 -13 -11 -24 -17 -24 -19 0 -20 29
-2 56 15 23 19 25 21 10 2 -10 1 -28 -2 -42z m3324 -142 c8 -10 23 -32 32 -48
9 -16 30 -36 47 -44 21 -10 31 -22 31 -38 0 -56 35 -89 169 -160 71 -38 388
-145 521 -177 8 -2 15 -4 15 -5 0 -1 9 -3 21 -5 44 -9 329 -106 383 -131 167
-79 305 -226 352 -379 12 -36 17 -84 23 -192 4 -101 31 -162 81 -189 19 -10
35 -21 35 -25 0 -3 6 -6 13 -7 6 0 63 -18 124 -40 110 -39 178 -78 191 -111 3
-9 13 -24 22 -33 38 -41 104 -182 116 -248 2 -14 11 -61 20 -105 9 -44 17
-111 19 -150 1 -38 3 -74 4 -79 0 -6 16 5 35 23 25 24 40 31 54 26 21 -6 25
-14 37 -73 4 -18 34 -74 67 -125 80 -121 100 -190 76 -258 -13 -38 -25 -37
-36 4 -13 52 -41 59 -287 72 -111 6 -212 13 -265 20 -25 3 -65 7 -90 10 -25 3
-56 7 -70 10 -14 2 -44 7 -68 10 -80 11 -193 44 -272 80 -42 19 -82 35 -88 35
-35 0 -43 -78 -18 -189 6 -26 -19 -3 -269 245 -67 67 -131 125 -143 128 -14 5
-27 1 -41 -13 -48 -48 16 -172 174 -337 35 -37 63 -72 75 -93 9 -18 8 -21 -8
-21 -42 0 -83 14 -104 35 -13 12 -38 26 -56 30 -38 8 -151 66 -198 102 -17 13
-40 23 -52 23 -42 0 -94 74 -108 155 -7 38 -42 163 -54 190 -5 11 -16 45 -26
75 -26 84 -117 315 -162 410 -22 47 -45 101 -53 120 -7 19 -54 116 -104 215
-78 155 -178 368 -181 385 0 3 -10 25 -21 50 -11 25 -40 88 -63 140 -61 138
-92 200 -102 201 -4 1 -12 3 -18 4 -5 1 -16 3 -22 4 -39 4 -40 18 -4 72 21 32
43 86 56 134 28 109 79 231 109 261 28 29 61 31 81 6z m-244 -77 c11 -28 -46
-205 -66 -205 -12 0 -26 43 -29 87 -2 38 15 87 41 121 14 17 47 15 54 -3z
m1977 -1070 c21 -20 44 -49 52 -64 17 -34 10 -43 -54 -65 -47 -17 -71 -12 -72
15 -3 52 -2 67 4 107 9 52 23 53 70 7z m107 -172 c0 -7 -4 -13 -8 -13 -17 0
-29 22 -24 42 5 20 6 20 19 3 7 -11 13 -25 13 -32z m-2938 -210 c10 -9 18 -20
18 -24 0 -4 14 -28 30 -52 17 -25 30 -49 30 -54 0 -10 -33 -51 -104 -129 -30
-34 -57 -54 -70 -54 -12 1 -41 21 -66 45 -49 49 -58 52 -98 31 -34 -18 -141
-30 -250 -29 -92 1 -118 12 -81 36 42 27 230 97 260 97 39 0 139 46 224 104
39 25 74 46 79 46 5 0 18 -7 28 -17z m3344 -21 c33 -16 64 -67 64 -103 0 -20
-1 -20 -32 -2 -18 10 -55 40 -81 67 -42 43 -46 51 -30 57 20 7 35 4 79 -19z
m-1984 -39 c2 -10 1 -29 -2 -43 l-7 -25 -13 27 c-13 27 -8 58 9 58 5 0 11 -8
13 -17z m-2655 -255 c12 -10 10 -15 -14 -37 -49 -46 -77 -53 -126 -34 -55 22
-99 52 -94 67 2 6 19 14 38 17 54 8 180 1 196 -13z m2929 -686 c14 -27 7 -62
-11 -62 -15 0 -87 73 -96 97 -3 10 -1 21 5 25 15 10 88 -33 102 -60z m2163 -3
c28 -22 51 -43 51 -45 0 -2 -20 -45 -46 -95 -25 -50 -44 -94 -42 -99 2 -5 60
-66 129 -137 69 -71 128 -139 131 -151 8 -29 -24 -52 -83 -59 -45 -6 -43 -8
-129 97 -25 30 -53 62 -63 70 -11 9 -20 33 -23 60 -5 58 -5 339 0 365 3 11 5
23 5 28 2 15 20 6 70 -34z m-3455 -59 c12 0 119 -74 152 -105 6 -5 35 -30 64
-55 101 -84 152 -141 139 -156 -20 -25 -68 5 -206 131 -125 114 -302 306 -200
218 21 -18 44 -33 51 -33z m2328 23 c50 -19 104 -59 202 -148 16 -15 132 -88
191 -120 112 -62 175 -113 175 -143 0 -46 -83 -129 -140 -139 -21 -4 -80 17
-80 28 0 5 -5 9 -11 9 -18 0 -229 224 -229 244 0 10 -52 84 -85 121 -59 66
-112 141 -108 153 6 17 34 15 85 -5z m-212 -40 c14 -13 20 -23 14 -23 -5 0
-26 17 -45 37 -34 37 -18 29 31 -14z m-1762 -13 c85 -37 201 -143 196 -177 -1
-7 -2 -17 -3 -23 -4 -32 -98 17 -219 114 -112 91 -113 91 -101 103 14 14 74 5
127 -17z m1182 7 c19 -8 93 -43 163 -76 71 -34 132 -61 135 -61 16 0 142 -52
142 -59 0 -6 56 -31 83 -37 4 -1 9 -3 12 -4 3 -1 8 -3 13 -4 42 -10 127 -88
202 -186 19 -25 37 -47 40 -50 3 -3 22 -27 41 -55 18 -27 36 -52 40 -55 7 -7
69 -109 69 -115 0 -2 -20 -33 -44 -67 -50 -71 -238 -266 -361 -373 -44 -39
-87 -78 -96 -87 -9 -10 -19 -15 -23 -11 -3 3 -6 1 -6 -5 0 -7 -24 -26 -54 -42
-31 -18 -82 -61 -116 -100 -66 -74 -94 -83 -84 -27 4 28 33 74 87 139 10 12
47 81 83 154 35 72 85 162 109 199 25 37 45 70 45 72 0 3 8 17 18 31 30 43 93
162 97 183 5 25 -53 86 -91 94 -61 14 -86 29 -117 74 -42 62 -45 65 -100 89
-43 19 -186 114 -219 145 -7 7 -31 25 -53 41 -22 17 -42 32 -45 35 -3 4 -26
23 -52 44 -27 21 -48 41 -48 45 0 11 81 92 89 89 3 -2 22 -11 41 -20z m-3385
-193 c135 -66 225 -120 225 -135 0 -40 -280 71 -347 138 -18 19 -31 39 -27 44
9 15 48 3 149 -47z m2698 -10 c61 -30 86 -60 87 -101 0 -26 -4 -33 -19 -33
-33 0 -197 142 -186 161 8 12 63 0 118 -27z m-165 -115 c36 -35 38 -42 18 -58
-23 -20 -63 -2 -81 35 -29 61 10 75 63 23z m-1102 -31 c13 -39 -3 -81 -73
-191 -24 -37 -43 -70 -43 -74 0 -3 -11 -20 -23 -37 -13 -17 -38 -56 -54 -86
-17 -30 -55 -98 -85 -151 -30 -52 -58 -102 -61 -110 -4 -8 -24 -43 -43 -79
-20 -36 -58 -108 -85 -160 -27 -52 -54 -102 -59 -110 -5 -8 -38 -76 -73 -150
-37 -76 -81 -152 -102 -175 -22 -24 -34 -32 -29 -20 11 30 34 117 39 147 3 15
10 40 17 55 6 15 12 33 13 39 2 5 28 62 58 126 89 184 127 269 127 281 0 7 13
37 29 67 15 30 47 92 70 137 63 124 87 202 97 323 3 36 10 70 15 76 5 6 26 11
46 12 52 1 68 5 85 22 14 15 29 44 34 68 1 8 11 20 21 27 15 11 22 11 45 -1
14 -8 30 -24 34 -36z m1680 24 c10 -10 34 -28 52 -41 l34 -24 -58 -58 c-32
-33 -66 -59 -76 -59 -19 0 -78 73 -78 97 0 7 6 23 13 36 37 66 75 83 113 49z
m-2146 -63 c12 -18 1 -39 -19 -39 -20 0 -111 58 -111 70 0 12 122 -16 130 -31z
m661 -106 c5 -77 -35 -163 -75 -163 -18 0 -18 0 -21 50 -3 56 40 130 77 130
10 0 18 -8 19 -17z m1852 -1 c4 -1 12 -2 17 -2 25 0 5 -44 -61 -131 -38 -52
-78 -105 -87 -118 -9 -13 -26 -35 -37 -50 -12 -14 -70 -95 -130 -180 -119
-167 -170 -226 -186 -215 -10 6 -10 70 0 89 3 6 6 12 6 15 3 22 23 61 50 99
18 25 51 83 73 128 22 45 54 102 70 125 16 24 54 87 86 140 67 116 87 126 199
100z m-1591 -8 c16 -16 -94 -251 -123 -262 -5 -2 -9 -8 -9 -14 0 -14 -101
-158 -111 -158 -25 0 4 83 98 278 30 63 65 125 78 138 23 22 55 31 67 18z
m-1082 -39 c18 -9 30 -23 30 -35 0 -31 -36 -100 -78 -151 -51 -63 -73 -92
-139 -184 -52 -74 -289 -431 -323 -486 -85 -142 -110 -186 -110 -196 0 -7 -9
-17 -21 -24 -36 -19 -44 2 -24 63 20 63 90 204 110 225 8 8 15 20 16 26 2 47
11 74 35 108 15 22 24 45 20 54 -4 10 5 26 23 43 16 15 44 56 62 91 41 77 51
95 66 113 7 7 25 41 42 73 16 33 56 94 88 135 32 41 70 91 83 110 13 19 29 38
35 42 17 12 54 9 85 -7z m-382 -1 c35 -10 39 -48 8 -94 -51 -77 -117 -58 -119
35 0 30 4 50 14 56 16 10 64 12 97 3z m1706 -26 c-27 -86 -269 -568 -305 -609
l-30 -34 6 38 c3 21 15 52 25 70 10 18 21 55 24 82 2 28 5 53 5 56 1 3 12 19
26 35 14 16 28 39 31 52 4 12 11 22 17 22 6 0 8 3 5 6 -8 7 44 134 77 190 24
41 99 114 117 114 5 0 6 -10 2 -22z m2317 -17 c0 -3 2 -14 4 -24 3 -17 -19
-47 -36 -47 -14 0 -22 49 -10 63 11 14 40 19 42 8z m-681 -19 c0 -28 -20 -43
-42 -31 -14 8 -16 14 -8 29 14 25 50 27 50 2z m-800 -35 c0 -19 -7 -49 -17
-68 -18 -37 -93 -168 -106 -184 -4 -5 -31 -43 -59 -83 -29 -41 -54 -69 -56
-63 -2 6 13 48 32 94 20 45 36 87 36 93 0 5 5 15 12 22 6 6 13 17 14 24 4 24
63 144 84 171 31 39 60 36 60 -6z m-1525 -201 c-14 -18 -25 -38 -25 -44 0 -6
-10 -16 -21 -23 -29 -15 -40 3 -28 45 5 17 9 32 9 34 0 1 14 11 32 22 23 14
35 16 45 9 10 -9 7 -18 -12 -43z m2135 -21 c0 -2 -15 -12 -32 -20 l-33 -16 24
21 c22 19 41 26 41 15z m-305 -245 c12 -39 -38 -83 -64 -57 -16 16 -13 55 4
64 27 16 54 12 60 -7z m-185 -311 c0 -21 -21 -54 -81 -129 -20 -25 -46 -60
-57 -79 -17 -28 -21 -30 -19 -13 1 12 6 22 11 22 5 0 7 3 4 6 -8 8 53 155 77
185 33 42 65 46 65 8z m-1390 -83 c0 -8 -9 -24 -21 -37 -18 -21 -20 -21 -14
-4 4 11 10 28 12 38 6 20 23 23 23 3z m984 -41 c6 -17 -12 -75 -24 -75 -13 0
-19 41 -10 66 11 27 25 31 34 9z m2927 -67 c-39 -34 -71 -45 -79 -25 -10 25
75 81 106 70 12 -5 7 -15 -27 -45z m-2365 -60 c-34 -69 -126 -178 -126 -150 0
18 68 148 85 162 8 7 15 16 15 20 0 5 10 20 23 34 39 44 41 11 3 -66z m-3134
-5 c3 -37 -3 -58 -24 -80 -32 -34 -41 -28 -33 20 9 53 22 77 40 77 8 0 16 -8
17 -17z m2794 -65 c-7 -35 -42 -85 -53 -75 -6 7 13 60 35 95 19 29 26 21 18
-20z m1994 20 c11 -12 20 -30 20 -40 0 -22 -41 -40 -76 -34 -50 9 -56 28 -23
70 25 32 51 33 79 4z m-4207 -70 c7 -20 -21 -68 -39 -68 -13 0 -15 6 -9 27 11
46 38 68 48 41z m2127 -147 c-12 -27 -28 -52 -36 -55 -8 -3 -14 -13 -14 -23 0
-22 -29 -71 -66 -113 -63 -71 -55 -21 27 158 16 35 29 67 29 72 0 6 5 10 10
10 6 0 10 6 10 14 0 8 12 19 28 24 24 8 27 6 30 -14 2 -12 -6 -45 -18 -73z
m2283 74 c-3 -8 -14 -15 -24 -15 -10 0 -28 -9 -39 -20 -27 -27 -62 -31 -90
-10 -23 17 -23 18 -3 28 11 6 35 14 54 17 18 3 35 7 36 9 2 1 19 3 38 4 26 1
33 -2 28 -13z m-190 -94 c19 -47 74 -83 157 -101 141 -31 160 -39 160 -71 0
-48 -177 -169 -270 -184 -84 -13 -160 -16 -160 -5 0 6 4 9 9 6 5 -3 25 5 45
19 20 14 47 25 59 25 31 1 100 34 125 60 16 18 19 27 11 42 -14 26 -69 48 -93
36 -33 -17 -81 -11 -159 22 -93 38 -132 78 -115 115 19 42 162 103 199 84 9
-5 24 -26 32 -48z m-228 -167 c25 -10 59 -44 68 -66 6 -17 -7 -32 -28 -33 -5
-1 -32 -5 -60 -10 -83 -15 -90 -13 -88 21 3 34 22 74 43 91 16 12 31 12 65 -3z
m-4298 -79 c-3 -24 -8 -48 -11 -54 -4 -6 -9 -21 -11 -33 -4 -21 -31 -109 -42
-138 -3 -8 -7 -19 -8 -25 0 -5 -4 -17 -7 -25 -3 -8 -18 -55 -33 -105 -14 -49
-29 -97 -31 -105 -3 -8 -5 -16 -5 -17 1 -2 -8 -27 -19 -55 -31 -85 -42 -146
-46 -257 -2 -75 1 -112 11 -131 13 -25 12 -29 -8 -47 -60 -53 -147 -84 -174
-62 -17 15 -73 125 -73 146 0 7 -4 13 -10 13 -5 0 -10 6 -10 13 0 7 -10 33
-22 58 -12 24 -22 64 -22 89 l-1 45 45 -3 c56 -4 81 17 137 117 47 84 214 422
218 441 1 3 18 38 38 78 61 119 92 140 84 57z m-929 -540 c3 -19 -73 -183
-101 -217 -7 -10 -25 -22 -40 -27 -22 -9 -27 -7 -33 12 -12 34 -11 50 3 74 7
12 13 28 13 35 1 7 19 31 41 53 21 22 45 53 52 68 9 21 18 27 37 25 16 -2 26
-10 28 -23z m958 -228 c-7 -37 -19 -57 -37 -57 -27 0 -25 44 3 64 23 16 38 14
34 -7z m1881 -45 c-7 -40 -46 -102 -64 -102 -7 0 -13 -4 -13 -9 0 -11 -49 -21
-55 -11 -9 14 47 110 81 140 42 36 58 31 51 -18z"/>
<path d="M4281 7472 c-21 -3 -16 -8 35 -34 32 -17 79 -47 104 -68 69 -57 94
-36 41 37 -38 52 -105 77 -180 65z"/>
<path d="M4682 7309 l-41 -42 -67 18 -67 18 -24 -29 c-24 -29 -24 -29 -41 -9
-43 51 -108 80 -147 65 -39 -15 -38 -37 3 -62 33 -20 71 -51 122 -98 34 -33
91 -72 118 -81 77 -27 73 -152 -10 -309 -92 -176 -159 -244 -228 -234 -14 2
-39 5 -56 8 -46 6 -155 52 -232 97 -68 40 -82 45 -82 31 0 -18 67 -108 124
-168 72 -75 116 -94 230 -100 68 -3 83 0 110 18 49 34 118 108 156 168 19 30
37 57 40 60 10 10 50 101 50 115 0 8 -5 15 -11 15 -16 0 -5 142 17 217 22 77
44 114 98 164 25 23 46 49 46 58 0 9 -15 41 -33 70 l-33 52 -42 -42z"/>
<path d="M4860 6236 c-110 -104 -124 -119 -111 -124 13 -4 131 112 131 130 0
11 -3 10 -20 -6z"/>
<path d="M4022 5998 c-10 -18 -32 -55 -47 -83 -16 -27 -31 -52 -35 -55 -4 -3
-11 -12 -16 -21 -15 -27 -76 -100 -122 -145 -46 -46 -66 -52 -168 -58 -33 -2
-69 -8 -79 -13 -16 -9 -14 -11 11 -18 47 -14 105 -11 159 6 44 14 53 14 72 2
20 -13 22 -12 28 15 6 31 37 51 67 44 17 -3 38 -57 38 -99 0 -28 -16 -37 -58
-35 l-34 3 19 -33 c11 -18 26 -34 34 -34 8 -1 20 -2 27 -3 11 -1 11 -11 2 -56
-8 -37 4 -68 40 -106 33 -35 42 -40 54 -29 13 10 13 15 1 34 -19 28 -42 95
-49 141 -4 21 -8 40 -10 44 -3 4 -7 27 -10 51 -3 25 -7 54 -10 65 -19 101 -22
165 -7 175 4 3 12 12 17 21 5 10 30 42 57 72 44 52 49 54 80 47 102 -26 173
-51 199 -70 27 -20 34 -21 70 -11 37 12 168 69 168 74 0 2 -45 4 -101 5 -138
3 -316 47 -349 87 -18 22 -26 19 -48 -17z"/>
<path d="M4630 5970 c0 -5 9 -10 21 -10 11 0 17 5 14 10 -3 6 -13 10 -21 10
-8 0 -14 -4 -14 -10z"/>
<path d="M4177 5809 c-99 -15 -96 -52 6 -64 34 -3 63 -6 65 -6 1 1 19 -6 39
-14 54 -23 105 -22 144 3 30 19 89 69 89 75 0 2 -37 -1 -82 -6 -59 -7 -92 -6
-122 3 -51 16 -78 18 -139 9z"/>
<path d="M4460 5463 c-8 -2 -22 -7 -30 -10 -8 -4 -17 -7 -20 -8 -17 -4 -108
-50 -152 -77 -99 -58 -119 -68 -136 -68 -38 0 -43 -15 -17 -52 30 -45 52 -50
101 -26 47 24 133 59 154 63 8 2 32 4 53 4 l37 1 -2 51 c-2 47 0 53 30 78 26
21 30 29 20 39 -13 13 -15 13 -38 5z"/>
<path d="M5854 4838 c-3 -4 6 -8 20 -8 14 0 26 4 26 8 0 4 -9 8 -21 8 -11 0
-23 -4 -25 -8z"/>
<path d="M6093 4636 c5 -13 10 -38 21 -106 2 -14 9 -36 15 -50 13 -27 121
-108 121 -90 0 16 -34 76 -86 150 -25 36 -47 75 -51 88 -3 12 -10 22 -15 22
-6 0 -8 -6 -5 -14z"/>
<path d="M2030 5228 c0 -57 124 -325 172 -373 12 -11 18 -15 15 -9 -7 11 -29
65 -32 74 0 3 -13 31 -28 63 -15 32 -27 62 -27 66 0 5 -3 11 -7 13 -5 2 -22
43 -38 92 -30 88 -55 122 -55 74z"/>
<path d="M2230 4777 c0 -18 29 -75 42 -83 12 -8 3 26 -19 69 -15 30 -23 34
-23 14z"/>
<path d="M2311 4563 c0 -25 1 -26 9 -8 12 27 12 35 0 35 -5 0 -10 -12 -9 -27z"/>
<path d="M2330 4497 c0 -14 40 -96 49 -101 15 -10 14 8 -2 47 -12 28 -47 69
-47 54z"/>
<path d="M1246 3918 c-8 -13 -22 -50 -31 -83 -17 -59 -67 -175 -85 -198 -71
-87 -121 -169 -183 -299 -26 -53 -63 -146 -83 -205 -40 -120 -106 -257 -128
-270 -18 -10 -50 -91 -66 -167 -7 -33 -18 -66 -26 -74 -8 -7 -14 -21 -15 -30
-1 -45 -11 -86 -36 -163 -27 -82 -28 -90 -27 -304 0 -202 5 -344 18 -500 5
-58 9 -92 21 -184 10 -79 33 -166 58 -216 14 -28 28 -70 32 -95 15 -104 46
-148 102 -146 31 1 33 13 17 96 -4 25 -8 104 -8 175 0 116 4 177 19 320 14
125 21 245 29 485 16 457 17 470 49 595 16 61 26 117 32 170 10 98 45 114 195
91 140 -21 354 -23 322 -3 -6 5 -45 10 -85 12 -83 5 -137 12 -222 26 -33 6
-69 12 -80 14 -114 19 -135 28 -135 59 0 14 -9 34 -21 44 -21 20 -22 45 -3
101 16 54 105 215 191 347 114 176 159 267 179 356 14 65 14 68 -1 68 -8 0
-21 -10 -29 -22z"/>
<path d="M1377 3539 c-64 -7 -85 -21 -88 -59 -5 -54 3 -71 47 -114 26 -24 44
-49 40 -55 -4 -5 -33 -15 -66 -22 -33 -6 -65 -18 -72 -27 -7 -8 -13 -43 -14
-79 -1 -52 2 -66 17 -73 29 -16 60 -12 104 15 48 27 63 57 68 130 3 62 11 75
45 75 26 0 81 28 107 54 20 20 41 70 39 93 0 12 -8 33 -17 47 -15 22 -23 24
-84 23 -37 0 -94 -4 -126 -8z m83 -59 c14 -26 -18 -60 -57 -61 -66 -3 -93 9
-93 42 0 26 28 38 87 39 42 0 54 -4 63 -20z m95 10 c9 -15 -6 -60 -21 -60 -14
0 -20 51 -7 63 9 10 21 9 28 -3z m-215 -300 c-24 -33 -67 -66 -76 -57 -30 29
12 87 63 87 l34 0 -21 -30z"/>
<path d="M1860 3487 c-27 -21 -60 -83 -60 -112 0 -40 28 -92 53 -99 64 -17
150 7 160 45 8 31 -3 81 -25 111 -32 45 -103 75 -128 55z m93 -78 c33 -36 34
-64 3 -84 -31 -20 -94 -16 -107 6 -14 27 -11 72 7 98 21 29 58 22 97 -20z"/>
<path d="M2287 3222 c-15 -17 -16 -23 -3 -53 8 -19 23 -44 34 -57 18 -20 22
-21 35 -8 13 13 13 23 3 62 -7 26 -21 53 -32 61 -18 11 -23 11 -37 -5z"/>
<path d="M1614 3117 c-44 -25 -50 -59 -25 -144 13 -43 -5 -65 -52 -67 -20 0
-37 -3 -37 -6 0 -13 44 -30 92 -36 29 -3 74 -17 100 -30 26 -13 53 -24 59 -24
43 0 269 -188 269 -224 0 -30 -22 -71 -56 -103 -20 -18 -40 -34 -45 -34 -11
-2 -14 -3 -69 -18 -25 -8 -56 -15 -70 -16 -14 -2 -37 -8 -52 -14 -16 -6 -28
-8 -28 -5 0 2 -14 -3 -30 -11 -38 -20 -30 -35 18 -35 154 -1 353 -152 389
-296 8 -34 7 -48 -7 -77 -10 -20 -15 -38 -12 -41 3 -4 0 -6 -6 -6 -7 0 -12 -6
-12 -14 0 -23 -92 -113 -135 -133 -91 -42 -104 -66 -63 -110 l21 -23 16 26
c15 25 22 27 86 29 39 1 81 7 95 12 14 6 28 11 32 12 23 4 259 129 291 154
l37 29 -22 28 c-13 16 -29 29 -35 29 -7 1 -13 5 -13 10 0 5 -21 15 -47 22 -54
16 -150 97 -159 136 -5 19 1 33 32 64 21 21 35 41 32 44 -11 12 -51 14 -70 4
-10 -6 -38 -12 -61 -15 -38 -5 -50 0 -121 46 l-79 52 75 71 c42 40 80 82 86
93 7 12 11 54 10 93 -1 39 2 74 6 78 3 4 25 2 47 -4 l40 -11 -23 25 c-29 31
-93 68 -133 77 -49 12 -187 84 -230 121 -33 29 -37 36 -25 45 8 5 35 10 60 11
82 2 125 27 145 85 16 49 5 69 -49 83 -97 26 -241 35 -272 18z m116 -43 c26
-8 43 -43 29 -60 -16 -19 -76 -34 -111 -27 -39 8 -51 32 -32 69 20 38 31 44
68 32 17 -5 38 -12 46 -14z m514 -1089 c38 -12 58 -25 70 -46 l17 -29 -33 -20
c-18 -11 -41 -20 -50 -20 -22 0 -99 -30 -114 -44 -25 -23 -55 -46 -59 -46 -3
0 -1 9 5 20 6 11 13 33 15 48 2 15 7 39 10 55 3 15 7 39 9 53 10 55 31 60 130
29z"/>
<path d="M2696 3018 c-7 -50 -5 -69 9 -58 14 12 19 90 6 90 -6 0 -12 -15 -15
-32z"/>
<path d="M2165 2931 c-3 -5 5 -18 17 -28 33 -27 48 -57 37 -74 -7 -12 -18 -9
-60 14 -59 32 -78 27 -34 -9 55 -44 145 -54 159 -18 8 20 -31 76 -69 103 -35
23 -41 25 -50 12z"/>
<path d="M2725 2916 c-16 -11 -15 -14 6 -39 30 -33 74 -45 83 -22 15 40 -54
87 -89 61z"/>
<path d="M2431 2766 c-12 -14 -15 -36 -13 -78 3 -39 62 -98 99 -98 65 0 86 81
36 137 -38 41 -103 62 -122 39z m98 -55 c20 -13 4 -50 -25 -57 -31 -8 -54 1
-54 22 0 32 49 54 79 35z"/>
<path d="M2190 2630 c0 -5 12 -17 28 -27 15 -10 29 -20 32 -23 3 -3 21 -17 40
-31 58 -44 79 -65 94 -94 16 -30 9 -60 -34 -152 -26 -56 -32 -90 -15 -97 39
-15 116 107 117 186 1 75 -1 83 -33 116 -60 62 -229 151 -229 122z"/>
<path d="M8910 2391 c0 -24 25 -45 45 -37 21 8 19 33 -4 46 -29 15 -41 12 -41
-9z"/>
<path d="M2247 2214 c-7 -8 3 -34 13 -34 4 0 10 9 13 20 5 19 -12 28 -26 14z"/>
<path d="M7318 1967 c-21 -6 -38 -14 -38 -19 0 -4 -6 -8 -13 -8 -23 0 -94 -75
-123 -130 -16 -29 -35 -63 -42 -75 -7 -14 -14 -77 -17 -159 -2 -75 -7 -140 -9
-145 -10 -15 -17 -81 -11 -91 4 -6 12 -6 23 0 9 5 33 16 52 25 39 16 34 13
188 113 61 41 132 94 157 118 25 24 52 44 60 44 7 0 29 16 49 35 61 58 42 108
-44 119 -57 7 -95 48 -97 102 -1 65 -54 93 -135 71z m57 -43 c27 -28 11 -86
-59 -213 -28 -48 -25 -68 10 -77 13 -3 24 -10 24 -15 0 -25 -156 -141 -184
-137 -17 2 -21 11 -22 43 -3 124 88 335 171 394 36 25 39 26 60 5z"/>
<path d="M1996 1428 c-3 -13 -8 -41 -11 -62 -4 -21 -14 -50 -22 -63 -21 -31
-80 -60 -119 -58 -17 1 -38 -3 -46 -9 -19 -14 -30 -56 -15 -56 39 1 179 49
205 70 50 41 64 102 41 169 -13 36 -27 40 -33 9z"/>
<path d="M1834 1092 c-5 -4 -16 -27 -24 -51 -14 -44 -93 -158 -133 -193 -27
-23 -83 -48 -108 -48 -28 0 -74 -44 -66 -64 18 -47 200 37 276 126 42 51 71
116 77 172 5 53 -2 72 -22 58z"/>
<path d="M1150 743 c0 -12 94 -53 121 -52 18 0 10 6 -28 24 -67 30 -93 38 -93
28z"/>
<path d="M1393 673 c-18 -7 -16 -40 3 -47 26 -10 34 -7 34 13 0 22 -20 40 -37
34z"/>
<path d="M5823 608 c-13 -17 -72 -143 -89 -190 -23 -66 16 -43 75 45 18 26 35
47 40 47 13 0 46 -42 106 -132 78 -121 85 -123 89 -36 l3 53 344 -1 c343 -1
613 -9 679 -20 19 -3 39 -7 45 -7 25 -4 16 80 -11 107 -13 13 -18 14 -37 3
-32 -20 -68 -22 -457 -22 -326 0 -386 2 -506 20 -35 5 -46 2 -73 -21 l-33 -28
-42 45 c-23 24 -59 68 -80 97 -21 28 -39 52 -41 52 -1 0 -7 -6 -12 -12z"/>
<path d="M8562 582 c-15 -50 -15 -89 0 -98 20 -13 40 28 35 74 -7 61 -21 71
-35 24z"/>
<path d="M7998 484 c-8 -7 -4 -20 28 -91 13 -29 28 -53 32 -53 5 0 18 10 30
23 24 25 30 69 10 66 -38 -5 -58 4 -75 31 -11 17 -22 28 -25 24z"/>
<path d="M4896 347 c-14 -18 -33 -50 -44 -72 -10 -22 -28 -57 -41 -78 -20 -32
-28 -37 -52 -33 -16 2 -42 14 -58 25 -16 12 -32 21 -35 21 -6 0 -36 23 -61 47
-8 7 -18 13 -23 13 -6 0 -12 4 -14 8 -1 4 -19 18 -39 30 -47 28 -98 28 -134 0
-25 -20 -27 -25 -22 -74 3 -30 20 -82 38 -119 32 -65 53 -85 45 -43 -3 13 -5
23 -6 23 -2 0 -10 51 -14 90 -3 34 11 84 25 86 5 1 16 2 24 3 14 1 163 -92
197 -124 10 -9 39 -27 64 -39 64 -33 82 -21 118 77 16 42 37 89 48 105 11 15
23 41 28 57 12 42 -11 40 -44 -3z"/>
<path d="M8292 357 c-32 -34 -27 -45 21 -48 82 -7 100 11 51 50 -34 27 -46 26
-72 -2z"/>
<path d="M7709 346 c-49 -24 -25 -46 68 -61 27 -4 33 -2 33 14 0 40 -59 68
-101 47z"/>
<path d="M4078 298 c-70 -76 -140 -202 -131 -237 8 -32 35 -12 90 69 26 38 54
72 61 75 20 7 61 -25 118 -92 61 -72 64 -75 94 -96 34 -23 40 -22 40 11 0 31
-25 63 -132 174 -41 41 -68 78 -71 97 -8 40 -31 40 -69 -1z"/>
<path d="M7354 305 c-7 -17 12 -45 31 -45 6 0 20 9 31 21 16 17 16 22 4 29
-23 15 -60 12 -66 -5z"/>
<path d="M3810 92 c0 -33 18 -82 31 -82 12 0 -6 89 -21 104 -7 7 -10 0 -10
-22z"/>
</g>
</svg>
